<?xml version="1.0" encoding="UTF-8"?>
<svg version="1.1" xmlns="http://www.w3.org/2000/svg" xmlns:xlink="http://www.w3.org/1999/xlink">
<defs>

</defs>
<symbol id="i-game-animal-battle" xmlns="http://www.w3.org/2000/svg" viewBox="0 0 328.46 393.87"><g data-name="圖層 2"><g data-name="Capa 1"><g data-name="001---Chicken"><path d="M111.07 86.62a148.09 148.09 0 0171.45-16.29c34.24 0 56.67 8 71.37 19.25a184.7 184.7 0 01-1-19.25 34.82 34.82 0 00-19-31.43 9.53 9.53 0 00-11.19 1.24 7 7 0 01-11.55-2.5c-4.53-12-14.82-30.3-22.51-31.41q-3.36-.45-7.45 5a7 7 0 01-12-1.07A19.13 19.13 0 00154.38 0a19.16 19.16 0 00-14.82 10.22 7.09 7.09 0 01-9.41 3.11c-6.54-3.24-18.29-6.46-22.85-3.11-2.89 2.15-3.69 8.1-2.25 16.75A7 7 0 0196.71 35c-.06 0-9.66-1.67-13.72 3-3.27 3.75-3 12 .71 23.07a41.12 41.12 0 0027.37 25.54z"/><circle cx="210.65" cy="140.67" r="14.07"/><path data-name="Shape" d="M328.46 142.83a65.66 65.66 0 00-53-24.83 78.26 78.26 0 015.07 21.1 170.34 170.34 0 0147.92 3.73zM317.61 155.07a154.81 154.81 0 00-36.86-1.91 107.71 107.71 0 01-1.7 13.86 127.28 127.28 0 0020.82-4.92 180.18 180.18 0 0017.74-7zM.91 308.49c1.09 1.51 4.37 1.12 4.37 1.12a7 7 0 017.8 9.78C-3.94 356.88 1.69 365.46 3 366.8c3 3.09 11.54 1 15-.5a7 7 0 019 3.31c3.23 6.4 6.89 10 10.76 10.62a18.84 18.84 0 0013.15-5.42 7.14 7.14 0 016.89-1.76 7 7 0 014.93 5.07C64 383 66 386 68.58 387c5.34 1.9 14.63-3.09 18.28-5.77a7 7 0 0110.48 2.47 19.36 19.36 0 0014.84 10.19A19.33 19.33 0 00127 383.68a7 7 0 016.26-3.87 7.11 7.11 0 016.26 3.87 19.36 19.36 0 0014.84 10.19 19.33 19.33 0 0014.84-10.19 7 7 0 0110.48-2.47 23.55 23.55 0 0018.92 6.05 22.44 22.44 0 0012.8-10.62 7.09 7.09 0 017.39-3.8c14 2.4 18.07.78 19.27-.42 3.38-3.37 1.12-17.93-1.55-34.81-1.54-9.85-3.23-21.1-4.71-34.4-4.15-37.28 8.16-68 19-95.09 8.3-20.68 16.11-40.16 16.11-60.42 0-40.79-30-63.3-84.4-63.3-66.19 0-99.67 32.07-141.87 95.3C10.48 225 14.06 244.06 18 247.65a6.6 6.6 0 011.76 9.14C-4.92 298 .21 307.5.91 308.49zm209.74-195.95a28.13 28.13 0 11-28.13 28.13 28.13 28.13 0 0128.13-28.13zm-58.52 176.18a7 7 0 016.12.85c.71.42 16.53 10.62 26.31.84a7.06 7.06 0 1110 10 28.13 28.13 0 01-20.4 8.23A45.16 45.16 0 01153.4 303c-19.27 5.07-30.24-5.06-33.41-11.46a7 7 0 013.09-9.43 7.08 7.08 0 019.43 3c.49.91 5.28 8.37 19.62 3.58zM84.05 189.9a7 7 0 017 7 13.27 13.27 0 0014.1 14.1 6.88 6.88 0 016.26 3.87c.49.78 5.21 8.37 19.62 3.52a7.05 7.05 0 114.51 13.36 42 42 0 01-13.23 2.32 26.8 26.8 0 01-21-9.21A27.32 27.32 0 0177 196.94a7 7 0 017-7z"/><path data-name="Shape" d="M263.86 213.37a334.61 334.61 0 00-14.07 40.2 39.07 39.07 0 0031.2 13.7 19 19 0 0018.63-8.44c6.85-12.79-1.65-37.83-10.42-51a58.57 58.57 0 01-9.62-26.65c-1.34.19-2.75.33-4.12.49-3.15 10.55-7.3 20.99-11.6 31.7z"/></g></g></g></symbol>
<symbol id="i-game-e-battle" xmlns="http://www.w3.org/2000/svg" viewBox="0 0 402.53 370.08" fill="currentColor"><g data-name="圖層 2"><g data-name="Capa 1"><path d="M180.63 161.76c-1.85-8-8.33-18.25-15.91-16.49-8.16 1.88-11.11 10.81-11.14 10.89a11.67 11.67 0 01-20 4.68c-3.64-3.69-9.39-6.23-14.83-5-7.48 1.73-9 13.52-7.07 21.8 3.73 16.14 20.16 30.42 45.5 39.8 18.66-19.54 27.17-39.58 23.45-55.71zm0 0c-1.85-8-8.33-18.25-15.91-16.49-8.16 1.88-11.11 10.81-11.14 10.89a11.67 11.67 0 01-20 4.68c-3.64-3.69-9.39-6.23-14.83-5-7.48 1.73-9 13.52-7.07 21.8 3.73 16.14 20.16 30.42 45.5 39.8 18.66-19.54 27.17-39.58 23.45-55.71zm118.44 146.13L230.12 9.14A11.8 11.8 0 00216 .3L9.15 48A11.8 11.8 0 00.3 62.18l69 298.76a11.79 11.79 0 0014.14 8.83L290.24 322a11.79 11.79 0 008.83-14.11zM76.33 129.35a11.8 11.8 0 01-14.15-8.83l-5.3-23a11.79 11.79 0 1123-5.31l5.3 23a11.78 11.78 0 01-8.85 14.14zm92.1 110.19a11.77 11.77 0 01-11.7 2.7c-51-16.19-64.52-44.08-68-59.26-5.11-22.12 3.92-45.28 24.75-50.09a37.75 37.75 0 0124.87 2.92 37.83 37.83 0 0121.09-13.53c21-4.84 39.13 12.21 44.2 34.18 3.47 15.18 3.56 46.17-35.21 83.08zm65.23 47.14a11.78 11.78 0 01-14.14-8.83l-5.31-23a11.8 11.8 0 0123-5.31l5.3 23a11.79 11.79 0 01-8.85 14.14zm-68.94-141.41c-8.16 1.88-11.11 10.81-11.14 10.89a11.67 11.67 0 01-20 4.68c-3.64-3.69-9.39-6.23-14.83-5-7.48 1.73-9 13.52-7.07 21.8 3.73 16.14 20.16 30.42 45.5 39.8 18.66-19.54 27.17-39.58 23.45-55.71-1.85-8-8.33-18.25-15.91-16.49zM297.58 196.55l-24-103.83h.22c30.62 7.3 32.35 67.67 24 102.71-.09.35-.17.72-.26 1.07z"/><path d="M402.2 62.74L331.13 361a11.81 11.81 0 01-14.21 8.74l-63.22-15.07 41.84-9.67a35.35 35.35 0 0026.51-42.43l-14.63-63.44A195.86 195.86 0 00320.78 201c15.34-64.37-2.88-122-41.47-131.17A45.62 45.62 0 00268 68.58l-12.15-52.84 137.62 32.8a11.78 11.78 0 018.73 14.2z"/></g></g></symbol>
<symbol id="i-game-e-game" xmlns="http://www.w3.org/2000/svg" viewBox="0 0 372.69 278.07" fill="currentColor"><g data-name="圖層 2"><g data-name="Capa 1"><path d="M343.58 0H29.12A29.12 29.12 0 000 29.12V249a29.12 29.12 0 0029.12 29.12h314.46A29.11 29.11 0 00372.69 249V29.12A29.11 29.11 0 00343.58 0zm-26.21 242.4h-262a10.92 10.92 0 010-21.84h262a10.92 10.92 0 110 21.84zm10.92-63.3a10.92 10.92 0 01-10.92 10.9h-262a10.92 10.92 0 01-10.97-10.9v-131a10.92 10.92 0 0110.92-10.94h262.05a10.92 10.92 0 0110.92 10.92z"/><path d="M131.75 59H66.24v109.19h65.51zm-16.51 43.41L99.6 132.68a2.91 2.91 0 01-2.6 1.57h-8.65a2.91 2.91 0 01-2.57-4.25l13.14-24.56H85.34a2.91 2.91 0 01-2.91-2.91v-6.35a2.91 2.91 0 012.91-2.91h25.07a2.91 2.91 0 012.65 1.7l2.24 4.89a2.93 2.93 0 01-.06 2.55zM219.1 59h-65.51v109.19h65.51zm-16.51 43.41L187 132.68a2.91 2.91 0 01-2.59 1.57h-8.71a2.91 2.91 0 01-2.57-4.28l13.15-24.56h-13.59a2.91 2.91 0 01-2.91-2.91v-6.32a2.91 2.91 0 012.91-2.91h25.07a2.91 2.91 0 012.65 1.7l2.24 4.89a2.93 2.93 0 01-.06 2.55zM240.94 168.19h65.51V59h-65.51zm16.19-72a2.91 2.91 0 012.87-2.92h25.07a2.9 2.9 0 012.65 1.7l2.28 4.89a2.89 2.89 0 01-.06 2.55l-15.64 30.27a2.91 2.91 0 01-2.59 1.57h-8.66a2.91 2.91 0 01-2.57-4.28l13.15-24.56H260a2.91 2.91 0 01-2.91-2.91v-6.32z"/></g></g></symbol>
<symbol id="i-game-fishing" xmlns="http://www.w3.org/2000/svg" viewBox="0 0 391.69 353.44" fill="currentColor"><g data-name="圖層 2"><g data-name="Capa 1"><path d="M286.88 92.37V11.48A11.48 11.48 0 00275.4 0c-3.16 0-62.13.39-100.73 26.76 24.71 2.41 47.21 10.71 68.39 25.17C261.47 64.5 275.9 80 286.88 92.37zM243.06 301.51c-21.18 14.46-43.68 22.75-68.39 25.17 38.6 26.37 97.57 26.76 100.73 26.76A11.48 11.48 0 00286.88 342v-80.93c-11 12.35-25.41 27.87-43.82 40.44zM152.24 170.62v12.2l25.21 16.81c3.11-3.37 6.92-10.12 6.92-22.91a34.34 34.34 0 00-8.06-22.15z"/><path d="M159.12 49C87.78 49 55.44 96.28 33.5 143.36L4.11 167.91a11.48 11.48 0 00.3 17.85l29.12 22.73c21.66 47.91 53.82 96 125.59 96 73 0 105.35-56.64 129.29-78.81v-97.9C264.48 105.61 232.16 49 159.12 49zM91.8 163.71a11.48 11.48 0 1111.47-11.47 11.47 11.47 0 01-11.47 11.47zm89.31 60.62a11.5 11.5 0 01-10-1.34l-36.71-24.48a11.47 11.47 0 01-5.12-9.55v-24.48a11.47 11.47 0 015.12-9.55l36.72-24.48a11.47 11.47 0 0112.73 0c1 .64 23.47 16 23.47 46.27 0 38.43-25.14 47.28-26.21 47.61zM380.21 91.8c-38.45 0-52.92 28.76-68.85 39.17v91.5c15.92 10.4 30.4 39.17 68.85 39.17a11.48 11.48 0 0011.48-11.48V103.28a11.48 11.48 0 00-11.48-11.48z"/></g></g></symbol>
<symbol id="i-game-keno" xmlns="http://www.w3.org/2000/svg" viewBox="0 0 346.75 346.75" fill="currentColor"><g data-name="圖層 2"><g data-name="Capa 1"><path d="M173.38 0a173.38 173.38 0 10173.37 173.38A173.37 173.37 0 00173.38 0zM35.86 177.85a8.24 8.24 0 01-8.18 8.28h-.05a8.24 8.24 0 01-8.22-8.13c0-3.3.34-81.15 71.14-134.1A8.22 8.22 0 01100.4 57c-64.23 48.06-64.55 120.13-64.54 120.85zm137.52 92.66a97.14 97.14 0 1197.13-97.13 97.14 97.14 0 01-97.13 97.13zm119.73-6.2a6.16 6.16 0 01-4.66-10.19c28.47-32.92 28.65-84.53 28.65-85.05a6.16 6.16 0 016.15-6.18 6.18 6.18 0 016.17 6.15c0 2.3-.21 56.78-31.66 93.14a6.19 6.19 0 01-4.65 2.13z"/><path d="M190.32 169.36v-.58c15.33-7.28 20.49-18.57 20.49-29.12 0-15.51-12.06-30.64-36.2-30.64-21.83 0-38.5 13.42-38.5 33.14 0 10.73 5.94 21.45 19.73 28l.19.57c-15.32 6.51-24.71 17.63-24.71 33.33 0 18.19 15.71 33.7 41.75 33.7 23.76 0 42.34-14.55 42.34-36.2.01-15.15-9.57-26.06-25.09-32.2zM152 141c0-10.73 7.66-19.91 21.64-19.91 15.13 0 21.07 10.34 21.07 20.3 0 11.29-8.23 18.95-19 22.6C161.4 160.16 152 153.46 152 141zm21.45 84.46c-15.9 0-25.48-11.1-24.91-23.74 0-11.87 7.86-21.45 22.41-25.65 16.86 4.78 27.4 12.06 27.4 27.18.02 12.84-9.75 22.22-24.88 22.22z"/></g></g></symbol>
<symbol id="i-game-live" xmlns="http://www.w3.org/2000/svg" viewBox="0 0 386.35 292.13" fill="currentColor"><g data-name="圖層 2"><g data-name="Capa 1"><path d="M368.25 175.8l-1.92-.36-.77-.16-1.14-.23-.87-.19-1-.22-.88-.21-1-.24-.86-.21-1-.26-.83-.22-1.05-.29-.77-.21-1.12-.33-.68-.2-1.22-.37-.57-.18-1.36-.43-.41-.14-1.58-.53-.18-.06C276.47 145.7 238.6 63.57 189.5 115.59a5.1 5.1 0 01-7.39 0c-53.2-56.44-93.26 45-178.74 60.21a4.14 4.14 0 00-.91 7.85C74 215.71 89.91 318 182.41 286a10.53 10.53 0 016.79 0c28.68 9.89 50 6.9 67.87-2.89h.09l1.12-.63.25-.14 1-.56.4-.24c.28-.16.55-.33.82-.5l.53-.32.7-.44.64-.41.58-.38.76-.5.46-.32.86-.59.36-.25 1-.68.24-.18c.36-.26.72-.52 1.07-.79l.14-.1 1.18-.89c9.55-7.33 18.26-16.45 26.9-26.21a2.2 2.2 0 00.2-.23c.27-.29.53-.59.79-.89l.9-1 .05-.06c20.41-23.26 40.74-49.5 71.09-63.1a4.4 4.4 0 001.25-.86.6.6 0 01.08-.08 3.47 3.47 0 00.31-.36 4.12 4.12 0 00-2.59-6.6zM98.06 195.57a.48.48 0 01.15-.91c37.5-3.32 54-20 87.59-18.64 33.58-1.35 50.1 15.32 87.6 18.64a.47.47 0 01.15.91q-87.7 38.58-175.49 0zM271.33 69.54c2.72 1.44 5.51 2.87 8.52 4.31a4.58 4.58 0 003.7 0c33.73-15.77 46.78-33.73 46.78-49 0-13.43-10-24.9-24.29-24.9h-.08a31.87 31.87 0 00-11 1.89h.05a30.06 30.06 0 00-13.25 9.26A31 31 0 00257.48 0c-14.41 0-24.29 11.54-24.29 24.9 0 13.86 10.81 29.97 38.14 44.64zM386.17 99.79v-.26a19.41 19.41 0 00-3.58-8.66l-.25-.32a17.76 17.76 0 00-14.21-6.8c-.6 0-1.17 0-1.74.06h-.12a24.42 24.42 0 00-4.42.73l-.43.1a22.84 22.84 0 00-11.58 7.53 23.36 23.36 0 00-18.33-8.45c-10.79 0-18.26 8.68-18.26 18.71 0 10.69 8.57 23.18 30.26 34.4 1.44.75 2.87 1.43 4.45 2.18a4.46 4.46 0 003.69 0c25.05-11.77 34.71-25.2 34.71-36.59a19.63 19.63 0 00-.19-2.63z"/></g></g></symbol>
<symbol id="i-game-sport" xmlns="http://www.w3.org/2000/svg" viewBox="0 0 403.35 305.51" fill="currentColor"><g data-name="圖層 2"><g data-name="Capa 1"><path d="M360.81 41.44A151.72 151.72 0 00300.18.7a11.9 11.9 0 00-8 0 151.72 151.72 0 00-60.64 40.74 147.82 147.82 0 0064.65 14.93 147.79 147.79 0 0064.62-14.93zM129.59 69.41v57.92a106.25 106.25 0 0063.89-31 117.8 117.8 0 00-63.89-26.89zM105.92 127.33V69.41A117.8 117.8 0 0042 96.3a106.28 106.28 0 0063.9 31zM105.92 304.92V247A106.28 106.28 0 0042 278a117.8 117.8 0 0063.92 26.92zM129.59 304.92A117.8 117.8 0 00193.48 278a106.25 106.25 0 00-63.89-31zM129.59 199v24.21a129.87 129.87 0 0180.46 37.94A117.91 117.91 0 00235.51 199zM0 175.33h105.92v-24.21a129.82 129.82 0 01-80.46-37.94A117.83 117.83 0 000 175.33zM210.05 113.18a129.87 129.87 0 01-80.46 37.94v24.21h105.92a117.91 117.91 0 00-25.46-62.15zM25.46 261.15a129.82 129.82 0 0180.46-37.94V199H0a117.83 117.83 0 0025.46 62.15z"/><path d="M375.66 60.45A171.6 171.6 0 01296.16 80a171.53 171.53 0 01-79.49-19.59 163.35 163.35 0 00-9.59 16.4 141.89 141.89 0 0145.72 154.27 170.91 170.91 0 01122.86 14 167.68 167.68 0 000-184.6zM308 181.86a11.84 11.84 0 01-23.67 0v-57.28a11.84 11.84 0 1123.67 0zM239.29 260.55c-1.43 2.37-2.95 4.69-4.52 7a151.28 151.28 0 0057.38 37.27 11.71 11.71 0 008 0 151.61 151.61 0 0060.63-40.74 147.38 147.38 0 00-121.52-3.51z"/></g></g></symbol>
<symbol id="i-game-vietnam-lottery" xmlns="http://www.w3.org/2000/svg" viewBox="0 0 373.79 323.73" fill="currentColor"><g data-name="圖層 2"><g data-name="Capa 1"><path d="M276.06 128.27A97.73 97.73 0 10373.79 226a97.71 97.71 0 00-97.73-97.73zM251.84 248.4a39.17 39.17 0 01-29.77-72.46 39.17 39.17 0 1129.77 72.46z"/><path d="M221.79 185.89l-1.92 10.05a43.8 43.8 0 0014.07-1.43l-9.09 48.62 13.4 2.49 12.06-64.32-10.05-1.92a33.69 33.69 0 01-18.47 6.51z"/><path d="M274.62 117.26a108.69 108.69 0 0126.38 3.25C287.16 51.79 225.71 0 152 0 68.06 0 0 67.1 0 149.9s68.06 149.8 152 149.8a156 156 0 0044.12-6.41 103.74 103.74 0 01-28-70.93c-.03-58.1 47.64-105.1 106.5-105.1zm-161.29 37.81L66.05 189l18.09-54.8-47.29-33.88h58.39l18.09-54.76 18.1 54.76h58.39l-47.29 33.88 18.09 54.8z"/></g></g></symbol>
<symbol id="i-game-yabo" xmlns="http://www.w3.org/2000/svg" viewBox="0 0 372.7 278.1" fill="currentColor"><path d="M295 261H78.4v29.9h227.8V261zM104.9 75.7l-15.6 38.2 10.1 5 10.1 4.9 12.4 6.1 9.1-13.1 6.5-9.2 6.5-9.3zM280.8 75.7l-39.8 23 6.5 9.3 6.5 9.2 8.8 12.7 13.3-6.5 10.1-5 10.1-4.9z"/><path d="M353.3 73c-16.2 0-29.7 12.2-31.5 28-.2 1.2-.2 2.5-.2 3.8 0 2.9.4 5.7 1.1 8.3 1 3.7 2.7 7.1 4.8 10.2l-22.6 11.1-10.1 5-1.3.6-8.9 4.4-29.2 14.4-21.1-30.1-5.7-8.1-.8-1.2-6.5-9.3L199.5 79c3.8-.9 7.4-2.5 10.5-4.6 3.2-2.1 5.9-4.8 8.2-8 3.7-5.2 5.9-11.5 5.9-18.4 0-17.5-14.2-31.7-31.7-31.7S160.7 30.5 160.7 48c0 6.8 2.1 13.1 5.8 18.2 2.2 3.1 5 5.9 8.1 8 3.1 2.1 6.7 3.7 10.5 4.7l-21.5 30.7-6.5 9.3-1.4 2-5.1 7.3-21.4 30.5-28.3-13.9-9.3-4.6-.8-.4-10.1-5-24.6-12.1c2.5-2.8 4.5-6.1 5.9-9.6 1.4-3.6 2.2-7.4 2.2-11.5v-.1C64.2 84 50 69.7 32.5 69.7S.7 84 .7 101.5c0 16.1 12 29.4 27.5 31.5 1.4.2 2.8.3 4.3.3 2.6 0 5.1-.3 7.5-.9 3.7-.9 7.2-2.5 10.3-4.6l35.4 99.5 4 11.3h205.4l4-11.3 34.7-97.5c3 2.3 6.4 4.1 10.1 5.3 3 .9 6.2 1.4 9.5 1.4.7 0 1.3 0 2-.1 16.6-1 29.7-14.9 29.7-31.7C385 87.3 370.8 73 353.3 73z"/></symbol>
<symbol id="i-point-deposit" xmlns="http://www.w3.org/2000/svg" viewBox="0 0 512 512"><g fill="currentColor"><path d="M448 288v192H64V288H0v32h32v192h448V320h32v-32z"/><path d="M213.7 314.3c8.6 2.4 17.4 4 26.3 4.9v74.2l-28.7-28.7-22.6 22.6 67.3 67.3 67.3-67.3-22.6-22.6-28.7 28.7v-74.2c88-8.9 152.1-87.5 143.2-175.4-.5-4.7-1.2-9.4-2-14l-31.4 6c13.3 69.3-32.2 136.3-101.5 149.6C211 298.7 144 253.2 130.7 183.9c-13.3-69.3 32.2-136.3 101.5-149.6 19.3-3.7 39.1-2.9 58 2.3l8.5-30.8C213.5-17.7 125.4 32.4 102 117.6s26.5 173.2 111.7 196.7z"/><path d="M360.8 39.1c-9-7.8-18.7-14.5-29.2-20.1l-15.1 28.2c8.4 4.5 16.2 9.9 23.4 16.1l20.9-24.2zM373.3 108.7l29.3-12.8c-4.8-10.9-10.7-21.2-17.8-30.7l-25.8 19c5.7 7.6 10.5 15.8 14.3 24.5zM256 112h48V80h-32V48h-32v35c-24.9 8.8-38 36.1-29.3 61.1 6.8 19.2 24.9 32 45.3 32 8.8 0 16 7.2 16 16s-7.2 16-16 16h-48v32h32v32h32v-34.9c24.9-8.8 38-36.1 29.3-61.1-6.8-19.2-24.9-32-45.3-32-8.8 0-16-7.2-16-16s7.2-16.1 16-16.1zM160 416h-32v-32H96v64h64zM352 416v32h64v-64h-32v32z"/></g></symbol>
<symbol id="i-point-transfer" xmlns="http://www.w3.org/2000/svg" viewBox="0 0 512.1 512.1"><g fill="currentColor"><path d="M341.3 14.7c-10.7-3.8-21.7-6.9-32.8-9.2l-6.6 31.4c9.8 2 19.4 4.7 28.8 8l10.6-30.2zM272.4 32.7l2.3-32C263.3-.1 252-.1 240.6.5l1.9 32c10-.6 19.9-.6 29.9.2zM239.6 479.5l-2.3 31.9c6.2.4 12.4.7 18.7.7 5.2 0 10.3-.1 15.4-.4l-1.9-32c-10 .5-19.9.4-29.9-.2zM170.6 497.4c10.7 3.8 21.7 6.9 32.9 9.2l6.6-31.3c-9.7-2-19.3-4.7-28.7-8l-10.8 30.1zM507.4 208.3C498.1 160.1 475 115.5 441 80h39V48h-96v96h32v-43.9c86.4 88 85.2 229.4-2.9 315.8-31.3 30.8-71 51.6-114.1 59.9l6.1 31.4c138.5-26.6 229-160.5 202.3-298.9zM272 368v-34.9c24.9-8.8 38-36.1 29.3-61.1-6.8-19.2-24.9-32-45.3-32-8.8 0-16-7.2-16-16s7.2-16 16-16h48v-32h-32v-32h-32v35c-24.9 8.8-38 36.1-29.3 61.1 6.8 19.2 24.9 32 45.3 32 8.8 0 16 7.2 16 16s-7.2 16-16 16h-48v32h32v32h32zM96 412C9.6 324 10.9 182.6 98.9 96.1c31.3-30.8 71-51.6 114.1-59.9l-6.2-31.4C68.4 31.6-22.1 165.5 4.7 303.9 14 352.1 37.1 396.6 71 432H32v32h96v-96H96v44z"/><path d="M416 256c0-88.4-71.6-160-160-160S96 167.7 96 256s71.6 160 160 160c88.3-.1 159.9-71.6 160-160zm-288 0c0-70.7 57.3-128 128-128s128 57.3 128 128-57.3 128-128 128-127.9-57.3-128-128z"/></g></symbol>
<symbol id="i-point-withdraw" xmlns="http://www.w3.org/2000/svg" viewBox="0 0 512.2 512.2"><g fill="currentColor"><path d="M492.9 330.6c-43.4-27.1-100.2-17.4-132.1 22.5l-14.2 17.8-73.2 29.3h-79.2l54.1-30.1c7.8-4.4 14.4-10.7 19.2-18.3 94.3-3.8 168.8-81.3 169-175.6 0-10.5-.9-20.9-2.8-31.2l-31.5 5.6c14.1 78.3-37.9 153.2-116.2 167.3-3.2.6-6.5 1.1-9.7 1.4-.4-9.3-3.1-18.4-8-26.4-14.7-23.5-44.5-32.4-69.7-20.8L168 286.2c-61-51-69-141.6-18.1-202.5 27.4-32.7 67.8-51.6 110.4-51.5 18.9 0 37.6 3.7 55.1 10.9l12.3-29.6c-89.6-37.3-192.6 5.1-229.9 94.7-27.5 66-12.2 142.1 38.5 192.4l-13.3 6.1L77.7 352H4.4v32H91l50.7-50.7 70.2-32.4c10.5-4.8 23-1.1 29.2 8.7 6.7 10.8 3.5 25-7.3 31.7-.3.2-.7.4-1 .6L178.7 372c-15.4 8.6-21 28.1-12.4 43.5 5.6 10.1 16.3 16.4 28 16.5h85.3l86.8-34.7 19.5-24.4c17.6-22 46.8-31 73.8-22.8l-65.6 85.2-89.3 44.7H4.4v32h307.8l102.7-51.3 93-120.9-15-9.2z"/><path d="M394.2 123l29.8-11.8c-4.3-10.9-9.8-21.4-16.2-31.2L381 97.6c5.2 8 9.6 16.5 13.2 25.4zM385.7 52.6c-8.2-8.3-17.3-15.8-27-22.4l-17.9 26.5c8 5.4 15.4 11.5 22.1 18.4l22.8-22.5zM260.4 128.2h48v-32h-32v-32h-32v34.9c-24.9 8.8-38 36.1-29.3 61.1 6.8 19.2 24.9 32 45.3 32 8.8 0 16 7.2 16 16s-7.2 16-16 16h-48v32h48c26.5 0 48-21.5 48-48s-21.5-48-48-48c-8.8 0-16-7.2-16-16s7.1-16 16-16z"/></g></symbol>
</svg>