<?xml version="1.0" standalone="no"?>
<!DOCTYPE svg PUBLIC "-//W3C//DTD SVG 1.1//EN" "http://www.w3.org/Graphics/SVG/1.1/DTD/svg11.dtd" >
<svg xmlns="http://www.w3.org/2000/svg">
<metadata>Generated by IcoMoon</metadata>
<defs>
<font id="icomoon" horiz-adv-x="1024">
<font-face units-per-em="1024" ascent="896" descent="-128" />
<missing-glyph horiz-adv-x="1024" />
<glyph unicode="&#x20;" d="" />
<glyph unicode="&#xe600;" glyph-name="uniE600" d="M664 856q-80 24-157.5 24.5t-151.5-25.5-136-69.5-109.5-108.5-72.5-142q-24-80-24.5-157.5t25.5-151.5 69.5-136 108.5-109.5 142-72.5q80-24 157.5-24.5t151.5 25.5 136 69.5 109.5 108.5 72.5 142q24 80 24.5 157.5t-25.5 151.5-69.5 136-108.5 109.5-142 72.5v0zM604 602l145 47v94q72-47 120-118.5t66-155.5l-86 33-96-118-107 7-77 104zM534 814l-56-77 90-123-34-104-125-41-89 57-8 152-92 24q64 58 145.5 87t168.5 25v0zM163 294l-52-76q-60 145-13 294l50-61q-8-45-5-91 1-13 3-25 0-3 3-3t3 3q-1 14 0 25 1 40 13 82l135 52 87-56 1-128-79-60zM378-30q-69 22-129 68l75 26q40-23 84-36 12-3 25-6 3-1 3.5 2t-1.5 4q-12 4-24 9-39 15-76 43l-3 140 77 59 126-41 28-93-91-122 51-73q-75-2-145 20v0zM742 16l2 83q24 21 41 40 8 8 17 20 2 2 0 4-3 2-5 0-10-11-18-18-19-17-46-35l-133 46-30 97 73 100 107-6 83-129 87 23q-50-144-178-225v0z" />
<glyph unicode="&#xe601;" glyph-name="uniE601" d="M269-40q-29 0-50.5 18.5t-21.5 57.5v315h-65q-19 0-36 21t-17 50v8l421 436q7 8 20 8 15 0 23-8 2-1 424-432l6-5v-9q0-28-10-45-13-22-41-22h-64l-1-320v-2q-4-18-16-34-24-37-64-37h-156v321q0 4-3.5 10.5t-6.5 6.5h-169q-3 0-7-5t-4-12v-321h-162zM134 392h104v-356q0-35 31-35h121v280q0 23 15.5 40t36.5 17h169q25 0 40-23 10-16 11-33v-281h115q28 0 39 37l2 356h104q4 0 6 2 3 5 4 16-384 391-411 418l-401-415q3-17 14-23z" />
<glyph unicode="&#xe602;" glyph-name="uniE602" horiz-adv-x="1025" d="M988 391q-31 87-69 152.5t-75 102.5-75.5 55.5-71.5 18-62-16.5q-12-7-27-15.5t-21.5-12-14.5-8-12.5-6-8.5-3-9.5-2-9.5-0.5h-20q-29 0-44 5.5t-79 41.5q-29 16-62 16.5t-71.5-18-75.5-55.5-75-102.5-69-152.5q-77-223 7-312 22-23 44-29 36-5 78.5 10t82 43.5 69 54 53.5 52.5q25 25 60 37t59 11l23-1q4 0 10 0.5t24-0.5 34.5-5.5 37-15 36.5-26.5q24-27 53.5-52.5t69-54 82-43.5 78.5-10q1 0 8 3t20 12.5 25 24 21.5 41 12 61-6 86.5-29.5 113zM314 332q-57 0-97.5 40.5t-40.5 98 40.5 97.5 97.5 40 97.5-40 40.5-97.5-40.5-98-97.5-40.5zM744.5 311q-16.5 0-28.5 12t-12 28.5 12 28 28.5 11.5 28-11.5 11.5-28-11.5-28.5-28-12zM748 482q-17 0-28.5 11.5t-11.5 28 11.5 28.5 28.5 12 28.5-12 11.5-28.5-11.5-28-28.5-11.5zM831.5 398q-16.5 0-28 12t-11.5 28.5 11.5 28 28 11.5 28-11.5 11.5-28-11.5-28.5-28-12zM354 542h-79v-32h-33v-79h33v-33h79v33h32v79h-32v32z" />
<glyph unicode="&#xe603;" glyph-name="uniE603" d="M800 75q-55-51-125-79t-147-28-147 28-125 79v0q26 24 47 52l24-17 19 26-24 18q24 37 39 80l30-10 10 30-31 10q12 43 14 88h32v32h-32q-2 45-14 88l31 10-10 30-30-10q-15 43-39 80l24 18-19 26-24-17q-21 28-47 52 55 51 125 79t147 28 147-28 125-79q-26-24-47-52l-24 17-19-26 24-18q-24-37-39-80l-30 10-10-30 31-10q-12-43-14-88h-32v-32h32q2-45 14-88l-31-10 10-30 30 10q15-43 39-80l-24-18 19-26 24 17q21-28 47-52v0zM841 118q87 110 87 250 0 156-105 271-25-23-45-49l29-21-19-25-28 20q-21-34-34-72l31-10-10-30-31 10q-10-38-12-78h32v-32h-32q2-40 12-78l31 10 10-30-31-10q13-38 34-72l28 20 19-25-29-21q20-26 45-49l1 1q1 2 3 4.5t4.5 5 5 5.5 4.5 5zM213 122q-85 108-85 246 0 156 105 271 25-23 45-49l-29-21 19-25 28 20q21-34 34-72l-31-10 10-30 31 10q10-38 12-78h-32v-32h32q-2-40-12-78l-31 10-10-30 31-10q-13-38-34-72l-28 20-19-25 29-21q-20-26-45-49l-1 1q-1 2-3.5 5t-5.5 6-5.5 6.5-4.5 6.5z" />
<glyph unicode="&#xe604;" glyph-name="uniE604" d="M973-77h-39q-12 99-73.5 183.5t-154.5 133-194 48.5-194-48.5-154.5-133-73.5-183.5h-39q15 139 104.5 245.5t219.5 145.5q-69 36-110 100t-41 143q0 76 40 142.5t106.5 106 141.5 39.5 141.5-39.5 106.5-106 40-142.5q0-79-41-143t-110-100q130-39 219.5-145.5t104.5-245.5zM762 557q0 62-36.5 120t-94.5 93.5-119 35.5-119-35.5-94.5-93.5-36.5-120 36.5-115.5 94-84.5 119.5-31 119.5 31 94 84.5 36.5 115.5z" />
<glyph unicode="&#xe605;" glyph-name="uniE605" d="M865 761l-247 66q-52 14-97.5-12.5t-59.5-77.5l-28-105q-3-6-3-13 0-13 9.5-22.5t22.5-9.5q22 0 30 21v-1l31 113q7 26 30 39.5t48 6.5l247-67q26-6 39.5-29t6.5-49l-66-247q-7-26-30-39t-49-7l-20 6q-6 3-13 3-13 0-22.5-9.5t-9.5-22.5q0-11 6.5-19.5t17.5-11.5v-1l24-6q52-14 98 12.5t59 77.5l67 247q13 52-13.5 97.5t-77.5 59.5zM721.5 534.5q5.5 19.5-4.5 36.5t-29.5 22.5-36.5-4.5-22-29.5 4.5-36.5 29-22 36.5 4.5 22.5 29zM525 478q-27 46-78 59.5t-97-12.5l-222-128q-46-27-59.5-78t12.5-97l128-222q27-46 78-59.5t97 12.5l222 128q46 27 59.5 78t-12.5 97zM238 238.5q-17-9.5-36.5-4.5t-29.5 22-4.5 36.5 22.5 29.5 36.5 4.5 29.5-22.5 4.5-36.5-22.5-29zM350 44.5q-17-9.5-36.5-4.5t-29.5 22-4.5 36.5 22.5 29.5 36.5 4.5 29.5-22.5 4.5-36.5-22.5-29zM391 197.5q-17-9.5-36.5-4.5t-29.5 22-4.5 36.5 22.5 29.5 36.5 4.5 29.5-22.5 4.5-36.5-22.5-29zM432 350.5q-17-9.5-36.5-4.5t-29.5 22-4.5 36.5 22.5 29.5 36.5 4.5 29.5-22.5 4.5-36.5-22.5-29zM544 156.5q-17-9.5-36.5-4.5t-29.5 22-4.5 36.5 22.5 29.5 36.5 4.5 29.5-22.5 4.5-36.5-22.5-29zM642 672q5 19-4.5 36t-29 22.5-36.5-4.5-22.5-29 4.5-36.5 29.5-22.5 36.5 5 22 29zM708 422.5q-5-19.5 5-36.5t29-22.5 36 4.5 22.5 29.5-4.5 36.5-29.5 22-36.5-4.5-22-29z" />
<glyph unicode="&#xe606;" glyph-name="uniE606" d="M461 283q-27 16-29 17-86 49-95 55-7 4-15 4-12 0-68 1-77 1-89 1-19 1-33 1-15 1-25.5 12t-9.5 27q0 15 10.5 25.5t25.5 9.5q42 0 122-1 8 0 35-0.5t42-0.5q19-1 35-10t115-66l6-4 1 1v1l1 1v1l1 1v1l1 1v1l1 1v1l1 1v1l2 2v1l1 1v1l1 1v1l1 1v1l1 1v1l1 1v1l2 2v1l1 1v1l1 1v1l1 1v1l1 1v1l2 2v1l1 1v1l1 1v1l1 1v1l1 1v1l1 1v1l2 2v1l1 1v1l1 1v1l1 1v1l1 1v1l1 1v1l2 2v1l1 1v1l1 1v1l1 1v1l1 1v1l2 2v1l1 1v1l1 1v1l1 1v1l1 1v1l1 1v1l2 2v1l1 1v1l1 1v1l1 1v1l1 1v1l1 1v1l2 2v1l1 1v1l1 1v1l1 1v1l1 1v1l2 2v1l1 1v1l1 1v1l1 1v1l1 1v1l1 1v1l2 2v1l1 1v1l1 1v1l1 1v1l1 1v1l1 1v1l2 2v1l1 1v1l1 1v1l1 1v1l1 1v1l2 2v1l1 1v1l1 1v1l1 1v1l1 1v1l1 1v1l2 2v1l1 1v1l1 1v1l1 1v1l1 1v1l1 1v1l2 2v1l1 1v1l1 1v1l1 1v1l1 2-1 1q-9 2-40.5 11.5t-48.5 14.5q-13 4-41 5-17 1-57.5 2.5t-63.5 2.5q-10 0-18 6.5t-9 15.5q-2 13 6 22.5t21 9.5q5 0 45-2 49-2 62-2 44-2 51-3 5-1 33-9 244-72 310-92 12-4 55-22 20-9 58-25.5t55-23.5q14-7 18-18 5-17-7-28-13-12-30-5-10 4-27.5 12t-25.5 11q-91 39-104 44-8 3-106 32 0 1-11 4-7-19-7-20-3-5-23-42-61-114-68-127-13-24-36-39-5-4-54-39-64-45-69-49-7-5-11-13-28-58-64-133-11-24-36-23-21 0-31 17.5t-1 36.5q4 9 38 78 2 6 14.5 31.5t18.5 39.5q6 11 16 19 10 7 59 41zM710 751q39-1 61.5-26t22.5-57q-1-34-25-58.5t-59-24.5q-34 0-58.5 24.5t-24.5 58.5 24.5 59 58.5 24zM1 549q-1 34 23.5 58.5t59.5 24.5q34 0 58-24.5t24-59.5q0-34-24.5-58t-58.5-24q-33 0-58 24t-24 59z" />
<glyph unicode="&#xe607;" glyph-name="uniE607" d="M959 303q0 56-53.5 104.5t-146 78.5-204.5 35v-3l3-23q89-6 162-29t115-58q47-39 47-82 0-17-8-35-12-25-40-47-48-40-135.5-63.5t-191.5-23.5-191.5 23.5-135.5 63.5q-28 22-40 47-8 18-8 35 0 34 30 68 39 41 117 68t177 33l3 25q-108-7-197-37t-140.5-77.5-51.5-102.5q0-3 0.5-8.5t0.5-8.5q3-21 15-41 0-2 1-2 40-69 158-113.5t269-44.5q115 0 212.5 26.5t157.5 72.5q-57-57-163.5-91t-234.5-34q-144 0-258.5 42.5t-162.5 109.5q12-63 73.5-114.5t159.5-81 212-29.5q122 0 225 33.5t163 91 60 126.5v55h-1q2 2 2 11zM812 278q13 0 23 12 9 10 9 24 0 16-9 26.5t-23 10.5q-13 0-22.5-10.5t-9.5-26.5q0-14 9-24 10-12 23-12zM264 355q0-36 44-64 75-48 200-48t200 48q44 28 44 64 0 40-53.5 70.5t-135.5 39.5l15-118q0-16-27-26.5t-42.5-10.5-43 10.5-27.5 25.5l15 119q-82-9-135.5-39.5t-53.5-70.5zM358 539q13 0 25 11h91l-4-30-3-25-1-10-3-20-15-121q0-7 23-15.5t37-8.5q15 0 37.5 9t22.5 16l-15 120-3 20-1 10-3 23v2l-4 30h101q12-12 25-12 15 0 26.5 12.5t11.5 29.5-11.5 29.5-26.5 12.5q-13 0-25-12h-110l-2 16q1 1 2.5 1.5t2.5 1 3 1 3 1.5q38 22 38 71 0 33-21 56.5t-51 23.5-51-23.5-21-56.5q0-22 10.5-41.5t28.5-29.5q4-2 5-2 1-1 2.5-1.5t2.5-1.5l-2-16h-100q-11 12-25 12-15 0-26-12.5t-11-29.5q-1-16 10.5-28.5t26.5-12.5zM555 710q-5 10-22 27-4 4-10 9t-11 8l-4 3q20-1 32-13t13-23z" />
<glyph unicode="&#xe608;" glyph-name="uniE608" d="M539-12q-118 0-217 62-11 6-63.5-3t-110.5-27q-12-4-22 5t-6 22l45 178q-40 84-40 178 0 112 55.5 207.5t150.5 151 207.5 55.5 208-55.5 151-151 55.5-208-55.5-208-151-151-207.5-55.5zM303 97q29 0 42-9 89-54 194-54 100 0 185 49t134.5 134 49.5 185.5-49.5 185.5-134.5 134-185 49-185-49-134.5-134-49.5-185q0-88 39-166 4-7 1-15l-37-148q83 23 130 23zM531.5 153q-92.5 0-158 65t-65.5 158q0 9 6.5 15.5t16 6.5 16-6.5 6.5-15.5q0-74 52.5-126t126-52 125.5 52 52 126q0 9 7 15.5t16 6.5 15.5-6.5 6.5-15.5q0-93-65-158t-157.5-65z" />
<glyph unicode="&#xe609;" glyph-name="uniE609" d="M512 896q-139 0-257-68.5t-186.5-186.5-68.5-257 68.5-257 186.5-186.5 257-68.5 257 68.5 186.5 186.5 68.5 257-68.5 257-186.5 186.5-257 68.5zM774 482q-2-11-11-22-33-45-72-77-42-37-87-62-13-8-23-8-9 0-15 12-9 20 13 32 45 24 85 61 35 31 64 70 10 13 18 16 7 4 16-4 12-8 12-18zM660 571q37 33 54 59 11 15 20 20 8 5 19-1 10-7 10-16 0-8-14-26-28-36-60-64-38-32-79-58-15-9-22-9-9 0-14 9-6 9-4 20 3 8 14 15 38 19 76 51zM276 603q6 4 21 4 22 0 66 3 12 0 33.5 2t31.5 2q32 4 60 7 43 9 47 10 19 5 28 1t12-14q2-14-2-19-7-6-23-9-29-6-54-9-22-4-63-8-44-5-66-6-47-3-68-3-19 0-23 5-6 4-6 17-2 11 6 17zM564 550q-10-31-21-55-9-23-25-47-11-16-18-17-6-4-18 4-17 12 2 39 12 15 21 37 7 17 17 50 6 15 11 20t17 3 16-9q3-8-2-25zM355 440q-2-7-14-11-11-3-19 3-7 5-9 21-2 12-7 36-7 23-10 36-9 24 11 31 11 4 16 0 6-3 12-18 5-14 11-35 7-28 9-41 2-18 0-22zM454 307v-169q0-13-5-16-4-4-15-4-21 0-21 22v174q-17-30-49-71-28-32-59-58-17-13-25-13-9 0-17 8-9 11-3.5 21.5t17.5 20.5q28 22 59 57 25 28 54 76h-111q-11 0-15 6-5 4-5 15 0 10 5 16 6 6 16 6h133v26q0 7 2 14 2 3 7 5-5 7-7 21 0 6-5 34-2 5-5.5 18t-6.5 19q-3 9-1 19 1 8 15 12 10 3 17-3 5-3 11-18 2-7 5.5-20.5t4.5-19.5q3-11 6-33 2-14 0-22 0-6-9-10 7-5 7-20v-23h107q10 0 16-6 5-5 5-16 0-9-5-15-6-6-16-6h-96q33-35 46-53 16-18 38-50 7-10 7-19 0-7-11-17-10-7-18-3-9 3-15 14-22 37-58 81zM782 308q-40-58-99-108-55-46-133-74-14-6-23-4-8 2-13 15-3 12 4 19 9 9 17 12 70 27 121 68 49 39 89 97 8 14 17 17 8 4 19-3 12-8 10-17 0-9-9-22z" />
<glyph unicode="&#xe60a;" glyph-name="uniE60A" d="M520 513q56-22 124-45 3 94-51 242-22 62-47.5 113.5t-42.5 72.5q-72-1-140-22 97-173 157-361zM908 155q-58 0-124 12-94 18-202 59-122 48-213 102-2 0-3 1-58-61-108-123 65-64 162-118 207-114 425-90 2 1 4 1 13 11 25 23 60 60 98 137-31-4-64-4zM656 409q-83 26-153 54-47-42-99-95 93-52 198-93 234-90 381-61 6 1 12 0 19 54 25 111-166 20-364 84zM886 401q72-15 138-24v7q0 104-40 199-39 92-110 163-29 29-62 53 78-157 74-398zM337 376q68 70 131 126-20 62-46 126-66-29-133-82-163-133-250-358l1-2v-1q25-57 61-107 90 145 236 298zM593-36q-103 25-200 79-99 54-168 121-51-66-88-128 7-8 13-14 71-71 163-110 95-40 199-40t199 40q30 13 59 30-89 0-177 22zM643 728q61-170 53-277 71-21 138-38 1 198-57 335-28 67-56 96-5 4-7 10h-1l-2 2q-69 29-143 37 39-67 75-165zM115 438q64 86 144 150 71 58 142 89-43 99-88 179-92-39-163-110t-110-163q-40-95-40-199 0-61 14-119 43 95 101 173z" />
<glyph unicode="&#xe60b;" glyph-name="uniE60B" d="M1 399q-2 16 8 38 9 19 29 46.5t61 63.5q33 30 75 57.5t93.5 48 113 33 132 12.5 132-13 113.5-35 95.5-50 77.5-58q37-34 55.5-60t27.5-45q9-22 9-38h-134q0 12-1 26-1 13-2 28t-3 31q-2 14-5 28.5t-6 27.5q-5 13-8 27l-7 6q-7 8-18 15-5 2-12 6t-12 6l-14 7q4-17 8-36 4-16 6.5-35.5t4.5-38.5q3-19 3.5-37t1.5-31q1-16 1-30h-86v62h-48v-47h-57v47h-44v-47h-58v47h-42v-47h-54v46h-47v-46h-58v47h-48v-59l-88-1q-1 11 0 26 1 12 2 29 2 18 5 40 2 21 5.5 41.5t6.5 35.5q5 18 8 34l-9-4q-11-5-22-11-7-3-13-7-6-5-11-8-6-5-10-8-3-15-8-29-8-28-11-56-2-14-3-29t-4-27q-2-15-3-29h-128zM1 369q-2-16 8-38 9-19 29-46.5t61-63.5q33-30 75-57.5t93.5-48 113-33 132-12.5 132 13 113.5 35 95.5 50 77.5 58q37 32 55.5 59t27.5 46q9 22 9 38h-134q0-14-1-28-1-12-2-26.5t-3-30-5-29.5-6-27q-5-13-8-27l-7-6q-3-4-7.5-8t-10.5-6q-5-3-12-7t-12-6q-7-4-14-6 4 17 8 36 4 16 6.5 35t4.5 38q3 19 3.5 37t1.5 31q1 16 1 30l-86 2v-64h-48v47h-57v-47h-44v47h-58v-47h-42v47h-54v-46h-47v46h-58v-47h-48v60l-88 1q-1-12 0-27 1-12 2-30 2-18 5-39 5-45 12-76 5-19 8-35-4 1-9 4l-10 5-12 7q-7 2-13 6.5t-11 7.5q-5 5-10 9-3 15-8 29-3 13-6 28t-5 28-3 28-4 27q-2 15-3 29h-128z" />
<glyph unicode="&#xe60c;" glyph-name="uniE60C" d="M510 830q-91 0-173.5-35t-142-95-95-142.5-35.5-173.5 35.5-173.5 95-142.5 142-95 173.5-35 173.5 35 142.5 95 95 142.5 35 173.5-35 173.5-95 142.5-142.5 95-173.5 35zM765 133q-32-34-70.5-57t-71.5-32.5-61-13.5-44-4l-16 1q-92 0-204 69-27 19-51 45.5t-39 53-21.5 39-10.5 21.5v3q-27 67-23 104v2q-1 12-0.5 32.5t11.5 72 33 88.5q2 5 6.5 12.5t20 29.5 35 41 53.5 41.5 73 37.5q4 2 12.5 5t36.5 9.5 56.5 8 71-4.5 84.5-23q5-2 14.5-6t35.5-19.5 48.5-34.5 48.5-51 42-68q17-35 25.5-78.5t7.5-69.5v-26q0-6-1.5-16t-7.5-39-16-55.5-30.5-60-47.5-57.5zM288 423v0zM286 421v0zM287 422q0 1 1 1-1 0-1-1zM218 302v0zM177 304v0zM180 303v0zM186 302v0zM188 302v0zM183 303v0zM229 303v0zM220 302v0zM216 302q-1-1-2-1 1 0 2 1zM225 303q-2-1-5-1 3 0 5 1zM228 303v0zM213 301v0zM226 303v0zM193 301q-2 1-3 1 1 0 3-1zM198 301v0zM200 301v0zM195 301v0zM203 301v0zM211 301v0zM205 301v0zM858 363l10-2zM173 305q-17 19-20 57-4-37 23-104-5 22-3 47zM837 539l-13-18q1-2 2-5v-1l2-4v-1q1-3 2-4v-1q1-3 2-4v-1q0-1 1-4l1-1q0-2 1-4v-1q1-2 1-4h1q1-3 1-4v-1q0-1 1-3 0-1 1-1 0-1 1-4v-1q1-2 1-3v-1q1-2 1-3v-1q1-1 1-3l1-1v-3q1 0 1-1t1-3v-1q0-1 1-3 0-2 1-3v-1q0-1 1-3v-4h1v-3q1-2 1-3 0-2 1-3v-3l1-1v-2q1-2 1-3v-3q1-1 1-3v-2q1-2 1-3v-2q0-1 1-3 4-24 2-35v-2q0 1 2.5 0.5t4.5-1.5l3-1q-1 7 0 28t-7.5 66-25.5 80zM359 91q-25-9-61 5 10-10 57-32 78-37 147-37v17q-39 3-75 15t-52 21.5-16 10.5zM173 305q-8 9-13 24t-6 25l-1 10v-2q3-38 20-57zM237 307v0zM194 301v0zM190 302v0zM214 301v0zM187 302v0zM196 301v0zM206 301v0zM201 301v0zM199 301v0zM212 301v0zM173 305q2-1 3-1-1 0-3 1zM184 302l-1 1zM179 303q-1 1-2 1 1-1 2-1zM204 301v0zM182 303v0zM227 303v0zM515 628v0zM173 306q35-11 64 2l1-4q-3-1-9-2.5t-24-3.5-33 3l-7 4 2 4zM539 506l-133-118 6-3 137 124-7 3zM666 458q33-60 46-159l4-11q0 7-1 21t-12.5 58.5-32.5 91.5zM615 196q-9 1-25.5 4t-65.5 18.5-96 39.5l-13 3q7-5 21.5-13t65.5-26.5 111-29.5zM865 383q-3-8-8-21t-26-51-49-72l-5-11q5 5 14.5 15.5t33.5 50 43 86.5zM639 116q-6-4-17.5-12t-50.5-27.5-81-33.5l-10-6q7 1 20.5 5t55.5 23 84 47zM268 557q-4-83 18-136l5-5q-3 6-7 17.5t-9.5 50.5-3.5 83v24zM515 629q-10 4-27 10t-58.5 15-70.5 8l-7-2q7 0 21-0.5t59-9.5 92-27l27-9zM643 651q1 3 2.5 6.5t5.5 16 6 23 3 26.5-2 26l-3 5q1-5 2-13.5t-2.5-35.5-14.5-54q-6-12-7-15-1-4 4 5zM741 165q3-6 8.5-16t23-30 33.5-28l6-1q-4 2-11.5 6.5t-25.5 24.5-31 47q-8 15-9 15zM818 523q-6 4-15.5 9t-35 13-43.5 7l-6-2h14q9 0 35-7.5t50-23.5q11-7 15-8 5-3-8 7zM330 194q0-8 1.5-20.5t9.5-41.5 21-46l5-4q-3 4-8.5 12.5t-14.5 38-10 63.5q0 18-1 20zM517 625q46 24 126 27v-1q55-37 93-103 0-1-8-14.5t-24-37.5-33-45l-17 7q-16 6-51 18.5t-71 21.5l-2 23q-2 23-5.5 54.5t-7.5 49.5zM285 427q-6-9-15-23t-24-47-14-54v-1q3-8 8-18t17.5-31 31.5-40 41-31q16 3 46.5 17t53.5 27l24 13q-1 1-9 39l-16 78-8 38q-78 26-136 33zM711 301q-15-20-42-45l-4-4q-3-2-4-4l-4-4h-1q-2-2-4-3 0-1-1-1-1-2-3-3-1-1-1-2-3-1-4-3-1 0-1-1-3-2-4-3-1 0-1-1-2-1-4-3-1 0-1-1-2-2-4-3l-1-1q-2-1-4-3h-1q0-1-1-1l-4-4h-1v-1q-3-1-5-3l-1-1q-3-2-5-3 0-1-1-1-2-2-5-4l25-96q8-1 22-1t49.5 10.5 62.5 31.5q39 61 43 116-5 4-27.5 14t-42.5 18.5-20 9.5zM268 557q2 4 6 9t16 19.5 25.5 27 33 26.5 38.5 21q0 36-2 59-23-9-43.5-19.5t-36.5-22-30.5-23.5-25-23.5-19.5-22.5-15-20-10-16-6-11l-2-4q2 2 6 3t21.5 2.5 43.5-5.5z" />
<glyph unicode="&#xe60d;" glyph-name="uniE60D" d="M512 811q158 0 277-103-69-59-109-143.5t-40-180.5 40-180.5 109-143.5q-119-103-277-103t-277 103q69 59 109 143.5t40 180.5-40 180.5-109 143.5q119 103 277 103zM939 384q0-147-91-262-57 48-90 116t-33 146 33 146 90 116q91-115 91-262zM85 384q0 147 91 262 57-48 90-116t33-146-33-146-90-116q-91 115-91 262z" />
<glyph unicode="&#xe60e;" glyph-name="uniE60E" d="M960-96h-896q-26 0-45 19t-19 45v288q53 0 90.5 37.5t37.5 90.5-37.5 90.5-90.5 37.5v288q0 26 19 45t45 19h896q26 0 45-19t19-45v-288q-53 0-90.5-37.5t-37.5-90.5 37.5-90.5 90.5-37.5v-288q0-26-19-45t-45-19zM960 35q-14 5-23 17.5t-9 27.5 9 27.5 23 17.5v79q-57 20-92.5 69t-35.5 111 35.5 111 92.5 69v79q-14 5-23 17.5t-9 27.5 9 27.5 23 17.5v35q0 15-8.5 22.5t-17.5 8.5-30 1h-784q-21 0-30-1t-17.5-8.5-8.5-22.5v-35q14-5 23-17.5t9-27.5-9-27.5-23-17.5v-79q57-20 92.5-69t35.5-111-35.5-111-92.5-69v-79q14-5 23-17.5t9-27.5-9-27.5-23-17.5v-35q0-15 8.5-22.5t17.5-8.5 30-1h784q21 0 30 1t17.5 8.5 8.5 22.5v35zM400 457q21-16 108.5-33t119.5-29q48-19 70.5-47t22.5-65-25-69-71-50q-33-13-81-16v-68q0-7-4.5-11.5t-11.5-4.5h-32q-7 0-11.5 4.5t-4.5 11.5v67q-48 4-83 17-50 18-78.5 54.5t-29.5 82.5l68 5q4-35 22-57t55-35.5 83-13.5q41 0 72.5 10.5t47 28.5 15.5 39q0 22-15 38t-49 27q-22 7-96.5 22t-104.5 29q-39 17-58 42.5t-19 56.5q0 35 23 65t68 46q33 11 79 14v70q0 7 4.5 11.5t11.5 4.5h32q7 0 11.5-4.5t4.5-11.5v-72q38-4 63-13 46-16 71-48t27-72l-69-5q-6 44-38 66t-94 22q-65 0-95-20t-30-49q0-24 21-40z" />
<glyph unicode="&#xe60f;" glyph-name="uniE60F" d="M950 386q0 88-33 168t-95.5 142.5-142.5 95.5-168 33-168-33-142.5-95.5-95.5-142.5-33-168 33-168 95.5-142 142.5-95.5 168-33.5q6 1 10 5t4 10-4.5 10.5-10.5 4.5h-2q-110 1-203.5 56t-148 149-54.5 204q0 111 55 205t149 149 205 55 205-55 149-149 55-205v0q2-12 14.5-12t15.5 12v0zM693 48h-132v1l66 64q41 40 55.5 66t14.5 53q0 36-22.5 57t-62.5 21q-54 0-83-31h-1q-4-5-4-11t4.5-11 11.5-5q9 0 13 8 14 13 24.5 16t29.5 3q26 0 39.5-13t13.5-38q0-21-11.5-41.5t-46.5-55.5l-90-86q-7-5-7-13 0-14 13-16v-1h176q7 1 11 5.5t4 11.5q0 6-4.5 11t-11.5 5zM929 120h-37v173h-1q-3 17-21 17-13 0-19-10l-129-184q-6-4-6-12 0-5 4-9t10-4h126l1-59q0-7 5-12t12-5q8 0 13 5.5t5 12.5v0 0 58h37q6 0 10 4t4 10-4 10.5-10 4.5zM856 241v-121h-97l86 128q9 16 11 23h1q-1-17-1-30zM527 420v317q0 8-4.5 13.5t-11 5.5-10.5-5.5-4-13.5v-318q-10-4-16-14h-197q-8 0-13-4.5t-5-10.5 5-10.5 13-4.5h194q9-24 34-24 15 0 25.5 10.5t10.5 25.5q0 23-21 33z" />
<glyph unicode="&#xe614;" glyph-name="uniE614" d="M512 832q-91 0-174-35.5t-143-95.5-95.5-143-35.5-174 35.5-174 95.5-143 143-95.5 174-35.5 174 35.5 143 95.5 95.5 143 35.5 174-35.5 174-95.5 143-143 95.5-174 35.5zM915 392h-231q2 76 36.5 148.5t77.5 126.5q53-53 84-126t33-149zM526 392v395q133-4 238-90-47-57-85-139t-40-166h-113zM480 392h-101q-2 83-39.5 163.5t-85.5 139.5q47 38 107 62t119 29v-394zM480 347v-365q-59 5-119 28.5t-107 62.5q110 135 123 274h103zM526 347h115q13-143 123-277-104-85-238-89v366zM222 664q44-55 77-125.5t35-146.5h-225q1 75 31.5 146.5t81.5 125.5zM110 347h222q-12-123-110-244-100 103-112 244zM798 99q-99 123-112 248h228q-13-144-116-248z" />
<glyph unicode="&#xe615;" glyph-name="uniE615" d="M510.257 717.734c-139.235 0-252.1-110.566-252.1-246.949 0-136.378 112.864-246.945 252.1-246.945 139.231 0 252.096 110.566 252.096 246.945-0.055 136.382-112.864 246.949-252.096 246.949v0 0zM219.136 375.951v228.022c-3.191 0-6.381-0.111-9.462-0.389 51.674 112.194 166.721 190.346 300.584 190.346 133.858 0 248.96-78.151 300.578-190.346-3.135 0.222-6.27 0.389-9.461 0.389v-228.023c64.27 0 116.448 51.058 116.448 113.983 0 42.772-24.072 80.001-59.622 99.542-50.051 141.136-186.711 242.469-347.943 242.469-161.236 0-297.841-101.332-347.948-242.468-35.55-19.485-59.623-56.77-59.623-99.486 0-62.981 52.123-114.039 116.449-114.039v0 0zM761.794 245.228c-65.893-60.242-154.292-97.133-251.536-97.133-97.077 0-185.366 36.724-251.204 96.795-117.793-59.344-195.164-165.097-195.164-308.698h895.753c0 143.878-78.771 249.746-197.85 309.036v0 0zM761.794 245.228" />
<glyph unicode="&#xe616;" glyph-name="uniE616" d="M554.5 778.5l-42.6-90.8-39.8 79.6-407.9-211.7 262.4-568.4 48.1 22.3c43.3 20.1 84.1 39.1 126 57.6 6.6 2.9 17.7 2.7 24.8-0.4 22.6-10.2 45.2-21.6 67-32.7 9.6-4.9 19.2-9.7 28.8-14.5 13.5-6.7 27.1-13.3 41.1-20.1l25.3-12.3 276.5 582.3-409.7 209.1zM903.1 546l-236.3-488.9-332 164.3 248.9 488.5 319.4-163.9zM442.7 695.7l7.2-12.7c9.4-16.5 19.1-33.6 27.8-50.7 1-2 0.4-8-1.9-12.6-57.3-114.2-114.9-228.3-174-345.4l-25.6-50.7-143.5 313.1 310 159zM354.2 53.2l-61.3 134.1c4.3-2 7.9-3.6 11.4-5.4 40.2-20.3 80.4-40.7 122.3-62l36.1-18.3-108.5-48.4zM735.2 462.2c-13.8 3-27.8 3.7-42.6 4.5-5.5 0.3-11.1 0.6-16.9 1-17.2 51.1-57 74.1-107.3 61.7-51.1-12.6-77.2-56.3-69.8-116.9 5.8-47.1 22.4-94.1 50.7-143.5 3.3-5.8 12.2-14.5 20.7-14.6 2.9 0 5.8-0.1 8.7-0.1 64.9 0 113 10.8 154.9 34.7 39.7 22.6 59.5 59 57.4 105.3-1.7 35.7-22 60.4-55.8 67.9zM587.2 293.2c-3.5-0.3-7.9 2.3-8.7 3.7-21.4 41.4-44 90.1-40.9 144.3 1.3 23.4 10.2 38 28.1 46.1 9.9 4.5 18.9 6.7 27.2 6.7 9.7 0 18.6-3.1 26.9-9.2 16.9-12.4 21.6-29.5 14.9-53.7l-1.3-4.5 26.9-14.1 2.7 1.5c2.8 1.5 5.5 3.1 8.2 4.7 5 3 9.8 5.9 14.6 7.3 15.3 4.7 37.4 6.7 56.2-10 19.6-17.5 9.6-42.7 6.1-50-8.8-18.2-22.2-34.3-35.7-43-35.8-23.2-77.9-27.2-125.2-29.8zM588.8 693.1l-21.7-43.9 40.2-19.7 22.3 43.7zM196.2 546.3l-38.8-19 21.3-41.9 38.3 19.3z" />
<glyph unicode="&#xe617;" glyph-name="uniE617" d="M382.625 563.495h279.629c18.858 0 37.015 7.982 49.119 22.455 28.857 34.296 56.224 76.398 62.364 114.114 12.367 75.521-19.999 113.851-113.851 113.851s-62.101-61.574-98.589-66.662c-27.191-3.772-26.226 32.103-68.942 66.574-30.7 24.647-65.083-44.997-105.606-45.435-47.277-0.614-113.764 12.455-113.764-68.328 0-32.629 28.594-76.749 59.82-113.325 12.543-14.648 30.612-23.244 49.821-23.244zM731.459 491.571c-14.911 16.929-36.576 26.402-59.119 26.402h-298.399c-21.577 0-42.365-8.684-57.277-24.297-93.765-98.239-180.25-238.492-180.25-340.765 0-90.169 90.607-204.020 202.354-204.020h346.466c111.746 0 202.354 112.886 202.354 204.020 0 104.115-69.556 240.421-156.129 338.66zM640.325 367.457l-59.996-108.852c-5.263-9.561 1.666-21.314 12.543-21.314h17.016c7.894 0 14.385-6.403 14.385-14.385v0c0-7.894-6.403-14.385-14.385-14.385h-42.804c-8.333 0-14.999-6.666-15.087-14.999v-7.105c0-7.894 6.403-14.385 14.385-14.385h43.506c7.894 0 14.385-6.403 14.385-14.385s-6.403-14.385-14.385-14.385h-43.506c-7.894 0-14.385-6.403-14.385-14.385v-36.576c0-7.894-6.403-14.385-14.385-14.385h-26.051c-7.894 0-14.385 6.403-14.385 14.385v36.576c0 7.894-6.403 14.385-14.385 14.385h-43.067c-7.894 0-14.385 6.403-14.385 14.385s6.403 14.385 14.385 14.385h42.979c7.982 0 14.385 6.403 14.473 14.385l0.088 7.017c0.088 8.333-6.666 15.174-15.087 15.174h-42.453c-7.894 0-14.385 6.403-14.385 14.385v0c0 7.894 6.403 14.385 14.385 14.385h16.578c10.964 0 17.806 11.753 12.543 21.314l-59.996 108.852c-5.263 9.561 1.666 21.314 12.543 21.314h28.594c5.438 0 10.438-3.070 12.806-7.894l48.856-97.449c5.263-10.525 20.349-10.525 25.7 0l48.856 97.449c2.456 4.824 7.368 7.894 12.806 7.894h28.594c11.052-0.175 17.981-11.841 12.718-21.402z" />
</font>
</defs>
</svg>
