<?xml version="1.0" standalone="no"?><!DOCTYPE svg PUBLIC "-//W3C//DTD SVG 1.1//EN" "http://www.w3.org/Graphics/SVG/1.1/DTD/svg11.dtd"><svg t="1500358457761" class="icon" style="" viewBox="0 0 1319 1024" version="1.1" xmlns="http://www.w3.org/2000/svg" p-id="2363" xmlns:xlink="http://www.w3.org/1999/xlink" width="257.6171875" height="200"><defs><style type="text/css"></style></defs><path d="M1183.711528 781.953944l-0.114236 0-95.19042 0.336848c20.000006-32.106043 36.344474-66.28883 48.799077-102.107528 18.759525-53.966038 28.273295-110.550705 28.273295-168.183997 0-69.10371-13.541304-136.158504-40.246057-199.299998-25.789404-60.973948-62.706521-115.730847-109.715907-162.738769C968.502035 102.948184 913.752458 66.036926 852.77851 40.246057 789.637016 13.541304 722.582222 0 653.478511 0c-58.535459 0-115.956389 9.805217-170.666423 29.141778-15.606331 5.515526-23.787353 22.637675-18.271827 38.251329 5.51992 15.606331 22.642069 23.781495 38.249864 18.271827 48.279159-17.065031 98.977767-25.714712 150.688385-25.714712 120.746959 0 234.267788 47.019639 319.651527 132.398983 85.379345 85.385203 132.398983 198.904568 132.398983 319.651527 0 50.916828-8.391918 100.883157-24.942889 148.498871-10.806974 31.076459-24.948748 60.755729-42.202707 88.680459l-29.874057-86.30641c-5.411542-15.641481-22.483896-23.93088-38.129771-18.519337-15.641481 5.411542-23.93088 22.483896-18.519337 38.129771l48.204466 139.253115c1.613943 4.663153 4.261864 8.667255 7.602521 11.859992 5.429117 5.46866 12.952552 8.856183 21.265384 8.856183l0.108377 0 154.774502-0.549209c16.550971-0.057118 29.926781-13.52373 29.863805-30.080559C1213.620734 795.30632 1200.217098 781.953944 1183.711528 781.953944L1183.711528 781.953944zM849.352908 919.535998c-61.340088 29.543066-127.245203 44.519638-195.874397 44.519638-120.751353 0-234.272182-47.019639-319.650062-132.404842-85.385203-85.379345-132.406306-198.900174-132.406306-319.651527 0-98.194228 31.775053-192.973107 90.127442-270.858308l39.12567 109.550412c4.3761 12.259816 15.921211 19.903345 28.227893 19.903345 3.346515 0 6.750148-0.566784 10.079089-1.756005 15.590221-5.566785 23.714125-22.718226 18.14734-38.308447l-53.558891-149.961964c-4.828648-13.529588-18.381669-21.430879-32.078217-19.645583-2.202695-0.515524-4.496193-0.795255-6.858526-0.795255l-0.103984 0L133.857683 160.678136C117.302318 160.729396 103.926509 174.196008 103.983627 190.752837c0.057118 16.515822 13.466612 29.869663 29.972182 29.869663l0.102519 0 98.646777-0.338313c-59.166684 85.247535-91.231719 186.761916-91.231719 291.716545 0 69.109569 13.541304 136.164362 40.246057 199.305857 25.790869 60.973948 62.702127 115.723525 109.715907 162.737305 47.009387 47.009387 101.764821 83.920645 162.737305 109.710049 63.142959 26.704753 130.197753 40.246057 199.299998 40.246057 77.713848 0 152.366769-16.974229 221.886414-50.452563 14.91506-7.179264 21.178975-25.092274 13.999711-40.00587S864.266504 912.356734 849.352908 919.535998L849.352908 919.535998zM849.352908 919.535998" p-id="2364" fill="#8a8a8a"></path></svg>