<svg xmlns="http://www.w3.org/2000/svg" viewBox="0 0 133.53 102.24"><defs><style>.cls-1{fill:#fff;}</style></defs><g id="圖層_2" data-name="圖層 2"><g id="Layer_1" data-name="Layer 1"><path class="cls-1" d="M31.34,39.12a4,4,0,1,0,0,7.9,4,4,0,0,0,0-7.9Z"/><path class="cls-1" d="M129,28.06a3.91,3.91,0,0,0-5.53,5.53A7.83,7.83,0,0,1,117.89,47h-.18A43.1,43.1,0,0,0,74.85,7.82H55.29a46.88,46.88,0,0,0-8.1.79A27.11,27.11,0,0,0,27.38,0a3.91,3.91,0,0,0-3.91,3.91V21.52a43.06,43.06,0,0,0-10,17.6H11.74A11.75,11.75,0,0,0,0,50.86v8.08A11.73,11.73,0,0,0,11.74,70.65h4.69A44.57,44.57,0,0,0,27.37,84.55c0,5.19,0,13.68,0,13.77a3.92,3.92,0,0,0,3.92,3.92H47a3.91,3.91,0,0,0,3.91-3.92V94.21c1.48.13,3,.2,4.43.2H74.85v3.91a3.91,3.91,0,0,0,3.91,3.92H94.41a3.91,3.91,0,0,0,3.91-3.92s0-5.14,0-10.88A43.2,43.2,0,0,0,112,72.9a44.25,44.25,0,0,0,5.73-18.13h.19a15.66,15.66,0,0,0,15.64-15.65A15.5,15.5,0,0,0,129,28.06ZM92.47,81.87a3.91,3.91,0,0,0-2,3.38c0,3.37,0,6.7,0,9.16H82.68V86.78H43v7.63H35.21c0-3.63,0-8.89,0-11.77a3.9,3.9,0,0,0-1.56-3.11A36.38,36.38,0,0,1,22.51,65.24a3.93,3.93,0,0,0-3.42-2.34c-1,0-6.31,0-7.35,0a3.92,3.92,0,0,1-3.92-3.91V50.86A3.92,3.92,0,0,1,11.74,47h4.71a3.92,3.92,0,0,0,3.94-3c.16-.64.48-1.94.55-2.41A35.12,35.12,0,0,1,30.13,25.9a3.91,3.91,0,0,0,1.17-2.79V8.23a19.55,19.55,0,0,1,11.37,7.11,3.91,3.91,0,0,0,4,1.38,39.4,39.4,0,0,1,8.65-1.07H74.85a35.24,35.24,0,0,1,35.21,35.21A36.27,36.27,0,0,1,92.47,81.87Z"/><path class="cls-1" d="M65.52,70.07q-8.79-.75-13.46-7.38l5.06-3.85q3.81,5.89,9.34,5.89,7.31,0,7.31-6.07a4.24,4.24,0,0,0-.7-2.42,5.47,5.47,0,0,0-2.72-1.83q-2-.78-6.7-2.52-8.94-3.35-8.95-9.11a9.58,9.58,0,0,1,2.88-7.08,13.75,13.75,0,0,1,7.94-3.59V27.45h4.59v4.72A15.31,15.31,0,0,1,80,36.45l-3.43,4a10.6,10.6,0,0,0-7.7-3.23,7.69,7.69,0,0,0-4.67,1.37,4.18,4.18,0,0,0-1.87,3.53q0,2.73,5,4.53,9.73,3.54,12,5.89a7.9,7.9,0,0,1,2.22,5.59,10.9,10.9,0,0,1-3,7.66,14.07,14.07,0,0,1-8.41,4.06v5H65.52Z"/></g></g></svg>