<?xml version="1.0" encoding="utf-8"?>
<!-- Generator: Adobe Illustrator 23.1.1, SVG Export Plug-In . SVG Version: 6.00 Build 0)  -->
<!DOCTYPE svg PUBLIC "-//W3C//DTD SVG 1.1//EN" "http://www.w3.org/Graphics/SVG/1.1/DTD/svg11.dtd" [
	<!ENTITY ns_extend "http://ns.adobe.com/Extensibility/1.0/">
	<!ENTITY ns_ai "http://ns.adobe.com/AdobeIllustrator/10.0/">
	<!ENTITY ns_graphs "http://ns.adobe.com/Graphs/1.0/">
	<!ENTITY ns_vars "http://ns.adobe.com/Variables/1.0/">
	<!ENTITY ns_imrep "http://ns.adobe.com/ImageReplacement/1.0/">
	<!ENTITY ns_sfw "http://ns.adobe.com/SaveForWeb/1.0/">
	<!ENTITY ns_custom "http://ns.adobe.com/GenericCustomNamespace/1.0/">
	<!ENTITY ns_adobe_xpath "http://ns.adobe.com/XPath/1.0/">
]>
<svg version="1.1" id="圖層_1" xmlns:x="&ns_extend;" xmlns:i="&ns_ai;" xmlns:graph="&ns_graphs;"
	 xmlns="http://www.w3.org/2000/svg" xmlns:xlink="http://www.w3.org/1999/xlink" x="0px" y="0px" width="200px" height="55px"
	 viewBox="0 0 200 55" style="enable-background:new 0 0 200 55;" xml:space="preserve">
<style type="text/css">
	.st0{fill:url(#SVGID_1_);}
	.st1{fill:url(#SVGID_2_);stroke:url(#SVGID_3_);stroke-width:0.9821;stroke-miterlimit:13.0952;}
	.st2{fill:url(#SVGID_4_);stroke:url(#SVGID_5_);stroke-width:0.9821;stroke-miterlimit:13.0952;}
	.st3{fill:url(#SVGID_6_);stroke:url(#SVGID_7_);stroke-width:0.9821;stroke-linecap:square;stroke-miterlimit:13.0952;}
	.st4{fill:url(#SVGID_8_);}
	.st5{fill:url(#SVGID_9_);}
	.st6{fill:url(#SVGID_10_);}
	.st7{fill:url(#SVGID_11_);}
	.st8{fill:url(#SVGID_12_);}
	.st9{fill:url(#SVGID_13_);}
	.st10{fill:url(#SVGID_14_);}
	.st11{fill:url(#SVGID_15_);}
	.st12{fill:url(#SVGID_16_);}
	.st13{fill:url(#SVGID_17_);}
	.st14{fill:url(#SVGID_18_);}
	.st15{fill:url(#SVGID_19_);}
	.st16{fill:url(#SVGID_20_);}
	.st17{fill:url(#SVGID_21_);}
	.st18{fill:url(#SVGID_22_);}
</style>
<metadata>
	<sfw  xmlns="&ns_sfw;">
		<slices></slices>
		<sliceSourceBounds  bottomLeftOrigin="true" height="50.6" width="196.4" x="0.4" y="2.8"></sliceSourceBounds>
	</sfw>
</metadata>
<title>logo</title>
<g>
	
		<linearGradient id="SVGID_1_" gradientUnits="userSpaceOnUse" x1="379.5839" y1="994.0275" x2="473.9052" y2="994.0275" gradientTransform="matrix(1.3095 0 0 1.3095 -424.3286 -1268.4821)">
		<stop  offset="1.590000e-02" style="stop-color:#C6992B;stop-opacity:0"/>
		<stop  offset="0.1" style="stop-color:#BA903A"/>
		<stop  offset="0.1" style="stop-color:#BA903A"/>
		<stop  offset="0.15" style="stop-color:#E8C263"/>
		<stop  offset="0.2275" style="stop-color:#F0D889"/>
		<stop  offset="0.2629" style="stop-color:#FFFFCC"/>
		<stop  offset="0.2646" style="stop-color:#FFFECB"/>
		<stop  offset="0.3985" style="stop-color:#EECF7C"/>
		<stop  offset="0.46" style="stop-color:#E8BC5D"/>
		<stop  offset="0.6202" style="stop-color:#FFFFD7"/>
		<stop  offset="0.7223" style="stop-color:#F5D77F"/>
		<stop  offset="0.7937" style="stop-color:#D2A549"/>
		<stop  offset="0.8624" style="stop-color:#C08C2E"/>
		<stop  offset="1" style="stop-color:#B07515;stop-opacity:0"/>
	</linearGradient>
	<rect x="73.5" y="32.7" class="st0" width="123.3" height="1"/>
</g>
<g>
	
		<linearGradient id="SVGID_2_" gradientUnits="userSpaceOnUse" x1="322.1795" y1="878.3113" x2="360.5892" y2="922.7405" gradientTransform="matrix(1.2993 0.164 -0.164 1.2993 -259.5953 -1194.2438)">
		<stop  offset="0" style="stop-color:#B07515"/>
		<stop  offset="9.430000e-02" style="stop-color:#E1BA60"/>
		<stop  offset="0.1398" style="stop-color:#F5D77F"/>
		<stop  offset="0.2581" style="stop-color:#FFFFD7"/>
		<stop  offset="0.3602" style="stop-color:#F5D77F"/>
		<stop  offset="0.4892" style="stop-color:#B07515"/>
		<stop  offset="0.5727" style="stop-color:#E1BA60"/>
		<stop  offset="0.6129" style="stop-color:#F5D77F"/>
		<stop  offset="0.7366" style="stop-color:#FFFFD7"/>
		<stop  offset="0.8387" style="stop-color:#F5D77F"/>
		<stop  offset="1" style="stop-color:#B07515"/>
	</linearGradient>
	
		<linearGradient id="SVGID_3_" gradientUnits="userSpaceOnUse" x1="342.5948" y1="905.3978" x2="348.597" y2="905.3978" gradientTransform="matrix(1.2993 0.164 -0.164 1.2993 -259.5953 -1194.2438)">
		<stop  offset="0" style="stop-color:#B07515"/>
		<stop  offset="9.430000e-02" style="stop-color:#E1BA60"/>
		<stop  offset="0.1398" style="stop-color:#F5D77F"/>
		<stop  offset="0.2581" style="stop-color:#FFFFD7"/>
		<stop  offset="0.3602" style="stop-color:#F5D77F"/>
		<stop  offset="0.4892" style="stop-color:#B07515"/>
		<stop  offset="0.5727" style="stop-color:#E1BA60"/>
		<stop  offset="0.6129" style="stop-color:#F5D77F"/>
		<stop  offset="0.7366" style="stop-color:#FFFFD7"/>
		<stop  offset="0.8387" style="stop-color:#F5D77F"/>
		<stop  offset="1" style="stop-color:#B07515"/>
	</linearGradient>
	<circle class="st1" cx="40.9" cy="38.8" r="3.4"/>
	
		<linearGradient id="SVGID_4_" gradientUnits="userSpaceOnUse" x1="327.0199" y1="874.1295" x2="365.4298" y2="918.5588" gradientTransform="matrix(1.2993 0.164 -0.164 1.2993 -259.5953 -1194.2438)">
		<stop  offset="0" style="stop-color:#B07515"/>
		<stop  offset="9.430000e-02" style="stop-color:#E1BA60"/>
		<stop  offset="0.1398" style="stop-color:#F5D77F"/>
		<stop  offset="0.2581" style="stop-color:#FFFFD7"/>
		<stop  offset="0.3602" style="stop-color:#F5D77F"/>
		<stop  offset="0.4892" style="stop-color:#B07515"/>
		<stop  offset="0.5727" style="stop-color:#E1BA60"/>
		<stop  offset="0.6129" style="stop-color:#F5D77F"/>
		<stop  offset="0.7366" style="stop-color:#FFFFD7"/>
		<stop  offset="0.8387" style="stop-color:#F5D77F"/>
		<stop  offset="1" style="stop-color:#B07515"/>
	</linearGradient>
	
		<linearGradient id="SVGID_5_" gradientUnits="userSpaceOnUse" x1="336.5688" y1="889.6618" x2="344.3249" y2="889.6618" gradientTransform="matrix(1.2993 0.164 -0.164 1.2993 -259.5953 -1194.2438)">
		<stop  offset="0" style="stop-color:#B07515"/>
		<stop  offset="9.430000e-02" style="stop-color:#E1BA60"/>
		<stop  offset="0.1398" style="stop-color:#F5D77F"/>
		<stop  offset="0.2581" style="stop-color:#FFFFD7"/>
		<stop  offset="0.3602" style="stop-color:#F5D77F"/>
		<stop  offset="0.4892" style="stop-color:#B07515"/>
		<stop  offset="0.5727" style="stop-color:#E1BA60"/>
		<stop  offset="0.6129" style="stop-color:#F5D77F"/>
		<stop  offset="0.7366" style="stop-color:#FFFFD7"/>
		<stop  offset="0.8387" style="stop-color:#F5D77F"/>
		<stop  offset="1" style="stop-color:#B07515"/>
	</linearGradient>
	<circle class="st2" cx="36.8" cy="17.5" r="4.6"/>
	
		<linearGradient id="SVGID_6_" gradientUnits="userSpaceOnUse" x1="17.2369" y1="-1.9738" x2="67.5316" y2="56.203" gradientTransform="matrix(0.9979 6.491292e-02 -6.491292e-02 0.9979 1.8325 -2.3047)">
		<stop  offset="0" style="stop-color:#B07515"/>
		<stop  offset="9.430000e-02" style="stop-color:#E1BA60"/>
		<stop  offset="0.1398" style="stop-color:#F5D77F"/>
		<stop  offset="0.2581" style="stop-color:#FFFFD7"/>
		<stop  offset="0.3602" style="stop-color:#F5D77F"/>
		<stop  offset="0.4892" style="stop-color:#B07515"/>
		<stop  offset="0.5727" style="stop-color:#E1BA60"/>
		<stop  offset="0.6129" style="stop-color:#F5D77F"/>
		<stop  offset="0.7366" style="stop-color:#FFFFD7"/>
		<stop  offset="0.8387" style="stop-color:#F5D77F"/>
		<stop  offset="1" style="stop-color:#B07515"/>
	</linearGradient>
	
		<linearGradient id="SVGID_7_" gradientUnits="userSpaceOnUse" x1="-0.3863" y1="26.6655" x2="81.0017" y2="26.6655" gradientTransform="matrix(0.9979 6.491292e-02 -6.491292e-02 0.9979 1.8325 -2.3047)">
		<stop  offset="0" style="stop-color:#B07515"/>
		<stop  offset="9.430000e-02" style="stop-color:#E1BA60"/>
		<stop  offset="0.1398" style="stop-color:#F5D77F"/>
		<stop  offset="0.2581" style="stop-color:#FFFFD7"/>
		<stop  offset="0.3602" style="stop-color:#F5D77F"/>
		<stop  offset="0.4892" style="stop-color:#B07515"/>
		<stop  offset="0.5727" style="stop-color:#E1BA60"/>
		<stop  offset="0.6129" style="stop-color:#F5D77F"/>
		<stop  offset="0.7366" style="stop-color:#FFFFD7"/>
		<stop  offset="0.8387" style="stop-color:#F5D77F"/>
		<stop  offset="1" style="stop-color:#B07515"/>
	</linearGradient>
	<path class="st3" d="M76.3,27.8c0,0-4.5,2.3-12.3,3.3c0.9-4.8,0.3-9.8-1.8-14.6c-5.7-12.5-20.4-18-33-12.3c-5,2.3-8.9,6-11.4,10.5
		c-8.5-2.5-15.1-0.9-15.1-0.9s7.4,1.5,13.5,4.3c-2.3,6-2.3,12.8,0.6,19c5.7,12.5,20.4,18,33,12.3c6.6-3,11.3-8.5,13.4-14.9
		C67.3,33.4,71.6,31.3,76.3,27.8z M32,9.8c9.5-4.3,20.8-0.1,25.1,9.4c1.8,4,2.1,8.3,1.2,12.3c-4.6,0.1-10-0.3-15.9-1.6
		c0,0-2.9-0.5-4-1c0.2,0,0.3,0.1,0.3,0.1c-2.2-1.3-4.2-3.2-6.4-5.6c-2.3-2.3-5-4.4-5-4.4c-1.2-0.8-2.4-1.4-3.5-2
		C25.6,14,28.4,11.4,32,9.8z M47.6,44.4c-9.5,4.3-20.8,0.1-25.1-9.4c-2.1-4.5-2.2-9.4-0.7-13.8c0.6,0.4,1.3,0.8,1.8,1.3
		c6.2,4.6,13,6.2,14.6,6.6l3.7,2.3c5,2.6,9.9,4.1,14.9,4.1C55,39.2,51.8,42.5,47.6,44.4z"/>
</g>
<g>
	
		<linearGradient id="SVGID_8_" gradientUnits="userSpaceOnUse" x1="54.6039" y1="121.9946" x2="54.6039" y2="145.5141" gradientTransform="matrix(1.3095 0 0 -1.3095 61.4524 194.8318)">
		<stop  offset="0" style="stop-color:#7E470A"/>
		<stop  offset="2.940000e-02" style="stop-color:#AB7A1E"/>
		<stop  offset="5.000000e-02" style="stop-color:#C6992B"/>
		<stop  offset="0.1" style="stop-color:#BA903A"/>
		<stop  offset="0.1" style="stop-color:#BA903A"/>
		<stop  offset="0.15" style="stop-color:#E8C263"/>
		<stop  offset="0.21" style="stop-color:#FFFFCC"/>
		<stop  offset="0.2121" style="stop-color:#FFFECB"/>
		<stop  offset="0.382" style="stop-color:#EECF7C"/>
		<stop  offset="0.46" style="stop-color:#E8BC5D"/>
		<stop  offset="0.7366" style="stop-color:#FFFFD7"/>
		<stop  offset="0.8387" style="stop-color:#F5D77F"/>
		<stop  offset="1" style="stop-color:#B07515"/>
	</linearGradient>
	<path class="st4" d="M127.9,21.6c-1.1,2.1-2.5,3.7-4.5,4.9l-0.4-0.5c1.3-1,2.8-2.7,3.9-5.3c-0.6-0.6-1.2-1.1-1.7-1.5
		c-0.2,0.5-0.3,1-0.4,1.5l-1.3-0.4c0.7-2.2,1.4-5.4,1.9-8.4h-2.1v-0.8h2.2c0.3-1.8,0.5-3.4,0.6-4.6l1.4,0.1
		c-0.1,1.1-0.3,2.7-0.6,4.5h3.3c-0.1,3.5-0.6,6.7-1.8,9.3c1,0.8,1.9,1.6,2.5,2.3l-1.2,1.2C129.2,23.1,128.6,22.3,127.9,21.6z
		 M127.4,19.6c0.7-2.1,1.2-4.6,1.3-7.7h-1.9c-0.4,2.2-0.8,4.6-1.3,6.6C126.1,18.8,126.8,19.2,127.4,19.6z M142.9,25.1l-0.8,1.6
		c-2.4-1-5.1-2.8-6-6.3H136c-1,3.6-3.4,5.3-7.5,6.3l-0.2-0.6c3.4-1,5.4-2.5,6.3-5.7h-4.8v-0.8h5c0.2-1,0.3-2.2,0.3-3.6h-2.5v2h-1.4
		V8.6h1.4v6.5h8.7v4.4h1.2v0.8h-5.7C137.7,22.4,139.5,24.2,142.9,25.1z M140.1,13h-5.7V7.4h5.7V13z M138.8,8.2h-3.1v4.1h3.1V8.2z
		 M136.2,19.5h3.7v-3.6h-3.4C136.5,17.3,136.4,18.5,136.2,19.5z"/>
	
		<linearGradient id="SVGID_9_" gradientUnits="userSpaceOnUse" x1="72.6869" y1="121.9946" x2="72.6869" y2="145.514" gradientTransform="matrix(1.3095 0 0 -1.3095 61.4524 194.8318)">
		<stop  offset="0" style="stop-color:#7E470A"/>
		<stop  offset="2.940000e-02" style="stop-color:#AB7A1E"/>
		<stop  offset="5.000000e-02" style="stop-color:#C6992B"/>
		<stop  offset="0.1" style="stop-color:#BA903A"/>
		<stop  offset="0.1" style="stop-color:#BA903A"/>
		<stop  offset="0.15" style="stop-color:#E8C263"/>
		<stop  offset="0.21" style="stop-color:#FFFFCC"/>
		<stop  offset="0.2121" style="stop-color:#FFFECB"/>
		<stop  offset="0.382" style="stop-color:#EECF7C"/>
		<stop  offset="0.46" style="stop-color:#E8BC5D"/>
		<stop  offset="0.7366" style="stop-color:#FFFFD7"/>
		<stop  offset="0.8387" style="stop-color:#F5D77F"/>
		<stop  offset="1" style="stop-color:#B07515"/>
	</linearGradient>
	<path class="st5" d="M166.2,24.1l-0.8,1.6c-2.7-0.9-6-2.7-8-5.3v6.2H156v-6c-1.8,2.3-5.9,4.5-8.7,5.3l-0.3-0.6
		c2.9-1.1,6.4-3.3,8.1-5.6h-7.5v-0.8h8.3v-1.8h1.4v1.8h8.4v0.8h-8C159.9,21.8,163,23.3,166.2,24.1z M148.8,15.9
		c0.8-1.1,1.6-2.3,2.3-3.7c-1.1,0.5-2,0.8-2.9,1l-0.4-1.4c0.3,0,0.6,0,0.9,0c0.7-1.8,1.2-3.6,1.6-5.4l1.3,0.4
		c-0.6,1.8-1.4,3.6-2.2,4.9c0.7-0.1,1.4-0.2,2.1-0.3c0.4-0.8,0.7-1.5,1-2.3l1.3,0.6c-1.1,2.2-2.7,4.4-4.1,6.1c1-0.1,1.9-0.3,2.7-0.5
		c-0.1-0.6-0.3-1.2-0.4-1.7l0.6-0.2c0.6,1.1,1.1,2.4,1.5,3.7l-1.2,0.3c-0.1-0.5-0.2-1-0.2-1.5c-1.3,0.6-3.3,1.2-4.4,1.5l-0.4-1.5
		C148,16,148.4,15.9,148.8,15.9z M159.5,16.5h-5.6V8.8h2.1c0.1-0.9,0.2-1.7,0.3-2.6l1.4,0.3c-0.3,0.8-0.6,1.6-1,2.3h2.7L159.5,16.5
		L159.5,16.5z M158.2,9.6h-3v2.5h3V9.6z M158.2,12.9h-3v2.8h3V12.9z M159.9,12.9l-0.3-1.4h0.7c0.7-1.7,1.1-3.3,1.5-5.1l1.3,0.4
		c-0.6,1.8-1.3,3.2-2.2,4.6c0.7,0,1.4-0.1,2.1-0.2c0.3-0.7,0.7-1.4,0.9-2.1l1.2,0.7c-1.2,2.2-2.5,4.1-3.8,5.7
		c0.9-0.1,1.8-0.2,2.6-0.4c-0.2-0.6-0.3-1.1-0.5-1.6l0.6-0.2c0.6,1,1.3,2.5,1.6,3.6l-1.3,0.3c-0.1-0.5-0.2-1-0.3-1.5
		c-1.3,0.6-2.9,1-4.1,1.2l-0.3-1.4c0.3,0,0.6,0,0.9,0c0.7-1.1,1.4-2.2,2.1-3.4C161.7,12.5,160.8,12.7,159.9,12.9z"/>
	
		<linearGradient id="SVGID_10_" gradientUnits="userSpaceOnUse" x1="91.0425" y1="121.9936" x2="91.0425" y2="145.514" gradientTransform="matrix(1.3095 0 0 -1.3095 61.4524 194.8318)">
		<stop  offset="0" style="stop-color:#7E470A"/>
		<stop  offset="2.940000e-02" style="stop-color:#AB7A1E"/>
		<stop  offset="5.000000e-02" style="stop-color:#C6992B"/>
		<stop  offset="0.1" style="stop-color:#BA903A"/>
		<stop  offset="0.1" style="stop-color:#BA903A"/>
		<stop  offset="0.15" style="stop-color:#E8C263"/>
		<stop  offset="0.21" style="stop-color:#FFFFCC"/>
		<stop  offset="0.2121" style="stop-color:#FFFECB"/>
		<stop  offset="0.382" style="stop-color:#EECF7C"/>
		<stop  offset="0.46" style="stop-color:#E8BC5D"/>
		<stop  offset="0.7366" style="stop-color:#FFFFD7"/>
		<stop  offset="0.8387" style="stop-color:#F5D77F"/>
		<stop  offset="1" style="stop-color:#B07515"/>
	</linearGradient>
	<path class="st6" d="M177.7,18.9c-1.9,1.3-4.6,2.7-6.3,3.4l-0.7-1.5c0.8-0.2,1.8-0.5,2.8-0.9v-6.6H171v-0.8h2.6V6.9h1.4v5.6h2.5
		v0.8h-2.5v6c0.8-0.3,1.7-0.7,2.4-1L177.7,18.9z M189,26.3c-1.5-0.4-2.5-1.8-3.2-3.9c-1.5,1.8-3.3,3.2-5.4,4.1l-0.3-0.6
		c2.2-1.2,4-2.8,5.3-4.9c-0.7-2.8-1-6.3-1-9.9h-5v3.5h4c0,2.1,0,4.6-0.2,6.2c-0.2,1.9-1.8,2.2-3.8,1l0.2-0.6
		c1.8,0.3,2.2,0.3,2.3-0.5c0.1-1.1,0.2-2.9,0.2-5.1h-2.7v0.9c0,4.7-1,7.7-3.8,10.2l-0.5-0.5c2.3-2.5,2.9-5.6,2.9-9.8v-6.1h6.4
		c0-1.3,0-2.5,0-3.8h1.4c0,1.2,0,2.5,0,3.8h4.5V11h-4.5c0.1,2.8,0.3,5.7,0.7,8c0.8-1.8,1.5-3.8,1.9-6.1l1.4,0.4
		c-0.6,2.9-1.5,5.5-2.9,7.7c0.5,1.9,1.2,3.3,2.2,3.7c0.6,0.3,0.8,0.1,0.6-3.8h0.6C191.2,25.8,190.4,26.7,189,26.3z M188.5,10.2
		C188,9.4,187,8,186.3,7.1l0.4-0.5c0.9,0.7,2.1,1.8,2.9,2.6L188.5,10.2z"/>
</g>
<g>
	
		<linearGradient id="SVGID_11_" gradientUnits="userSpaceOnUse" x1="21.0074" y1="122.6518" x2="21.0074" y2="145.4414" gradientTransform="matrix(1.3095 0 0 -1.3095 61.4524 194.8318)">
		<stop  offset="0" style="stop-color:#7E470A"/>
		<stop  offset="2.940000e-02" style="stop-color:#AB7A1E"/>
		<stop  offset="5.000000e-02" style="stop-color:#C6992B"/>
		<stop  offset="0.1" style="stop-color:#BA903A"/>
		<stop  offset="0.1" style="stop-color:#BA903A"/>
		<stop  offset="0.15" style="stop-color:#E8C263"/>
		<stop  offset="0.21" style="stop-color:#FFFFCC"/>
		<stop  offset="0.2121" style="stop-color:#FFFECB"/>
		<stop  offset="0.382" style="stop-color:#EECF7C"/>
		<stop  offset="0.46" style="stop-color:#E8BC5D"/>
		<stop  offset="0.7366" style="stop-color:#FFFFD7"/>
		<stop  offset="0.8387" style="stop-color:#F5D77F"/>
		<stop  offset="1" style="stop-color:#B07515"/>
	</linearGradient>
	<path class="st7" d="M82,9.3c1.8-1.8,4.1-2.8,6.9-2.8c2.6,0,4.9,0.9,6.7,2.6c1.9,1.8,2.9,4.1,2.9,6.9c0,2.8-0.9,5.1-2.7,6.9
		c-1.4,1.3-2.9,2.1-4.7,2.5c0.7,0.5,1.5,1,2.4,1.3c1.4,0.5,2.7,0.7,3.9,0.7v0.4c-2.1,0-4.3-0.3-6.7-0.9c-1.8-0.5-3.3-1-4.3-1.6
		c-1.6-0.4-3-1.2-4.2-2.3c-1.9-1.8-2.9-4.2-2.9-7C79.3,13.4,80.2,11.1,82,9.3z M84.9,23.4c1.1,1,2.4,1.6,4.1,1.6c2,0,3.5-0.7,4.5-2
		c1.3-1.6,1.9-4,1.9-6.9c0-3.2-0.8-5.6-2.3-7.2c-1-1.1-2.4-1.6-4.2-1.6c-1.9,0-3.4,0.7-4.5,2c-1.3,1.5-1.9,3.8-1.9,6.9
		C82.5,19.5,83.3,21.9,84.9,23.4z"/>
	
		<linearGradient id="SVGID_12_" gradientUnits="userSpaceOnUse" x1="35.0569" y1="122.6528" x2="35.0569" y2="145.4415" gradientTransform="matrix(1.3095 0 0 -1.3095 61.4524 194.8318)">
		<stop  offset="0" style="stop-color:#7E470A"/>
		<stop  offset="2.940000e-02" style="stop-color:#AB7A1E"/>
		<stop  offset="5.000000e-02" style="stop-color:#C6992B"/>
		<stop  offset="0.1" style="stop-color:#BA903A"/>
		<stop  offset="0.1" style="stop-color:#BA903A"/>
		<stop  offset="0.15" style="stop-color:#E8C263"/>
		<stop  offset="0.21" style="stop-color:#FFFFCC"/>
		<stop  offset="0.2121" style="stop-color:#FFFECB"/>
		<stop  offset="0.382" style="stop-color:#EECF7C"/>
		<stop  offset="0.46" style="stop-color:#E8BC5D"/>
		<stop  offset="0.7366" style="stop-color:#FFFFD7"/>
		<stop  offset="0.8387" style="stop-color:#F5D77F"/>
		<stop  offset="1" style="stop-color:#B07515"/>
	</linearGradient>
	<path class="st8" d="M111.7,24.1c-1.1,1-2.5,1.6-4.3,1.6c-1.8,0-3.2-0.5-4.3-1.5c-0.9-0.9-1.4-1.8-1.4-2.8c0-0.9,0.2-1.6,0.7-2.3
		c0.6-0.9,1.7-1.8,3.4-3c-2.6-2.1-3.9-3.9-3.9-5.2c0-1.1,0.5-2.1,1.3-3c1-0.9,2.3-1.4,3.9-1.4c1.6,0,3,0.4,4.1,1.3
		c0.9,0.7,1.3,1.6,1.3,2.5c0,0.7-0.3,1.4-0.8,2.1c-0.5,0.6-1.7,1.5-3.6,2.7c3.2,2.5,4.8,4.5,4.8,6C113,22.2,112.6,23.2,111.7,24.1z
		 M107.7,14.7c1-0.8,1.7-1.6,2.2-2.3c0.4-0.6,0.6-1.3,0.6-2.1c0-1.1-0.3-1.9-0.9-2.5c-0.6-0.5-1.4-0.8-2.4-0.8c-1,0-1.9,0.3-2.5,0.9
		c-0.6,0.5-0.9,1.2-0.9,2.1C103.8,11.1,105.1,12.7,107.7,14.7z M106.5,16.7c-0.1-0.1-0.2-0.2-0.3-0.3c-0.7,0.5-1.3,1.1-1.7,1.9
		c-0.5,0.8-0.7,1.9-0.7,3.1c0,1,0.4,1.9,1.1,2.6c0.8,0.7,1.7,1.1,2.7,1.1c1.1,0,2-0.3,2.7-1c0.6-0.6,0.9-1.3,0.9-2
		C111.1,20.9,109.6,19.1,106.5,16.7z"/>
</g>
<g>
	
		<linearGradient id="SVGID_13_" gradientUnits="userSpaceOnUse" x1="18.5479" y1="110.0522" x2="18.5479" y2="119.095" gradientTransform="matrix(1.3095 0 0 -1.3095 61.4524 194.8318)">
		<stop  offset="0" style="stop-color:#7E470A"/>
		<stop  offset="2.940000e-02" style="stop-color:#AB7A1E"/>
		<stop  offset="5.000000e-02" style="stop-color:#C6992B"/>
		<stop  offset="0.1" style="stop-color:#BA903A"/>
		<stop  offset="0.1" style="stop-color:#BA903A"/>
		<stop  offset="0.15" style="stop-color:#E8C263"/>
		<stop  offset="0.21" style="stop-color:#FFFFCC"/>
		<stop  offset="0.2121" style="stop-color:#FFFECB"/>
		<stop  offset="0.382" style="stop-color:#EECF7C"/>
		<stop  offset="0.46" style="stop-color:#E8BC5D"/>
		<stop  offset="0.7366" style="stop-color:#FFFFD7"/>
		<stop  offset="0.8387" style="stop-color:#F5D77F"/>
		<stop  offset="1" style="stop-color:#B07515"/>
	</linearGradient>
	<path class="st9" d="M81.4,44.9c0-2.9,1.8-4.7,4.3-4.7c2.5,0,4.3,1.8,4.3,4.7s-1.8,4.7-4.3,4.7C83.2,49.6,81.4,47.8,81.4,44.9z
		 M88.8,44.9c0-2.3-1.2-3.7-3-3.7c-1.8,0-3,1.4-3,3.7c0,2.3,1.2,3.7,3,3.7C87.5,48.6,88.8,47.1,88.8,44.9z"/>
	
		<linearGradient id="SVGID_14_" gradientUnits="userSpaceOnUse" x1="27.8464" y1="110.0532" x2="27.8464" y2="119.0959" gradientTransform="matrix(1.3095 0 0 -1.3095 61.4524 194.8318)">
		<stop  offset="0" style="stop-color:#7E470A"/>
		<stop  offset="2.940000e-02" style="stop-color:#AB7A1E"/>
		<stop  offset="5.000000e-02" style="stop-color:#C6992B"/>
		<stop  offset="0.1" style="stop-color:#BA903A"/>
		<stop  offset="0.1" style="stop-color:#BA903A"/>
		<stop  offset="0.15" style="stop-color:#E8C263"/>
		<stop  offset="0.21" style="stop-color:#FFFFCC"/>
		<stop  offset="0.2121" style="stop-color:#FFFECB"/>
		<stop  offset="0.382" style="stop-color:#EECF7C"/>
		<stop  offset="0.46" style="stop-color:#E8BC5D"/>
		<stop  offset="0.7366" style="stop-color:#FFFFD7"/>
		<stop  offset="0.8387" style="stop-color:#F5D77F"/>
		<stop  offset="1" style="stop-color:#B07515"/>
	</linearGradient>
	<path class="st10" d="M94.3,40.3h1.3l3.7,5.7l1.1,1.9h0.1c-0.1-0.9-0.2-1.9-0.2-2.9v-4.7h1.2v9.1h-1.3l-3.7-5.8l-1.1-1.9h-0.1
		c0.1,0.9,0.2,1.9,0.2,2.8v4.8h-1.2L94.3,40.3L94.3,40.3z"/>
	
		<linearGradient id="SVGID_15_" gradientUnits="userSpaceOnUse" x1="36.4654" y1="110.0532" x2="36.4654" y2="119.0959" gradientTransform="matrix(1.3095 0 0 -1.3095 61.4524 194.8318)">
		<stop  offset="0" style="stop-color:#7E470A"/>
		<stop  offset="2.940000e-02" style="stop-color:#AB7A1E"/>
		<stop  offset="5.000000e-02" style="stop-color:#C6992B"/>
		<stop  offset="0.1" style="stop-color:#BA903A"/>
		<stop  offset="0.1" style="stop-color:#BA903A"/>
		<stop  offset="0.15" style="stop-color:#E8C263"/>
		<stop  offset="0.21" style="stop-color:#FFFFCC"/>
		<stop  offset="0.2121" style="stop-color:#FFFECB"/>
		<stop  offset="0.382" style="stop-color:#EECF7C"/>
		<stop  offset="0.46" style="stop-color:#E8BC5D"/>
		<stop  offset="0.7366" style="stop-color:#FFFFD7"/>
		<stop  offset="0.8387" style="stop-color:#F5D77F"/>
		<stop  offset="1" style="stop-color:#B07515"/>
	</linearGradient>
	<path class="st11" d="M106.4,40.3h1.3v8.1h4.4v1h-5.7C106.4,49.5,106.4,40.3,106.4,40.3z"/>
	
		<linearGradient id="SVGID_16_" gradientUnits="userSpaceOnUse" x1="42.0734" y1="110.0532" x2="42.0734" y2="119.0959" gradientTransform="matrix(1.3095 0 0 -1.3095 61.4524 194.8318)">
		<stop  offset="0" style="stop-color:#7E470A"/>
		<stop  offset="2.940000e-02" style="stop-color:#AB7A1E"/>
		<stop  offset="5.000000e-02" style="stop-color:#C6992B"/>
		<stop  offset="0.1" style="stop-color:#BA903A"/>
		<stop  offset="0.1" style="stop-color:#BA903A"/>
		<stop  offset="0.15" style="stop-color:#E8C263"/>
		<stop  offset="0.21" style="stop-color:#FFFFCC"/>
		<stop  offset="0.2121" style="stop-color:#FFFECB"/>
		<stop  offset="0.382" style="stop-color:#EECF7C"/>
		<stop  offset="0.46" style="stop-color:#E8BC5D"/>
		<stop  offset="0.7366" style="stop-color:#FFFFD7"/>
		<stop  offset="0.8387" style="stop-color:#F5D77F"/>
		<stop  offset="1" style="stop-color:#B07515"/>
	</linearGradient>
	<path class="st12" d="M115.9,40.3h1.3v9.1h-1.3V40.3z"/>
	
		<linearGradient id="SVGID_17_" gradientUnits="userSpaceOnUse" x1="49.0049" y1="110.0532" x2="49.0049" y2="119.0959" gradientTransform="matrix(1.3095 0 0 -1.3095 61.4524 194.8318)">
		<stop  offset="0" style="stop-color:#7E470A"/>
		<stop  offset="2.940000e-02" style="stop-color:#AB7A1E"/>
		<stop  offset="5.000000e-02" style="stop-color:#C6992B"/>
		<stop  offset="0.1" style="stop-color:#BA903A"/>
		<stop  offset="0.1" style="stop-color:#BA903A"/>
		<stop  offset="0.15" style="stop-color:#E8C263"/>
		<stop  offset="0.21" style="stop-color:#FFFFCC"/>
		<stop  offset="0.2121" style="stop-color:#FFFECB"/>
		<stop  offset="0.382" style="stop-color:#EECF7C"/>
		<stop  offset="0.46" style="stop-color:#E8BC5D"/>
		<stop  offset="0.7366" style="stop-color:#FFFFD7"/>
		<stop  offset="0.8387" style="stop-color:#F5D77F"/>
		<stop  offset="1" style="stop-color:#B07515"/>
	</linearGradient>
	<path class="st13" d="M122,40.3h1.3l3.7,5.7l1.1,1.9h0.1c-0.1-0.9-0.2-1.9-0.2-2.9v-4.7h1.2v9.1h-1.3l-3.7-5.8l-1.1-1.9h-0.1
		c0.1,0.9,0.2,1.9,0.2,2.8v4.8H122V40.3z"/>
	
		<linearGradient id="SVGID_18_" gradientUnits="userSpaceOnUse" x1="57.7364" y1="110.0532" x2="57.7364" y2="119.0959" gradientTransform="matrix(1.3095 0 0 -1.3095 61.4524 194.8318)">
		<stop  offset="0" style="stop-color:#7E470A"/>
		<stop  offset="2.940000e-02" style="stop-color:#AB7A1E"/>
		<stop  offset="5.000000e-02" style="stop-color:#C6992B"/>
		<stop  offset="0.1" style="stop-color:#BA903A"/>
		<stop  offset="0.1" style="stop-color:#BA903A"/>
		<stop  offset="0.15" style="stop-color:#E8C263"/>
		<stop  offset="0.21" style="stop-color:#FFFFCC"/>
		<stop  offset="0.2121" style="stop-color:#FFFECB"/>
		<stop  offset="0.382" style="stop-color:#EECF7C"/>
		<stop  offset="0.46" style="stop-color:#E8BC5D"/>
		<stop  offset="0.7366" style="stop-color:#FFFFD7"/>
		<stop  offset="0.8387" style="stop-color:#F5D77F"/>
		<stop  offset="1" style="stop-color:#B07515"/>
	</linearGradient>
	<path class="st14" d="M134.1,40.3h5.8v1h-4.6v2.9h3.8v1h-3.8v3.3h4.7v1h-6L134.1,40.3L134.1,40.3z"/>
	
		<linearGradient id="SVGID_19_" gradientUnits="userSpaceOnUse" x1="69.6644" y1="110.0522" x2="69.6644" y2="119.095" gradientTransform="matrix(1.3095 0 0 -1.3095 61.4524 194.8318)">
		<stop  offset="0" style="stop-color:#7E470A"/>
		<stop  offset="2.940000e-02" style="stop-color:#AB7A1E"/>
		<stop  offset="5.000000e-02" style="stop-color:#C6992B"/>
		<stop  offset="0.1" style="stop-color:#BA903A"/>
		<stop  offset="0.1" style="stop-color:#BA903A"/>
		<stop  offset="0.15" style="stop-color:#E8C263"/>
		<stop  offset="0.21" style="stop-color:#FFFFCC"/>
		<stop  offset="0.2121" style="stop-color:#FFFECB"/>
		<stop  offset="0.382" style="stop-color:#EECF7C"/>
		<stop  offset="0.46" style="stop-color:#E8BC5D"/>
		<stop  offset="0.7366" style="stop-color:#FFFFD7"/>
		<stop  offset="0.8387" style="stop-color:#F5D77F"/>
		<stop  offset="1" style="stop-color:#B07515"/>
	</linearGradient>
	<path class="st15" d="M148.8,44.9c0-2.9,2-4.7,4.6-4.7c1.4,0,2.3,0.6,2.9,1.1l-0.7,0.7c-0.5-0.5-1.2-0.9-2.2-0.9
		c-2,0-3.4,1.4-3.4,3.7c0,2.3,1.2,3.7,3.4,3.7c0.7,0,1.4-0.2,1.8-0.5v-2.4h-2.1v-1h3.3v3.8c-0.6,0.6-1.8,1.1-3.1,1.1
		C150.7,49.6,148.8,47.9,148.8,44.9z"/>
	
		<linearGradient id="SVGID_20_" gradientUnits="userSpaceOnUse" x1="78.1629" y1="110.0532" x2="78.1629" y2="119.0959" gradientTransform="matrix(1.3095 0 0 -1.3095 61.4524 194.8318)">
		<stop  offset="0" style="stop-color:#7E470A"/>
		<stop  offset="2.940000e-02" style="stop-color:#AB7A1E"/>
		<stop  offset="5.000000e-02" style="stop-color:#C6992B"/>
		<stop  offset="0.1" style="stop-color:#BA903A"/>
		<stop  offset="0.1" style="stop-color:#BA903A"/>
		<stop  offset="0.15" style="stop-color:#E8C263"/>
		<stop  offset="0.21" style="stop-color:#FFFFCC"/>
		<stop  offset="0.2121" style="stop-color:#FFFECB"/>
		<stop  offset="0.382" style="stop-color:#EECF7C"/>
		<stop  offset="0.46" style="stop-color:#E8BC5D"/>
		<stop  offset="0.7366" style="stop-color:#FFFFD7"/>
		<stop  offset="0.8387" style="stop-color:#F5D77F"/>
		<stop  offset="1" style="stop-color:#B07515"/>
	</linearGradient>
	<path class="st16" d="M165.6,46.7h-3.7l-1,2.8h-1.3l3.4-9.1h1.4l3.4,9.1h-1.4L165.6,46.7z M165.3,45.8l-0.5-1.4c-0.4-1-0.7-2-1-3.1
		h-0.1c-0.3,1.1-0.6,2.1-1,3.1l-0.5,1.4H165.3z"/>
	
		<linearGradient id="SVGID_21_" gradientUnits="userSpaceOnUse" x1="87.2259" y1="110.0532" x2="87.2259" y2="119.0959" gradientTransform="matrix(1.3095 0 0 -1.3095 61.4524 194.8318)">
		<stop  offset="0" style="stop-color:#7E470A"/>
		<stop  offset="2.940000e-02" style="stop-color:#AB7A1E"/>
		<stop  offset="5.000000e-02" style="stop-color:#C6992B"/>
		<stop  offset="0.1" style="stop-color:#BA903A"/>
		<stop  offset="0.1" style="stop-color:#BA903A"/>
		<stop  offset="0.15" style="stop-color:#E8C263"/>
		<stop  offset="0.21" style="stop-color:#FFFFCC"/>
		<stop  offset="0.2121" style="stop-color:#FFFECB"/>
		<stop  offset="0.382" style="stop-color:#EECF7C"/>
		<stop  offset="0.46" style="stop-color:#E8BC5D"/>
		<stop  offset="0.7366" style="stop-color:#FFFFD7"/>
		<stop  offset="0.8387" style="stop-color:#F5D77F"/>
		<stop  offset="1" style="stop-color:#B07515"/>
	</linearGradient>
	<path class="st17" d="M171.5,40.3h1.5l1.9,4.9c0.2,0.6,0.5,1.3,0.7,1.9h0.1c0.2-0.6,0.5-1.3,0.7-1.9l1.9-4.9h1.5v9.1h-1.2v-5
		c0-0.8,0.1-1.9,0.2-2.7h-0.1l-0.8,2.1l-1.9,4.7h-0.9l-1.9-4.7l-0.8-2.1h-0.1c0.1,0.8,0.2,1.9,0.2,2.7v5h-1.2L171.5,40.3L171.5,40.3
		z"/>
	
		<linearGradient id="SVGID_22_" gradientUnits="userSpaceOnUse" x1="96.4299" y1="110.0532" x2="96.4299" y2="119.0959" gradientTransform="matrix(1.3095 0 0 -1.3095 61.4524 194.8318)">
		<stop  offset="0" style="stop-color:#7E470A"/>
		<stop  offset="2.940000e-02" style="stop-color:#AB7A1E"/>
		<stop  offset="5.000000e-02" style="stop-color:#C6992B"/>
		<stop  offset="0.1" style="stop-color:#BA903A"/>
		<stop  offset="0.1" style="stop-color:#BA903A"/>
		<stop  offset="0.15" style="stop-color:#E8C263"/>
		<stop  offset="0.21" style="stop-color:#FFFFCC"/>
		<stop  offset="0.2121" style="stop-color:#FFFECB"/>
		<stop  offset="0.382" style="stop-color:#EECF7C"/>
		<stop  offset="0.46" style="stop-color:#E8BC5D"/>
		<stop  offset="0.7366" style="stop-color:#FFFFD7"/>
		<stop  offset="0.8387" style="stop-color:#F5D77F"/>
		<stop  offset="1" style="stop-color:#B07515"/>
	</linearGradient>
	<path class="st18" d="M184.7,40.3h5.8v1H186v2.9h3.8v1H186v3.3h4.7v1h-6L184.7,40.3L184.7,40.3z"/>
</g>
</svg>
