<?xml version="1.0" encoding="UTF-8"?>
<svg width="45px" height="47px" viewBox="0 0 45 47" version="1.1" xmlns="http://www.w3.org/2000/svg" xmlns:xlink="http://www.w3.org/1999/xlink">
    <!-- Generator: Sketch 51.3 (57544) - http://www.bohemiancoding.com/sketch -->
    <title>Group 8</title>
    <desc>Created with Sketch.</desc>
    <defs>
        <linearGradient x1="22.9817708%" y1="7.01822917%" x2="75.9483507%" y2="93.4592014%" id="linearGradient-1">
            <stop stop-color="#FFFFFF" offset="0%"></stop>
            <stop stop-color="#FFFFFF" stop-opacity="0.447633605" offset="100%"></stop>
        </linearGradient>
    </defs>
    <g id="Symbols" stroke="none" stroke-width="1" fill="none" fill-rule="evenodd">
        <g id="icon/AG" transform="translate(-8.000000, -7.000000)" fill="url(#linearGradient-1)">
            <g id="Group-8" transform="translate(8.000000, 7.000000)">
                <path d="M19.5311954,32.2226697 C19.7904946,32.2226697 20.0440948,32.2803148 20.2853476,32.3946443 C20.9682637,32.7184178 21.3633863,33.4168847 21.2931,34.1749182 C20.961615,37.7431521 20.329039,41.761018 18.1501661,44.5078087 L26.8875036,44.533749 C24.6801362,41.7811938 24.0504096,37.8882257 23.6932796,34.0874898 C23.624893,33.3621218 24.022865,32.6761447 24.6820358,32.3821545 C24.8947941,32.2860793 25.1236993,32.2380417 25.3573535,32.2380417 C25.8265615,32.2380417 26.2786729,32.4407604 26.5949609,32.7943173 C27.9807393,34.3363246 29.7274469,35.4229354 31.6470207,35.9350164 C32.6794684,36.2097915 33.4393194,36.2962592 33.5219532,36.304906 C34.5990421,36.2991415 35.5564545,36.2395748 36.9640786,35.5315004 C39.4934328,34.2613859 41.3237241,32.1169869 42.1187183,29.4931725 C42.9602534,26.7194808 42.5917256,23.7065617 41.0824714,21.0068479 C38.9387416,17.1734464 33.6786725,9.70455846 22.5003134,2.63918643 C11.1595362,9.8044767 5.99159909,17.0792927 3.91720566,20.7868357 C2.40795147,23.484628 2.04037352,26.4985078 2.88190858,29.2731603 C3.67785258,31.8940924 5.50814385,34.0375307 8.03654829,35.3057236 C9.33304418,35.9580744 10.2505643,36.0781684 11.5850528,36.0791292 C11.6325435,36.0752862 11.8984914,36.0579926 12.298363,35.998426 C14.4221467,35.6784955 16.4585476,34.6159035 18.0323891,33.0066435 L18.2764913,32.7568479 C18.6174745,32.4109771 19.0629371,32.2226697 19.5311954,32.2226697 Z M18.1207218,47 C17.1813559,47 16.3455198,46.4715863 15.9418489,45.6213205 C15.5258304,44.750879 15.6426575,43.7334424 16.2467391,42.9677228 C17.4539525,41.4449305 18.2508463,39.0747547 18.6773127,35.7351799 C16.9220568,37.161897 14.8096708,38.1140025 12.6573926,38.437776 C12.0210173,38.5328904 11.6334933,38.5434587 11.6334933,38.5434587 L11.6306439,38.5434587 C10.2334677,38.5434587 8.84294024,38.464677 6.95186088,37.514493 C3.81937484,35.9427024 1.54552051,33.2727719 0.551065417,29.9966067 C-0.488980737,26.5686427 -0.0473173019,22.8668643 1.79532155,19.5724448 C4.52033745,14.7004702 10.1907261,7.3901063 21.7233657,0.224816026 C21.9456222,0.0787816844 22.2153693,0 22.4946146,0 C22.7814583,0 23.0607036,0.0826246934 23.3010065,0.23922731 C35.2544137,7.66488144 40.9020068,15.6775552 43.2053053,19.7924571 C45.0460445,23.0868765 45.4886578,26.7886549 44.4505113,30.2156582 C43.4551064,33.4947056 41.1822018,36.1665576 38.0478162,37.7402698 C36.1643353,38.6875715 34.7776071,38.7653925 33.4060759,38.7653925 C33.3813808,38.7644317 32.4382156,38.6952576 31.0267923,38.3205642 C29.3399229,37.8699714 27.7347375,37.0475675 26.3432602,35.9263696 C26.6348531,38.1630008 27.2246875,41.0491006 28.7510383,42.9715658 C29.3570195,43.7344031 29.4766961,44.750879 29.0625773,45.6222813 C28.6589064,46.472547 27.8249698,47 26.8875036,47 L18.1207218,47 Z" id="Fill-1"></path>
                <path d="M17.1908667,21.3256487 L18.0119606,15.5299019 L18.8330544,21.3256487 L17.1908667,21.3256487 Z M16.4989037,12.1635954 L19.5490624,12.1635954 L22.0123439,26.8631339 L19.6808649,26.8631339 L19.1625606,23.4852501 L16.8471116,23.4852501 L16.3083245,26.8631339 L14,26.8631339 L16.4989037,12.1635954 Z M26.7673854,12 C27.7523418,12 28.5841223,12.3393023 29.2609458,13.0196881 C29.9377693,13.7009644 30.2744,14.5336355 30.2744,15.5185918 L30.2744,17.1964017 L27.9758717,17.1964017 L27.9758717,15.4713923 C27.9758717,15.1196222 27.8503031,14.8195044 27.600947,14.5683672 C27.3498099,14.3181206 27.047911,14.1934426 26.6970314,14.1934426 C26.3452613,14.1934426 26.046034,14.3181206 25.7993497,14.5683672 C25.5535558,14.8195044 25.4297684,15.1196222 25.4297684,15.4713923 L25.4297684,23.5193584 C25.4297684,23.8720191 25.5535558,24.1703558 25.7993497,24.4170402 C26.046034,24.6637246 26.3452613,24.7866215 26.6970314,24.7866215 C27.047911,24.7866215 27.3498099,24.6637246 27.600947,24.4170402 C27.8503031,24.1703558 27.9758717,23.8720191 27.9758717,23.5193584 L27.9758717,20.6214851 L26.7442309,20.6214851 L26.7442309,18.404888 L30.2744,18.404888 L30.2744,23.5434035 C30.2744,24.5283598 29.9377693,25.3592498 29.2609458,26.0360733 C28.5841223,26.7128969 27.7523418,27.0504181 26.7673854,27.0504181 C25.7824291,27.0504181 24.9488675,26.7128969 24.2675911,26.0360733 C23.5880959,25.3592498 23.247903,24.5283598 23.247903,23.5434035 L23.247903,15.5185918 C23.247903,14.5336355 23.5880959,13.7009644 24.2675911,13.0196881 C24.9488675,12.3393023 25.7824291,12 26.7673854,12 Z" id="Combined-Shape"></path>
            </g>
        </g>
    </g>
</svg>