<?xml version="1.0" encoding="utf-8"?><!--Generator: Adobe Illustrator 22.1.0, SVG Export Plug-In . SVG Version: 6.00 Build 0)--><svg id="Laag_1" xmlns="http://www.w3.org/2000/svg" width="978" height="271"><style>.st0{fill:#fff}</style><g><ellipse class="st0" cx="564.7" cy="55.8" rx="18.6" ry="16.6"/><g><path class="st0" d="M483.1 57.4v143.7h34.7V49.3h-26.6c-4.5 0-8.1 3.7-8.1 8.1zM547.3 97.8v103.3H582V89.8h-26.6c-4.5 0-8.1 3.6-8.1 8zM676 87.2c-15.8 0-26.9 8.2-31.9 12.7V89.8h-26.6c-4.5 0-8.1 3.6-8.1 8.1v147.9h34.7v-49c5.3 4 12.4 6.8 22 6.8 32.4 0 57.2-28 57.2-63.2.1-35.4-25.5-53.2-47.3-53.2zm-11.4 104.3c-7.1 0-14.7-6.7-20.5-13.5v-59.7c5.4-5.4 14.6-13.1 22.5-13.1 11.9 0 23.1 16.3 23.1 40.1s-10.8 46.2-25.1 46.2zM789.5 87.2c-30.6 0-40.7 6.5-40.7 6.5l3.6 7.8s11.4-4.1 30-4.1c20.7 0 22.8 11.1 22.8 24.9v6.4c-4.4-1.3-12.9-3.3-23.6-3.3-15.8 0-43.8 6.2-43.8 38.6s24.9 39.6 41.2 39.6c9.5 0 19.5-5 26.2-9.1v6.7H840v-79c0-23.4-20-35-50.5-35zm-2.1 101.5c-14.5 0-23.6-8.5-23.6-24.3s16.1-25.6 28.8-25.6c6.4 0 10.3 2 12.7 4.1v38.6c-4.1 3.4-10.2 7.2-17.9 7.2zM977.7 87.2h-23.3l-31.2 71.2-.9-1.7-35.6-69.5h-35.6l54.3 106 1.3 2.5-5.7 13c-8.8 17.4-33.9 16.2-33.9 16.2v14.6s10.8.9 18.6 0c7.5-.9 24.1-5.8 32.2-23l16.6-35.9 43.2-93.4zM397.3 49.4h-14.7l-12 24.9-61 126.9H333l12.1-25.1h72.7l11.7 25.1h38.3L401.6 58.6l-4.3-9.2zm15.6 116h-62.7l31.9-66.3 30.8 66.3z"/></g><g><path class="st0" d="M271.3 184.2V42.5c0-23.5-19-42.5-42.5-42.5h-186C19.3 0 .3 19.1.3 42.5v186c0 23.5 19 42.5 42.5 42.5h186c23.3 0 42.2-18.8 42.5-42.1-27.8-15.5-66.9-36.5-103.8-53.5-19.4 26.6-50.9 49-89.9 49-42.7 0-56.7-27.4-58.7-46.2-2.4-23.6 9-49.3 60.2-49.3 21.4 0 48 6.2 76.9 15.1 10-18.2 16-36.5 16-36.5H64.3V97.4H120V78.5H53.7V66.9h66.2V36.5h30.8V67H217v11.5h-66.2v18.9h53.7s-9.2 28.2-23.2 55c29.7 10 60.6 21.7 90 31.8z"/><path class="st0" d="M28.9 176c.6 12.2 6.2 32.5 42.3 32.5 31.5 0 56-24 71.3-44.1-27-11.3-51.1-19-66.2-19-40.8 0-48 20-47.4 30.6z"/></g></g></svg>