<svg viewBox="0 0 32 32" xmlns="http://www.w3.org/2000/svg"><g fill="#fff"><path d="m21 32a11 11 0 1 1 11-11 11.01245 11.01245 0 0 1 -11 11zm0-20a9 9 0 1 0 9 9 9.01016 9.01016 0 0 0 -9-9z"/><path d="m11.8125 26h-10.8125a1 1 0 0 1 0-2h10.8125a1 1 0 0 1 0 2z"/><path d="m21 12a.99974.99974 0 0 1 -1-1v-9h-9.1875a1 1 0 0 1 0-2h10.1875a.99974.99974 0 0 1 1 1v10a.99974.99974 0 0 1 -1 1z"/><path d="m20.60059 32h-19.59959a.99973.99973 0 0 1 -1-1v-30a.99973.99973 0 0 1 1-1h3.999a1 1 0 0 1 0 2h-2.999v28h18.59959a1 1 0 0 1 0 2z"/><path d="m11 20h-10a1 1 0 0 1 0-2h10a1 1 0 0 1 0 2z"/><path d="m20.59961 8h-19.59961a1 1 0 0 1 0-2h19.59961a1 1 0 0 1 0 2z"/><path d="m31 32h-28.59961a1 1 0 0 1 0-2h28.59961a1 1 0 0 1 0 2z"/><path d="m14.625 14h-13.625a1 1 0 0 1 0-2h13.625a1 1 0 0 1 0 2z"/><path d="m21 26.28564a2.98689 2.98689 0 0 1 -2.59863-1.57128 1 1 0 1 1 1.752-.96485.97536.97536 0 0 0 .84663.53613 1.153 1.153 0 0 0 0-2.28564 3.14622 3.14622 0 0 1 0-6.28564 2.97517 2.97517 0 0 1 2.67969 1.728 1.00024 1.00024 0 0 1 -1.80274.86719.99092.99092 0 0 0 -.87695-.59519 1.153 1.153 0 0 0 0 2.28564 3.14622 3.14622 0 0 1 0 6.28564z"/><path d="m21 17.71436a.99974.99974 0 0 1 -1-1v-1.71436a1 1 0 0 1 2 0v1.71436a.99974.99974 0 0 1 -1 1z"/><path d="m21 28a.99974.99974 0 0 1 -1-1v-1.71436a1 1 0 0 1 2 0v1.71436a.99974.99974 0 0 1 -1 1z"/><circle cx="8" cy="1.00018" r="1"/></g></svg>