<?xml version="1.0" encoding="utf-8"?>
<!-- Generator: Adobe Illustrator 22.1.0, SVG Export Plug-In . SVG Version: 6.00 Build 0)  -->
<svg version="1.1" id="Layer_1" xmlns="http://www.w3.org/2000/svg" xmlns:xlink="http://www.w3.org/1999/xlink" x="0px" y="0px"
	 viewBox="0 0 96 96" style="enable-background:new 0 0 96 96;" xml:space="preserve">
<style type="text/css">
	.st0{fill:#FFFFFF;}
	.st1{enable-background:new    ;}
</style>
<g id="Layer_1_1_">
	<g>
		<polygon class="st0" points="40,24.7 14.2,24.7 14.2,20.1 -0.2,27.5 14,35.5 14,30.5 25.2,30.6 		"/>
		<polygon class="st0" points="50,60.9 75.9,60.9 75.9,65.6 90.2,58.1 76.1,50.2 76.1,55.1 64.9,55.1 		"/>
		<path class="st0" d="M66.1,21.2L24.5,33.1c-0.3,0.1-0.5,0.4-0.4,0.7l0.3,1.2l39.9-11.4c0.3-0.1,0.6,0.1,0.7,0.4l6.2,21.6l1.6-0.5
			c0.3-0.1,0.5-0.4,0.4-0.7l-6.5-22.8C66.7,21.3,66.4,21.1,66.1,21.2z"/>
		<path class="st0" d="M63.5,25.1L22,36.9c-0.3,0.1-0.5,0.4-0.4,0.7l0.3,1.2l39.9-11.4c0.3-0.1,0.6,0.1,0.7,0.4l6.2,21.6l1.6-0.5
			c0.3-0.1,0.5-0.4,0.4-0.7l-6.5-22.8C64.2,25.2,63.8,25,63.5,25.1z"/>
		<path class="st0" d="M67.9,51.5l-6.2-21.9c-0.1-0.3-0.4-0.5-0.7-0.4L21,40.7c-0.3,0.1-0.5,0.4-0.4,0.7l6.2,21.9
			c0.1,0.3,0.4,0.5,0.7,0.4l39.9-11.4C67.8,52.1,67.9,51.8,67.9,51.5z M23.8,46.6C23.8,46.6,23.7,46.6,23.8,46.6l-1.3-4.1
			c-0.1-0.3,0.1-0.6,0.4-0.7l4.3-1.2C27.9,43.2,26.4,45.9,23.8,46.6z M28.6,61.6c-0.3,0.1-0.6-0.1-0.7-0.4l-1.2-4.2c0,0,0.1,0,0.1,0
			c2.6-0.7,5.3,0.8,6.1,3.4L28.6,61.6z M46.9,51.3L44.3,52l-0.7-2.5l-2.6,0.7L40.6,49l2.6-0.7l-0.3-1L40.3,48l-0.4-1.2l1.9-0.6
			l-4.1-3.7l3.1-0.9l1.8,2.1c0.5,0.6,0.8,1.1,1.3,1.6l0,0c0.1-0.6,0.1-1.3,0.2-2.1l0.4-2.7l3.1-0.9l-1.8,5.4l2-0.6l0.4,1.2l-2.6,0.7
			l0.3,1l2.6-0.7l0.4,1.2l-2.6,0.7L46.9,51.3z M55.6,32.5l4.3-1.2c0.3-0.1,0.6,0.1,0.7,0.4l1.2,4.2c0,0-0.1,0-0.1,0
			C59.1,36.6,56.4,35.1,55.6,32.5z M65.6,51.1l-4.3,1.2c-0.7-2.6,0.8-5.3,3.4-6.1c0,0,0.1,0,0.1,0l1.2,4.2
			C66,50.7,65.9,51,65.6,51.1z"/>
		<g class="st1">
			<path class="st0" d="M54.6,69.8h2.5v1H56V72h1.2v1H56v1.7l1.2-0.4v1.2l-2.9,1l0.5-1.4v-2h-1.1l0.5-1h0.6v-1.2h-1L54.6,69.8z
				 M54,69.5v-1.9l1.2-0.6v0.8h2.1v1h-2.1v0.8H54z M62.1,72.5l-1,0l0.6,1.2l1.5-0.8v1.3l-1,0.5l1,1.7H62l-2.2-3.8h-1v2.4l1.8-0.4
				v1.1l-3.4,0.8l0.5-1.2v-7.8h5.4v4.2L62.1,72.5z M62,69.4v-1h-3.2v1H62z M58.8,70.5v0.9H62v-0.9H58.8z"/>
			<path class="st0" d="M66,72.5h0.6v3.9h-1.2v-3.4h-0.9l1.6-2.9h1.2L66,72.5z M65.8,69.8h-1.2l1.4-2.8h1.2L65.8,69.8z M67.6,71.4
				l0.8-1.1h5.8v1.1h-1.4v5h-3.6l0.9-1.1h1.5v-3.9H67.6z M68.7,67.3H74v1.1h-6.1L68.7,67.3z"/>
			<path class="st0" d="M77.7,73.8v-1.6h-2.1l0.9-3.3h-1l0.8-1.1h0.5l0.2-0.7h1.2L78,67.8h1.9v1.1h-2.2l-0.6,2.3h0.6v-1.5h1.2v1.5
				h0.9v1.1h-0.9v1.5l1.1-0.1v1.1l-1.1,0.1v1.6h-1.2v-1.5l-2.1,0.2V74L77.7,73.8z M81.2,70.2l0.3-1.2h-1.4l0.6-1.1h1L82,67h1.2
				L83,67.9h1.8V69h-2l-0.3,1.2h2.6v1.1h-2.9l-0.3,1.1h3v0.7l-1.3,2h1.1v1.1h-4.6l0.8-1.1h1.2l1.1-1.6h-2.8l0.5-2.2h-1l0.6-1.1H81.2
				z"/>
			<path class="st0" d="M90.8,76.4l-2-1.3l-2.2,1.3v-1.2l1.6-1v-5.4h1.1v5.4l1.4,1V76.4L90.8,76.4z M89.7,74v-5.7h-1.8V74h-1.1v-6.8
				h4.1V74H89.7z M96,71.8h-1.1l1.1,4.6h-1.1l-1.1-4.6H93v3.2l1-0.3v1.1l-2.5,0.6l0.4-1.2v-3.4H91l0.4-1.1h0.4v-3.6H93v3.6h3
				L96,71.8L96,71.8z M94.3,70.1v-2.8h1.1v2.1L94.3,70.1z"/>
		</g>
	</g>
</g>
</svg>
