<svg viewBox="0 0 32 32" xmlns="http://www.w3.org/2000/svg"><g fill="#fff"><path d="m16.02734 32.00146q-.70752 0-1.42139-.0625a15.89365 15.89365 0 0 1 -10.8623-5.6543l1.53223-1.28516a14.00029 14.00029 0 0 0 24.72461-8.96143l2 .00684a16.00271 16.00271 0 0 1 -15.97315 15.95655z"/><path d="m.00146 16.22168a16 16 0 0 1 28.25538-10.50635l-1.53223 1.28516a14.0003 14.0003 0 0 0 -24.72315 9.19482z"/><path d="m29.00049 8h-5a1 1 0 0 1 0-2h3v-3a1 1 0 0 1 2 0z"/><path d="m4.00049 30a1 1 0 0 1 -1-1v-5h5a1 1 0 1 1 0 2h-3v3a1 1 0 0 1 -1 1z"/><path d="m1 20a1.05235 1.05235 0 0 1 -.71-.29 1.051 1.051 0 0 1 -.29-.71.9995.9995 0 0 1 .07959-.38037 1.15319 1.15319 0 0 1 .21041-.32963 1.0057 1.0057 0 0 1 1.08984-.21045 1.15552 1.15552 0 0 1 .33016.21045 1.16214 1.16214 0 0 1 .21.32959.83864.83864 0 0 1 .08.38041 1.38371 1.38371 0 0 1 -.02.19971.652.652 0 0 1 -.06006.18018.75916.75916 0 0 1 -.09033.18018 1.59055 1.59055 0 0 1 -.11961.14993 1.16449 1.16449 0 0 1 -.33008.21.838.838 0 0 1 -.37992.08z"/><path d="m31 14a1.05235 1.05235 0 0 1 -.71-.29 1.03173 1.03173 0 0 1 -.29-.71.9995.9995 0 0 1 .07959-.38037 1.15319 1.15319 0 0 1 .21041-.32963 1.045 1.045 0 0 1 .90967-.27.63472.63472 0 0 1 .18018.05957.75916.75916 0 0 1 .18018.09033c.0498.04.09961.08008.1499.12012a1.16214 1.16214 0 0 1 .21.32959.83864.83864 0 0 1 .08007.38039 1.05329 1.05329 0 0 1 -.29.71 1.03393 1.03393 0 0 1 -.71.29z"/></g></svg>