<svg height="96" viewBox="0 0 96 96" width="96" xmlns="http://www.w3.org/2000/svg"><path d="m64.631817 61.749297-41.947162-41.833639-14.6958975 14.658808c-1.8257448 1.820024-4.7937044 1.820024-6.6194493 0-1.82574483-1.828989-1.82574483-4.778681 0-6.598705l17.4749868-17.420223c.03598-.03586.09893-.01793.143901-.06276.06296-.06276.02698-.170347.09893-.242072 1.681843-1.6676078 4.415964-1.6676078 6.097808 0l45.553683 45.419892c1.681844 1.685538 1.681844 4.393159 0 6.078698-1.681844 1.667608-4.424958 1.667608-6.106802 0" fill="#fff" transform="matrix(1.3333333 0 0 -1.3333333 0 96.000001)"/></svg>