<svg viewBox="0 0 32 32" xmlns="http://www.w3.org/2000/svg"><g fill="#fff"><path d="m16 32a16.00063 16.00063 0 1 1 16-16 16.01833 16.01833 0 0 1 -16 16zm0-30a13.93749 13.93749 0 1 0 5.82422 1.26465 14.01573 14.01573 0 0 0 -5.82422-1.26465z"/><path d="m16 27a11 11 0 1 1 11-11 11.01245 11.01245 0 0 1 -11 11zm0-20a9 9 0 1 0 9 9 9.01015 9.01015 0 0 0 -9-9z"/><path d="m16 19a3 3 0 1 1 3-3 3.00328 3.00328 0 0 1 -3 3zm0-4a1 1 0 1 0 1 1 1.001 1.001 0 0 0 -1-1z"/><path d="m17.60938 15.39063a1 1 0 0 1 -.707-1.707l2.39062-2.39063a.99989.99989 0 0 1 1.414 1.414l-2.39062 2.39063a.99676.99676 0 0 1 -.707.293z"/><path d="m12 21a1 1 0 0 1 -.707-1.707l2.48438-2.48437a.99989.99989 0 0 1 1.41406 1.41406l-2.48444 2.48431a.99676.99676 0 0 1 -.707.293z"/><path d="m14.39063 15.39063a.99676.99676 0 0 1 -.707-.293l-2.39063-2.39063a.99989.99989 0 0 1 1.414-1.414l2.39063 2.39063a1 1 0 0 1 -.707 1.707z"/><path d="m20 21a.99676.99676 0 0 1 -.707-.293l-2.5-2.5a.99989.99989 0 0 1 1.414-1.414l2.5 2.5a1 1 0 0 1 -.707 1.707z"/><path d="m16 7a.99974.99974 0 0 1 -1-1v-5a1 1 0 0 1 2 0v5a.99974.99974 0 0 1 -1 1z"/><path d="m16 32a.99974.99974 0 0 1 -1-1v-5a1 1 0 0 1 2 0v5a.99974.99974 0 0 1 -1 1z"/><path d="m6 17h-5a1 1 0 0 1 0-2h5a1 1 0 0 1 0 2z"/><path d="m31 17h-5a1 1 0 0 1 0-2h5a1 1 0 0 1 0 2z"/><path d="m23.07129 9.92871a1 1 0 0 1 -.707-1.707l3.5361-3.53571a.99989.99989 0 0 1 1.41406 1.4141l-3.53613 3.53564a.99676.99676 0 0 1 -.70703.29297z"/><path d="m5.39355 27.60645a1 1 0 0 1 -.707-1.707l3.53613-3.53564a.99989.99989 0 0 1 1.41406 1.41406l-3.53615 3.53561a.99676.99676 0 0 1 -.70704.29297z"/><path d="m8.92969 9.92871a.99676.99676 0 0 1 -.707-.293l-3.53617-3.53561a.99989.99989 0 0 1 1.41407-1.4141l3.53613 3.53568a1 1 0 0 1 -.707 1.707z"/><path d="m26.60742 27.60645a.99676.99676 0 0 1 -.707-.293l-3.53613-3.53564a.99989.99989 0 0 1 1.41406-1.41406l3.53613 3.53564a1 1 0 0 1 -.707 1.707z"/></g></svg>