<svg xmlns="http://www.w3.org/2000/svg" width="23" height="23" viewBox="0 0 23 23">
    <path fill="#FFF" fill-rule="evenodd" d="M21.652 8.76a.675.675 0 0 1-.673.674h-6.784V6.738h6.784c.371 0 .673.303.673.674V8.76zm-1.347 12.219a.675.675 0 0 1-.674.673h-5.436v-10.87h6.11v10.197zm-10.153.673h2.696V6.738h-2.696v14.914zM8.805 9.434H2.02a.675.675 0 0 1-.673-.674V7.412c0-.371.302-.674.673-.674h6.784v2.696zm0 12.218H3.369a.675.675 0 0 1-.674-.673V10.78h6.11v10.871zM7.457 1.348c1.381 0 1.774.828 2.806 3.447l.236.596H7.457a2.024 2.024 0 0 1-2.021-2.022c0-1.115.906-2.021 2.021-2.021zm5.28 3.447c1.032-2.619 1.425-3.447 2.806-3.447 1.115 0 2.021.906 2.021 2.021a2.024 2.024 0 0 1-2.021 2.022H12.5l.236-.596zm8.242.596h-2.743a3.351 3.351 0 0 0 .676-2.022A3.373 3.373 0 0 0 15.542 0c-1.118 0-1.943.401-2.596 1.262-.546.72-.945 1.725-1.446 2.996-.5-1.27-.9-2.276-1.446-2.996C9.4.4 8.576 0 7.457 0a3.373 3.373 0 0 0-3.37 3.37c0 .757.252 1.457.676 2.02H2.021A2.024 2.024 0 0 0 0 7.413V8.76c0 .878.563 1.627 1.348 1.905V20.98c0 1.114.906 2.021 2.021 2.021h16.262a2.024 2.024 0 0 0 2.021-2.021V10.665A2.025 2.025 0 0 0 23 8.76V7.412a2.024 2.024 0 0 0-2.021-2.021z"/>
</svg>
