<svg xmlns="http://www.w3.org/2000/svg" width="19" height="18" viewBox="0 0 19 18">
    <path fill="#FFF" fill-rule="evenodd" d="M1.345 11.092h1.114V7.764H1.345v3.328zm7.802-9.983c3.073 0 5.573 2.488 5.573 5.546 0 .045-.012.087-.013.132-.922-2.683-3.066-4.569-5.56-4.569-2.493 0-4.638 1.886-5.56 4.57 0-.046-.013-.088-.013-.133 0-3.058 2.5-5.546 5.573-5.546zm6.688 9.983h1.115V7.764h-1.115v3.328zm-6.688 5.025c-1.803 0-3.38-1.266-4.24-3.144 1.321.572 3.053.891 4.24.891a.556.556 0 1 0 0-1.109c-1.96 0-4.049-.78-4.75-1.335a8.157 8.157 0 0 1-.183-1.701c0-3.528 2.213-6.398 4.933-6.398 2.72 0 4.933 2.87 4.933 6.398 0 3.528-2.213 6.398-4.933 6.398zM1.345 12.2h1.114c.33 0 .617-.149.822-.374.034.048.064.096.104.142.771 3.04 3.062 5.25 5.762 5.25 2.765 0 5.097-2.32 5.811-5.474.203.27.512.456.877.456h1.115c.615 0 1.114-.497 1.114-1.11V7.765c0-.613-.499-1.11-1.114-1.11h-1.115C15.835 2.98 12.84 0 9.147 0 5.454 0 2.46 2.98 2.46 6.655H1.345C.729 6.655.23 7.15.23 7.765v3.327c0 .612.499 1.109 1.115 1.109z"/>
</svg>
