<?xml version="1.0" encoding="UTF-8"?>
<svg width="23px" height="23px" viewBox="0 0 23 23" version="1.1" xmlns="http://www.w3.org/2000/svg" xmlns:xlink="http://www.w3.org/1999/xlink">
    <!-- Generator: Sketch 50 (54983) - http://www.bohemiancoding.com/sketch -->
    <title>Fill 1</title>
    <desc>Created with Sketch.</desc>
    <defs></defs>
    <g id="Mobile_Final" stroke="none" stroke-width="1" fill="none" fill-rule="evenodd">
        <g id="10_bet-w_tabbur_r1" transform="translate(-129.000000, -6.000000)" fill="#FFFFFF">
            <g id="deposit" transform="translate(94.000000, 0.000000)">
                <path d="M40.6388724,13.4021997 C40.9967587,13.4431149 41.3452234,13.5344111 41.6774105,13.6742304 C41.9328098,13.4961056 42.1814415,13.3334622 42.4196785,13.1886888 C41.8776517,12.9267431 41.2814842,12.7850217 40.678726,12.7757771 C40.6512575,12.9831839 40.6378992,13.1930236 40.6388724,13.4021997 Z M47.4020873,13.641056 C48.2766993,13.641056 49.153523,13.7325291 50.0090707,13.9129098 C50.7149352,13.5578986 51.2904018,12.9723911 51.6325413,12.2597591 C51.9835716,11.5287262 52.0767255,10.6909158 51.8947966,9.90061118 C51.7132659,9.11238552 51.2647911,8.40094773 50.6319105,7.89744758 C49.9992068,7.39399167 49.2054521,7.11674148 48.3968794,7.11674148 L48.3784344,7.11674148 C47.5988784,7.11674148 46.8566547,7.36307305 46.2318244,7.82901969 C45.6069056,8.29501056 45.1591386,8.93620692 44.9369138,9.68320775 C44.7143352,10.4312259 44.739017,11.2137898 45.0083495,11.9462381 C45.2706049,12.6597106 45.7408421,13.2593725 46.3696975,13.6832981 C46.7119697,13.6552546 47.0590632,13.641056 47.4020873,13.641056 Z M39.1381473,14.5522041 C39.2650508,16.1985872 40.0960936,16.9500113 40.8306651,16.9500113 C41.3516371,16.9449246 41.8284208,16.6788653 42.1069979,16.2376889 C42.2502675,15.8875433 42.1738777,15.4867071 41.9110473,15.2137917 L41.9069779,15.2093685 C41.4948624,14.7408563 40.9012604,14.4721431 40.278509,14.4721431 C40.2427248,14.4721431 40.2064541,14.4730277 40.1704929,14.4748412 C40.1504113,14.4775837 40.1315682,14.4779818 40.1168387,14.4779818 C40.1026843,14.4779818 40.0901222,14.4763894 40.0802141,14.4745316 L40.0592478,14.4743989 C39.7513002,14.4743989 39.4420256,14.5005846 39.1381473,14.5522041 Z M49.8929158,26.0052291 C50.1985633,26.0052291 50.4472393,26.2538165 50.4472393,26.5593314 L50.4472393,27.6912889 C50.4472393,27.8017378 50.5370757,27.8915743 50.6474804,27.8915743 L53.2886114,27.8915743 C53.3991488,27.8915743 53.4891179,27.8017378 53.4891179,27.6912889 L53.4891179,25.4273739 C53.4891179,25.1218148 53.7377054,24.8732273 54.0432202,24.8732273 C54.2075887,24.8745543 54.3587759,24.9479363 54.4604667,25.0687356 C55.907803,23.9795068 56.7891826,22.3260907 56.8848135,20.5102081 C57.0132209,17.8073284 55.2848747,15.1860579 52.4816753,13.8328929 C52.3576028,13.7725596 52.2193758,13.7101031 52.0520437,13.6388886 C51.8495467,13.8934032 51.6209081,14.1258899 51.369711,14.3328545 C51.9009892,14.5491963 52.4032509,14.8308698 52.8655262,15.1719477 C53.1109289,15.3560881 53.1607791,15.7042875 52.977479,15.9487613 C52.8718514,16.0896865 52.7100927,16.1704553 52.5337371,16.1704553 C52.4131147,16.1704553 52.2982426,16.1321941 52.2015058,16.0597852 C51.410405,15.4664043 49.9421025,14.7591687 47.4399505,14.7591687 C45.9093684,14.7591687 44.7475096,15.0217778 44.7359207,15.0244318 C44.6945189,15.0340303 44.652321,15.0388516 44.6103442,15.0388516 C44.3508313,15.0388516 44.1288719,14.862098 44.0705733,14.6089988 C44.0017473,14.3112247 44.1881437,14.0129198 44.4860063,13.9440496 C44.548507,13.9299393 44.6917323,13.899065 44.9023239,13.8620422 C44.7675913,13.7131109 44.6421475,13.5555543 44.5275407,13.3910531 C44.095609,13.5539177 43.6735411,13.7494702 43.2714222,13.9731104 C43.0808238,14.0805957 42.8736381,14.2079857 42.6418148,14.3604556 C42.6901168,14.413579 42.736163,14.4686929 42.7795552,14.5253549 C43.3111431,15.1299267 43.4378696,15.994144 43.1021439,16.7284943 L43.0995784,16.7341561 L43.0964821,16.7395524 C42.6305355,17.548479 41.7626911,18.0538811 40.8315497,18.0584813 C40.2388324,18.0451231 39.6634542,17.8130344 39.2286915,17.4170638 C39.0102265,17.6599452 38.7844631,17.9083115 38.545253,18.1503083 C37.9811984,18.7187862 37.0208635,18.9487517 36.3145125,19.041596 C36.2506848,19.0501771 36.1926516,19.0853863 36.1555404,19.1382001 C36.1150233,19.1943755 36.1001611,19.2636881 36.1137848,19.3297274 L36.7061041,22.3190577 C36.8142086,22.4127867 36.9312924,22.497271 37.0547457,22.5704761 L37.1299854,22.6198397 C37.4010873,22.7915508 37.6946151,22.9312375 38.0004838,23.0336803 C38.2782206,23.1333806 38.5483493,23.2508183 38.8060487,23.3837816 C39.444768,23.7282654 40.0074072,24.2179208 40.4353137,24.800907 C40.4824657,24.8669021 40.5310332,24.9286066 40.5888452,24.9960614 C41.0248906,25.4527192 41.5686867,25.7898603 42.1701621,25.978026 L42.1701621,25.8047667 C42.1701621,25.499075 42.4187496,25.2504433 42.7243087,25.2504433 C43.0299562,25.2504433 43.2786321,25.499075 43.2786321,25.8047667 L43.2786321,27.6912889 C43.2786321,27.8017378 43.3684244,27.8915743 43.4788733,27.8915743 L46.1200043,27.8915743 C46.2304532,27.8915743 46.3202897,27.8017378 46.3202897,27.6912889 L46.3202897,26.5593314 C46.3202897,26.2538165 46.5689213,26.0052291 46.8746131,26.0052291 C47.1802606,26.0052291 47.4288923,26.2538165 47.4288923,26.5593314 L47.4288923,26.7193651 C47.7064964,26.7321041 47.9647708,26.7433834 48.2322898,26.7522741 C48.3638376,26.7573167 48.5005165,26.7598379 48.6392743,26.7598379 C48.8571201,26.7598379 49.0869971,26.7536453 49.3388135,26.7409506 L49.3388135,26.5593314 C49.3388135,26.2538165 49.587401,26.0052291 49.8929158,26.0052291 Z M50.6474804,29 C49.9856716,29 49.4295347,28.4968979 49.3488543,27.8531803 C49.1203485,27.8638404 48.9167457,27.8689271 48.716593,27.8689271 C48.5370969,27.8689271 48.3617145,27.8659636 48.1953555,27.8601249 C47.9345156,27.8514995 47.667262,27.8396009 47.4216382,27.8283216 C47.3522372,28.486459 46.7949943,29 46.1200043,29 L43.4788733,29 C42.757262,29 42.1701621,28.4129002 42.1701621,27.6912889 L42.1701621,27.1379385 C41.2492386,26.9029747 40.4168245,26.4177869 39.7570947,25.7303674 L39.7522291,25.7250153 C39.6718141,25.631596 39.6016612,25.5425556 39.5377008,25.4528519 C39.209008,25.005306 38.7754839,24.6277804 38.2850324,24.3626057 C38.0711233,24.2533953 37.8452272,24.1559508 37.6163233,24.0743416 C37.2295531,23.9435015 36.8569374,23.7634304 36.5108169,23.5398344 L36.4568531,23.5044483 C35.9716653,23.189733 35.6974229,22.9574674 35.6395666,22.633021 L35.0267234,19.5500944 C34.9528106,19.1863252 35.0338891,18.8034032 35.2492578,18.5001442 C35.4645381,18.1969737 35.7993792,17.994344 36.1679255,17.9442284 L36.1733661,17.9434765 L36.1788067,17.9431668 C36.7577678,17.9125578 37.3062968,17.7119186 37.765697,17.3627019 C38.0180884,17.1073468 38.2715414,16.824656 38.4954028,16.5749628 C38.5111054,16.557314 38.5268965,16.5397978 38.5427318,16.5222817 C38.2155871,15.8789622 38.0350737,15.1611549 38.0199019,14.4401629 C38.003934,13.9801876 38.3217012,13.5809438 38.7756166,13.4926555 C39.024381,13.4436899 39.2781436,13.4086577 39.531464,13.3881337 C39.530712,13.0749224 39.5547746,12.7602072 39.6032093,12.4508441 C39.6780509,11.9966633 40.0654404,11.6677936 40.524531,11.6677936 C41.1153906,11.6710669 42.5717503,11.7690422 43.5519014,12.5925655 C43.7042828,12.5234298 43.8515775,12.4604868 43.9977664,12.4020555 C43.6396147,11.474497 43.5838816,10.4431687 43.8423771,9.48234733 C44.1171503,8.46088296 44.7368053,7.55181373 45.5871336,6.92264865 C46.4029162,6.31905004 47.3703725,6 48.3848924,6 C49.5010588,6 50.5837854,6.39818223 51.4336714,7.12112051 C52.2393247,7.80654951 52.7958598,8.75551658 53.0007896,9.79330279 C53.1931131,10.7677479 53.0683771,11.7909373 52.6498921,12.6907619 C52.7653835,12.7418506 52.8695071,12.79002 52.9654477,12.8367739 C56.1679351,14.3808469 58.1415071,17.4140117 57.9928854,20.5638181 C57.8662916,22.9258853 56.5986283,25.0750166 54.5974995,26.3287024 L54.5974995,27.6912889 C54.5974995,28.4129002 54.0103554,29 53.2886114,29 L50.6474804,29 Z" id="Fill-1"></path>
            </g>
        </g>
    </g>
</svg>