<?xml version="1.0" encoding="UTF-8"?>
<svg width="26px" height="23px" viewBox="0 0 26 23" version="1.1" xmlns="http://www.w3.org/2000/svg" xmlns:xlink="http://www.w3.org/1999/xlink">
    <!-- Generator: Sketch 50 (54983) - http://www.bohemiancoding.com/sketch -->
    <title>icon/Home</title>
    <desc>Created with Sketch.</desc>
    <defs>
        <linearGradient x1="22.9817708%" y1="7.01822917%" x2="75.9483507%" y2="93.4592014%" id="linearGradient-1">
            <stop stop-color="#FFFFFF" offset="0%"></stop>
            <stop stop-color="#FFFFFF" stop-opacity="0.447633605" offset="100%"></stop>
        </linearGradient>
        <path d="M10.4084638,15.0718211 L14.8874725,15.0718211 L14.8874725,21.2865043 C14.8874725,21.467033 15.0396843,21.6195652 15.2198337,21.6195652 L20.6416965,21.6195652 C20.8218459,21.6195652 20.9740576,21.467033 20.9740576,21.2865043 L20.9740576,12.9821455 L23.8391878,12.9821455 C23.9671147,12.9821455 24.090546,12.8986792 24.1393565,12.7791312 C24.1885684,12.6586179 24.1593062,12.5107115 24.068228,12.4194415 L13.194317,1.36942198 C13.1338658,1.30884351 13.0495713,1.27328484 12.9594966,1.27183675 C12.9097628,1.27054956 12.815353,1.28108844 12.738645,1.35799816 L1.37032663,12.4155397 C1.27278585,12.507936 1.2452095,12.6499696 1.29843546,12.7862912 C1.34560024,12.9070862 1.45955839,12.9821455 1.59575422,12.9821455 L4.04382724,12.9821455 L4.04382724,21.2865043 C4.04382724,21.467033 4.19603903,21.6195652 4.37618843,21.6195652 L10.0761026,21.6195652 C10.2562521,21.6195652 10.4084638,21.467033 10.4084638,21.2865043 L10.4084638,15.0718211 Z M15.2742553,22.8913043 C14.5217827,22.8913043 13.9095528,22.2764921 13.9095528,21.5207537 L13.9095528,16.1876724 L11.3841971,16.1876724 L11.3841971,21.5207537 C11.3841971,22.2764921 10.7719673,22.8913043 10.0194947,22.8913043 L4.19654534,22.8913043 C3.44407266,22.8913043 2.83184285,22.2764921 2.83184285,21.5207537 L2.83184285,14.0482461 L1.35609426,14.0482461 C0.794015625,14.0482461 0.300049094,13.7126506 0.0976811016,13.1932992 C-0.108459505,12.66427 0.0177180652,12.0757321 0.419050494,11.692818 L12.0177504,0.386598527 C12.2736321,0.131349935 12.6172272,-0.00504621464 12.9818996,0.00014276933 C13.3414052,0.00603185431 13.6790133,0.149511379 13.9324756,0.404018688 L25.0411046,11.7171157 C25.4214006,12.0992061 25.5406071,12.6963922 25.3351636,13.2006709 C25.1286539,13.7075852 24.6241076,14.0482461 24.0796619,14.0482461 L22.1778538,14.0482461 L22.1778538,21.5207537 C22.1778538,22.2764921 21.565624,22.8913043 20.8131513,22.8913043 L15.2742553,22.8913043 Z" id="path-2"></path>
    </defs>
    <g id="Mobile_Final" stroke="none" stroke-width="1" fill="none" fill-rule="evenodd">
        <g id="10_bet-w_tabbur_r1" transform="translate(-34.000000, -6.000000)">
            <g id="home">
                <g id="icon/Home" transform="translate(34.000000, 6.000000)">
                    <mask id="mask-3" fill="white">
                        <use xlink:href="#path-2"></use>
                    </mask>
                    <g id="home">
                        <use fill="url(#linearGradient-1)" xlink:href="#path-2"></use>
                        <use fill="#FFFFFF" xlink:href="#path-2"></use>
                    </g>
                </g>
            </g>
        </g>
    </g>
</svg>