<svg viewBox="0 0 32 32" xmlns="http://www.w3.org/2000/svg"><g fill="#fff"><path d="m28.00049 28h-24a4.00427 4.00427 0 0 1 -4-4v-16a4.00427 4.00427 0 0 1 4-4h17a1 1 0 0 1 0 2h-17a2.00229 2.00229 0 0 0 -2 2v16a2.00229 2.00229 0 0 0 2 2h24a2.00229 2.00229 0 0 0 2-2v-16a2.00229 2.00229 0 0 0 -2-2h-3.937a1 1 0 0 1 0-2h3.937a4.00427 4.00427 0 0 1 4 4v16a4.00427 4.00427 0 0 1 -4 4z"/><path d="m16.00049 17a.99971.99971 0 0 1 -.58105-.18652l-14-10a.99968.99968 0 1 1 1.16211-1.627l13.41895 9.585 13.41895-9.585a.99968.99968 0 1 1 1.16211 1.627l-14 10a.99971.99971 0 0 1 -.58107.18652z"/><path d="m5.001 25a.99994.99994 0 0 1 -.65137-1.75879l7-6a.9997.9997 0 1 1 1.30176 1.51758l-7 6a.99373.99373 0 0 1 -.65039.24121z"/><path d="m27 25a.99373.99373 0 0 1 -.65039-.24121l-7-6a.9997.9997 0 1 1 1.30176-1.51758l7 6a.99994.99994 0 0 1 -.65137 1.75879z"/></g></svg>