<svg xmlns="http://www.w3.org/2000/svg" viewBox="0 0 84.53 87.67"><defs><style>.cls-1,.cls-15,.cls-3,.cls-5,.cls-7{fill:#fff200;}.cls-1,.cls-10,.cls-11,.cls-12,.cls-13,.cls-15,.cls-16,.cls-2,.cls-3,.cls-4,.cls-5,.cls-6,.cls-8{stroke:#231f20;}.cls-1,.cls-10,.cls-14,.cls-15,.cls-16,.cls-2,.cls-3,.cls-4,.cls-5,.cls-6,.cls-8{stroke-linecap:round;}.cls-1,.cls-11,.cls-12,.cls-13,.cls-14,.cls-2{stroke-miterlimit:3.86;}.cls-1,.cls-14,.cls-3{stroke-width:0.81px;}.cls-12,.cls-2{fill:#ed1c24;}.cls-10,.cls-11,.cls-12,.cls-2,.cls-8{stroke-width:0.41px;}.cls-10,.cls-15,.cls-16,.cls-3,.cls-4,.cls-5,.cls-6,.cls-8{stroke-linejoin:round;}.cls-4{fill:#00aeef;}.cls-4,.cls-5{stroke-width:0.27px;}.cls-6,.cls-8{fill:#fff;}.cls-6{stroke-width:1.09px;}.cls-16,.cls-9{fill:#231f20;}.cls-10,.cls-11{fill:#00a651;}.cls-13,.cls-14,.cls-17{fill:none;}.cls-13{stroke-width:0.54px;}.cls-14{stroke:#fff200;}.cls-15,.cls-16{stroke-width:0.14px;}</style></defs><title>Black_Burn</title><g id="Layer_2" data-name="Layer 2"><g id="Layer_1-2" data-name="Layer 1"><g id="Layer_2-2" data-name="Layer 2"><g id="Layer_1-2-2" data-name="Layer 1-2"><polygon class="cls-1" points="84.12 73.62 84.12 85.5 0.41 85.5 0.41 73.62 40.69 45.68 84.12 73.62 84.12 73.62"/><polygon class="cls-2" points="2.9 73.83 16.05 73.83 10.76 68.54 2.9 73.83 2.9 73.83"/><polygon class="cls-2" points="81.64 73.83 68.49 73.83 73.78 68.54 81.64 73.83 81.64 73.83"/><path class="cls-3" d="M1,41.64A41.23,41.23,0,1,1,42.27,82.87,41.23,41.23,0,0,1,1,41.64S1,41.65,1,41.64Z"/><path class="cls-4" d="M2.51,41.64A39.76,39.76,0,1,1,42.27,81.4,39.76,39.76,0,0,1,2.51,41.64Z"/><path class="cls-5" d="M12,41.64a30.3,30.3,0,1,1,30.3,30.3A30.3,30.3,0,0,1,12,41.64Z"/><path class="cls-6" d="M13.46,41.64A28.81,28.81,0,1,1,42.27,70.45h0A28.81,28.81,0,0,1,13.46,41.64Z"/><path class="cls-7" d="M8.89,58l1.42-.63-.7-1.58a1.45,1.45,0,0,0-.46-.62.67.67,0,0,0-.69,0,.63.63,0,0,0-.44.61,2.73,2.73,0,0,0,.24.81Zm2.48-1.1,1.71-.76-.7-1.58A1.69,1.69,0,0,0,12,54a.88.88,0,0,0-1-.07.76.76,0,0,0-.5.72,1.82,1.82,0,0,0,.18.7l.71,1.6ZM6.89,54.67a1.79,1.79,0,0,1,.85-.73,1.57,1.57,0,0,1,1.08-.12,1.67,1.67,0,0,1,.58.33,1.56,1.56,0,0,1,.24-1,1.85,1.85,0,0,1,.83-.67,2.05,2.05,0,0,1,1.15-.17,1.94,1.94,0,0,1,1.36.82,4.86,4.86,0,0,1,.49.87l1.3,2.91L8.35,59.77,7,56.65a2.17,2.17,0,0,1-.06-2Z"/><polygon class="cls-7" points="5.23 51.83 4.9 50.4 10.52 49.1 9.74 45.71 10.97 45.42 12.08 50.25 5.23 51.83 5.23 51.83"/><path class="cls-7" d="M8.25,41.87l.09-1.78-2.81.73Zm-4.37-.32L4,39.89l7.16-2.12L11,39.37l-1.47.38-.14,2.59,1.42.56-.08,1.54-6.9-2.88Z"/><path class="cls-7" d="M5.24,34.53A3.3,3.3,0,0,1,6.68,30a2.52,2.52,0,0,1,1.39-.15l-.36,1.43a2,2,0,0,0-.83.17,1.5,1.5,0,0,0-.73,1,1.47,1.47,0,0,0,.32,1.38,3.1,3.1,0,0,0,1.66.89,2.75,2.75,0,0,0,1.84,0,1.55,1.55,0,0,0,.87-1.07,1.42,1.42,0,0,0-.21-1.27,2.21,2.21,0,0,0-.7-.56l.35-1.41a3.15,3.15,0,0,1,1.58,1.4,2.85,2.85,0,0,1,.21,2.12A3,3,0,0,1,10.57,36a3.9,3.9,0,0,1-2.81.19,3.86,3.86,0,0,1-2.52-1.65Z"/><polygon class="cls-7" points="6.92 26.64 7.56 25.34 10.16 26.61 8.75 22.9 9.58 21.19 10.92 25.05 15.97 24.14 15.14 25.84 11.42 26.44 11.77 27.39 13.88 28.42 13.25 29.72 6.92 26.64 6.92 26.64"/><path class="cls-7" d="M13.33,18.3l1.17,1L15.64,18a1.44,1.44,0,0,0,.36-.68.66.66,0,0,0-.28-.63.63.63,0,0,0-.74-.14,2.71,2.71,0,0,0-.63.56l-1,1.17Zm2,1.78,1.42,1.23L17.93,20a1.69,1.69,0,0,0,.38-.63.88.88,0,0,0-.36-.93.75.75,0,0,0-.87-.15,1.82,1.82,0,0,0-.56.46l-1.15,1.32Zm.12-5a1.79,1.79,0,0,1,1,.46,1.57,1.57,0,0,1,.57.92,1.68,1.68,0,0,1,0,.67,1.56,1.56,0,0,1,1-.21,1.85,1.85,0,0,1,1,.47,2,2,0,0,1,.64,1A2,2,0,0,1,19.47,20a4.88,4.88,0,0,1-.58.82L16.8,23.17l-5.31-4.62L13.73,16a2.17,2.17,0,0,1,1.77-.89Z"/><path class="cls-7" d="M17.51,12.26l1.19-.9,2.6,3.45a2.45,2.45,0,0,0,.78.74,1.14,1.14,0,0,0,1.29-.23,1.14,1.14,0,0,0,.57-1.17,2.44,2.44,0,0,0-.5-.95l-2.6-3.45L22,8.85l2.6,3.45a3.62,3.62,0,0,1,.77,1.6,2.6,2.6,0,0,1-1.29,2.41,2.61,2.61,0,0,1-2.67.58,3.62,3.62,0,0,1-1.33-1.19l-2.6-3.45Z"/><path class="cls-7" d="M27.36,7.56,28,9.33l1.57-.57a1.86,1.86,0,0,0,.66-.36.78.78,0,0,0,.14-.9.87.87,0,0,0-.69-.66A1.61,1.61,0,0,0,29,7l-1.61.58ZM30,5.5a1.78,1.78,0,0,1,.81.23,2.18,2.18,0,0,1,.54.43,1.93,1.93,0,0,1,.38.65,2.12,2.12,0,0,1,.1,1,1.42,1.42,0,0,1-.55.93,1.3,1.3,0,0,1,.84.29,2.29,2.29,0,0,1,.57,1l.16.44a3.63,3.63,0,0,0,.26.6.59.59,0,0,0,.39.29l.06.17L32,12.06l-.22-.32a3.48,3.48,0,0,1-.27-.55l-.23-.61a1.27,1.27,0,0,0-.54-.76,1.3,1.3,0,0,0-.91.09l-1.43.52L29.34,13,28,13.51,25.59,6.9l3.24-1.18A3.2,3.2,0,0,1,30,5.5Z"/><polygon class="cls-7" points="33.99 4.01 35.52 3.82 38.9 8.36 38.3 3.48 39.66 3.31 40.52 10.3 39.06 10.48 35.6 5.87 36.21 10.83 34.85 10.99 33.99 4.01 33.99 4.01"/><path class="cls-7" d="M46.93,4.81l-.29,1.87,1.64.26a1.86,1.86,0,0,0,.75,0,.78.78,0,0,0,.56-.71.87.87,0,0,0-.29-.92,1.6,1.6,0,0,0-.69-.23l-1.69-.27Zm3.27-.53a1.78,1.78,0,0,1,.59.59,2.19,2.19,0,0,1,.26.64,1.93,1.93,0,0,1,0,.75,2.12,2.12,0,0,1-.4.94,1.42,1.42,0,0,1-.93.54,1.29,1.29,0,0,1,.59.66,2.27,2.27,0,0,1,0,1.12l-.07.47a3.7,3.7,0,0,0-.06.65.59.59,0,0,0,.2.44v.17L48.8,11v-.39a3.46,3.46,0,0,1,0-.61l.09-.65a1.27,1.27,0,0,0-.1-.93A1.3,1.3,0,0,0,48,8.06l-1.5-.24L46,10.55l-1.42-.23,1.1-6.95,3.41.54a3.19,3.19,0,0,1,1.09.36Z"/><path class="cls-7" d="M56.85,12a2.88,2.88,0,0,0,1.27-1.42,2.86,2.86,0,0,0,.34-1.87,1.67,1.67,0,0,0-1-1.19,1.7,1.7,0,0,0-1.54,0A2.86,2.86,0,0,0,54.69,9a2.85,2.85,0,0,0-.33,1.88,1.7,1.7,0,0,0,1,1.19,1.67,1.67,0,0,0,1.53,0Zm.36,1.36a3.07,3.07,0,0,1-2.43-.27,3.07,3.07,0,0,1-1.71-1.75,3.79,3.79,0,0,1,.31-3.08,3.72,3.72,0,0,1,2.23-2.14A3.07,3.07,0,0,1,58,6.45,3.07,3.07,0,0,1,59.75,8.2a3.73,3.73,0,0,1-.32,3.08,3.8,3.8,0,0,1-2.23,2.14Z"/><polygon class="cls-7" points="66.69 12.01 67.9 12.95 61.67 17.02 60.58 16.16 63.04 9.15 64.28 10.12 62.19 15.27 66.69 12.01 66.69 12.01"/><polygon class="cls-7" points="72 19.23 69.5 16.46 68.39 17.46 70.68 20 69.77 20.82 67.49 18.28 66.14 19.49 68.75 22.38 67.81 23.23 64.24 19.27 69.47 14.56 72.92 18.39 72 19.23 72 19.23"/><path class="cls-7" d="M74.66,23.3l-1.7.83.73,1.5a1.87,1.87,0,0,0,.43.62.78.78,0,0,0,.91,0,.88.88,0,0,0,.59-.76,1.6,1.6,0,0,0-.2-.7l-.75-1.54ZM77,25.67a1.77,1.77,0,0,1-.14.82,2.2,2.2,0,0,1-.37.59,1.94,1.94,0,0,1-.61.44,2.12,2.12,0,0,1-1,.21,1.42,1.42,0,0,1-1-.45,1.3,1.3,0,0,1-.2.86,2.27,2.27,0,0,1-.9.67l-.42.21a3.62,3.62,0,0,0-.57.32.59.59,0,0,0-.24.42l-.16.08-.71-1.45.3-.25a3.49,3.49,0,0,1,.52-.32l.58-.3q.6-.3.7-.62a1.3,1.3,0,0,0-.19-.89l-.66-1.36-2.48,1.21-.63-1.29,6.32-3.08,1.51,3.1a3.2,3.2,0,0,1,.33,1.1Z"/><path class="cls-7" d="M74.26,31.62a1.44,1.44,0,0,0-.64.43,1.51,1.51,0,0,0-.12,1.3,2.57,2.57,0,0,0,.32.79.82.82,0,0,0,.94.4.6.6,0,0,0,.45-.43,3.34,3.34,0,0,0,.09-1v-.76a4.69,4.69,0,0,1,.16-1.6,1.72,1.72,0,0,1,1.31-1.06,2,2,0,0,1,1.69.29,2.91,2.91,0,0,1,1.09,1.81,3,3,0,0,1-.12,2A2.1,2.1,0,0,1,77.94,35l-.34-1.4a1,1,0,0,0,.74-.76,1.86,1.86,0,0,0,0-.87,1.6,1.6,0,0,0-.44-.82.73.73,0,0,0-.7-.17.6.6,0,0,0-.47.46,4.1,4.1,0,0,0-.06,1v1.25a3.15,3.15,0,0,1-.2,1.29,1.72,1.72,0,0,1-1.24,1,2,2,0,0,1-1.74-.33,3.09,3.09,0,0,1-1.12-1.87,3.39,3.39,0,0,1,.08-2.25,2.09,2.09,0,0,1,1.49-1.18l.34,1.36Z"/><polygon class="cls-7" points="80.65 42.96 80.3 47.94 79.06 47.85 79.31 44.33 77.7 44.22 77.48 47.3 76.26 47.22 76.48 44.14 73.53 43.93 73.64 42.47 80.65 42.96 80.65 42.96"/><polygon class="cls-7" points="74.54 47.3 74.29 48.73 72.89 48.48 73.14 47.06 74.54 47.3 74.54 47.3"/><path class="cls-7" d="M78.21,53.09a3.34,3.34,0,0,1-2,4.29l-.09,0a2.52,2.52,0,0,1-1.4,0L75.29,56a2,2,0,0,0,.85-.06A1.49,1.49,0,0,0,77,55a1.47,1.47,0,0,0-.13-1.42,3.1,3.1,0,0,0-1.52-1.11,2.75,2.75,0,0,0-1.83-.21,1.56,1.56,0,0,0-1,.93,1.42,1.42,0,0,0,0,1.28,2.2,2.2,0,0,0,.62.65l-.55,1.35a3.16,3.16,0,0,1-1.37-1.61,2.86,2.86,0,0,1,.08-2.13,3,3,0,0,1,1.8-1.85,4.58,4.58,0,0,1,5.08,2.18Z"/><polygon class="cls-7" points="71.11 57.23 70.36 58.47 69.14 57.73 69.89 56.5 71.11 57.23 71.11 57.23"/><path class="cls-7" d="M16.13,70.26h1V64.4h-.72c-.09.67-.63,1-1.59,1.07v.69h1.29v4.1Z"/><path class="cls-7" d="M19.57,67.11c-.61.15-.85.63-.85,1.53,0,1.18.5,1.73,1.58,1.73s1.6-.57,1.6-1.8c0-.87-.25-1.32-.87-1.45a1.12,1.12,0,0,0,.77-1.23,1.32,1.32,0,0,0-1.48-1.47,1.31,1.31,0,0,0-1.48,1.44c0,.69.25,1.12.74,1.26Zm.74.39c.43,0,.53.33.53,1s-.09,1-.53,1-.53-.28-.53-.93.08-1.11.53-1.11ZM19.83,66c0-.53.11-.77.46-.77s.5.23.5.77-.12.77-.48.77-.47-.24-.47-.77Z"/><path class="cls-7" d="M63.18,70.27H64.3a12.14,12.14,0,0,1,1.39-4.92v-.84H62.47v1h2.18a13.2,13.2,0,0,0-1.47,4.79Z"/><path class="cls-7" d="M66.33,68.4v.15c0,1.25.5,1.83,1.56,1.83s1.67-.68,1.67-2.17c0-1.29-.5-1.93-1.48-1.93a1,1,0,0,0-.8.33l.06-1.17h2v-.93h-2.8l-.15,3.05h.94a.5.5,0,0,1,.53-.47h0c.46,0,.63.39.63,1.19s-.15,1.3-.57,1.3-.59-.34-.59-1V68.4Z"/><polygon class="cls-1" points="0.41 75.39 84.12 75.39 84.12 87.26 0.41 87.26 0.41 75.39 0.41 75.39"/><polygon class="cls-8" points="1.95 76.95 82.58 76.95 82.58 85.69 1.95 85.69 1.95 76.95 1.95 76.95"/><path class="cls-9" d="M4.33,83.67h.93L6,82.16H8.59l.7,1.51h1l-2.5-5.06h-1Zm1.92-2.1,1-2.23,1,2.23Z"/><path class="cls-9" d="M11,78.61v5.06h.9V81.51H13.3c1.14,0,1.41.06,1.48.81l.06.66a1.3,1.3,0,0,0,.18.7h1v-.14c-.21-.08-.28-.27-.3-.59l-.07-.83a.81.81,0,0,0-.76-.94A1.19,1.19,0,0,0,15.83,80,1.27,1.27,0,0,0,15,78.79a3.83,3.83,0,0,0-1.45-.18Zm.89.59h1.54c1,0,1.52.14,1.52.82s-.49.89-1.52.89H11.83V79.2Z"/><polygon class="cls-9" points="18.55 83.67 19.45 83.67 19.45 79.23 21.55 79.23 21.55 78.61 16.45 78.61 16.45 79.23 18.55 79.23 18.55 83.67 18.55 83.67"/><polygon class="cls-9" points="22.34 83.67 27.15 83.67 27.15 83.04 23.24 83.04 23.24 81.34 26.78 81.34 26.78 80.75 23.24 80.75 23.24 79.24 27.08 79.24 27.08 78.61 22.34 78.61 22.34 83.67 22.34 83.67"/><polygon class="cls-9" points="30.77 83.67 35.58 83.67 35.58 83.04 31.66 83.04 31.66 81.34 35.21 81.34 35.21 80.75 31.66 80.75 31.66 79.24 35.5 79.24 35.5 78.61 30.77 78.61 30.77 83.67 30.77 83.67"/><polygon class="cls-9" points="38.13 83.67 39.04 83.67 39.04 79.23 41.13 79.23 41.13 78.61 36.04 78.61 36.04 79.23 38.13 79.23 38.13 83.67 38.13 83.67"/><polygon class="cls-9" points="44.46 83.67 48.68 83.67 48.68 83.03 45.37 83.03 45.37 78.61 44.46 78.61 44.46 83.67 44.46 83.67"/><path class="cls-9" d="M48.66,83.67h.93l.71-1.51h2.61l.7,1.51h1l-2.47-5.06h-1l-2.46,5.06Zm1.92-2.1,1-2.23,1,2.23Z"/><path class="cls-9" d="M56.17,83.06V81.3H57.9c1,0,1.5.25,1.5.85s-.48.91-1.4.91Zm0-2.32V79.19h1.65c.87,0,1.28.24,1.28.75s-.44.79-1.36.79Zm-.9,2.93h2.81c1.41,0,2.24-.61,2.24-1.51,0-.65-.47-1.1-1.27-1.22a1.14,1.14,0,0,0,1-1.1q0-1.23-2.07-1.23H55.27Z"/><path class="cls-9" d="M61.22,81.15c0,1.69,1.2,2.67,3.15,2.67s3.14-1,3.14-2.67-1.19-2.67-3.14-2.67S61.22,79.48,61.22,81.15Zm.93,0a2.22,2.22,0,1,1,2.36,2.06h-.15a2,2,0,0,1-2.21-2.07Z"/><path class="cls-9" d="M68.64,78.61v5.06h.9V81.51H71c1.14,0,1.41.06,1.48.81l.06.66a1.3,1.3,0,0,0,.17.7h1v-.14c-.21-.08-.28-.27-.3-.59l-.07-.83a.81.81,0,0,0-.76-.94A1.19,1.19,0,0,0,73.52,80a1.27,1.27,0,0,0-.86-1.22,3.82,3.82,0,0,0-1.45-.18Zm.89.59h1.54c1,0,1.52.14,1.52.82s-.49.89-1.52.89H69.53Z"/><polygon class="cls-9" points="74.77 83.67 79.58 83.67 79.58 83.04 75.67 83.04 75.67 81.34 79.21 81.34 79.21 80.75 75.67 80.75 75.67 79.24 79.51 79.24 79.51 78.61 74.77 78.61 74.77 83.67 74.77 83.67"/><path class="cls-10" d="M45.44,47.6c1.42,3.21,2.43,6.68,4.34,9.64.4-2.46-.81-4.9-1-7.33-.43-7.64,5.8-6.93,8.42-12.29C60.09,40,62.6,37,64.31,37c.69,0,1.21.59,1.9.61a13.51,13.51,0,0,1-1.36,6.11h1.09c3.68,2.17-1.5,5-3.26,6.18.32.8,2,.32,2,1.15s-.83,1.48-1.43,2c-6.71,6.27-9.72.09-11.75,3-.44.65-.34,1.5-.75,2.17a65.89,65.89,0,0,1,.35,9.07c-1.55,0-3.1,1.22-4.62,1.63.39-.84,0-4.7-.14-5.7a6.63,6.63,0,0,0,2-.14A9.16,9.16,0,0,0,47.87,58c-.91.71-1.18,1.64-2.24,2.31a5.59,5.59,0,0,1-1.15,4.48c-.12-1-1-1.59-1-2.58a6.51,6.51,0,0,1-3.87,5.63A5.58,5.58,0,0,1,38,66.25V66a9.85,9.85,0,0,0-3.81,1.85c-1.52-2.34-1.3-3.68-1.56-6.31-.06-.59-1.9-.36-2.31-.47,1.42-1.15,1.33-1.83,3.39-2.72-.84-.45-1.18-1.35-1.7-2.1,7.26,0,5.94-4.89,13.71-2.51a7.42,7.42,0,0,0-3.06-2.24c.81-.77,2-.73,1.22-2.17l1.48-1.75Z"/><path class="cls-10" d="M41.73,49.59A2.78,2.78,0,0,0,39,48.36c-1.76.65-8.42-5.43-8.83-5.43-2.48,3.85-6.51,2.66-8.29,3.85,1.16,1.55,2.57,3.54,1.23,5,1.11.56,3.56.67,3.26,3.94,2.32,0,11-1.07,12.29-3.26.72-1.2,3-1.21,3-2.91Z"/><path class="cls-11" d="M47.26,39c.94,1.33,8.15,4.14,10,4.14a21.56,21.56,0,0,1-10.75,1.34c-.2,0,.11,4.47-5.77,7.06,0,0,.64-4-.68-5.7-2.91,4.69-10.46,4.75-10.46,4.75,5.74-3.33,5.54-5.73,5.74-6.55a50.69,50.69,0,0,1,11.91-5Z"/><path class="cls-12" d="M51.54,28.64c.54.07.55,1.11.55,1.65,0,2-.93,2.9-1.75,4.8a11,11,0,0,1-1.15,2.17c-.54.88-1,1.63-2.1,1.83-3.46.68-5.16,2.24-8.21,3.73-.81.41-1.29.81-2.1,1.15H32.9a15.78,15.78,0,0,1-2.51-.27,1.26,1.26,0,0,1-1.22-1.22,4.46,4.46,0,0,1,.31-2C28,40.48,23.8,39.13,23,37.9a18.91,18.91,0,0,1-2.38-10c.74-.12,3.16.89,4,1a13.86,13.86,0,0,1-.12-2c0-.75-.34-1.83.41-1.83a7.19,7.19,0,0,1,2.64.66,11.83,11.83,0,0,0-.47-1.12l-.06-.1c-.34-.68-1-.83-1-1.51a1.61,1.61,0,0,1,.74-1.36L26.72,19c1-.29,3,2.44,4.41,2.44,0,0,3.17-3,3.8-3.46s1.63,2.56,2.58,3.8c.19-.21-.33-2-.41-2.31A16.75,16.75,0,0,1,40,21.62c1.28-1.3,1-3.18,3-4.53.8-.52,1.09-1.53,2.24-.75a26.19,26.19,0,0,0,.68,6.18c.53-.11.53-.43,1.22-.34,0,2.16.13,5,2.15,6.29l2.24.17Z"/><path class="cls-13" d="M40.89,29.52a11.43,11.43,0,0,0-1.09-3.67c-.27-.61-.75-.81-1-1.43a16,16,0,0,0-1.29-2.65"/><path class="cls-13" d="M31.35,39.2c6.8.8,10.3-3.2,10.65-5.71a4.76,4.76,0,0,0-.22-3"/><path class="cls-13" d="M31,39.16c7.54.94,11.32-2.85,11.88-4.53a17.93,17.93,0,0,1,1.12-2A7.41,7.41,0,0,1,45.43,31c2.22-2.4,2.85-2.64,6.11-2.31"/><path class="cls-13" d="M30.86,39.16c-.68,0-1,.68-1.22,1.29a4.28,4.28,0,0,0-.48,2,1.26,1.26,0,0,0,1.22,1.22A15.78,15.78,0,0,0,32.9,44h3.87c.81-.34,1.29-.75,2.1-1.15,3.06-1.49,4.75-3.06,8.21-3.73,1.09-.2,1.56-1,2.1-1.83a11,11,0,0,0,1.15-2.17c.81-1.9,1.75-2.76,1.75-4.8,0-.54,0-1.58-.55-1.65"/><path class="cls-13" d="M30.69,36a2.56,2.56,0,0,0,.54-1.83c0-1.7-.61-2.65-.61-4.35,0-.75-.14-1.36.34-1.83a2.19,2.19,0,0,1,1.63-.41,16.11,16.11,0,0,1,5,.75c1,.27,1.49.81,2.44,1.15.75.27,2-.2,2,.61,0,.34-.48.48-.75.54a5.29,5.29,0,0,1-1.49.27c-2.38,0-3.53-1.63-5.91-1.63-.75,0-.68,1.15-.68,1.9l.2,2.65a5.9,5.9,0,0,1-.88,3.73c-.48.75-.75,1.36-1.63,1.63l-.27-.07v-.2"/><path class="cls-13" d="M30.63,39.16a3.18,3.18,0,0,0,.2-1.77,6.8,6.8,0,0,0-1-3.46c-.34-.68-1-.88-1.22-1.63-.34-1-.27-1.63-.54-2.65-.34-1.43,0-2.24-.48-3.67A8.09,8.09,0,0,0,27,24.62l-.06-.1c-.34-.68-1-.83-1-1.51a1.51,1.51,0,0,1,1.43-1.56c1,0,1.49.54,2.44.88A10.11,10.11,0,0,0,32,23a17.24,17.24,0,0,1,2.78,1.22,2.86,2.86,0,0,1,1.36.68c1,1,.68,2,1.36,3.39"/><path class="cls-13" d="M26.86,21.69,26.72,19c1-.29,3,2.44,4.41,2.44,0,0,3.17-3,3.8-3.46s1.63,2.56,2.58,3.8c.19-.21-.33-2-.41-2.31A16.75,16.75,0,0,1,40,21.62a35.38,35.38,0,0,0,2.34,3.53c.2.41.68.61.88,1,.82,1.49.34,2.65,1,4.35v1.56"/><path class="cls-13" d="M35.59,27.83c-.48-1.56-1.7-1.9-3.06-2.58a3.66,3.66,0,0,0-1.7-.61c-.75,0-1,.88-1.09,1.63v1.15c.27.88.2,1.56.81,2.17"/><path class="cls-13" d="M27.59,26c-1.09-.34-1.56-.88-2.65-.88-.75,0-.41,1.09-.41,1.83a11.76,11.76,0,0,0,.68,4.28,10.52,10.52,0,0,0,1.43,2.58"/><path class="cls-13" d="M24.71,29c-.59.12-3.26-1.22-4.07-1.09a18.91,18.91,0,0,0,2.38,10c.77,1.23,4.93,2.58,6.45,2.58"/><path class="cls-13" d="M49.46,28.57c-2.18-1.23-2.31-4.17-2.31-6.38-.69-.09-.69.23-1.22.34a26.19,26.19,0,0,1-.68-6.18c-1.15-.78-1.45.23-2.24.75-2.08,1.36-1.75,3.25-3,4.55"/><path class="cls-7" d="M39.13,32a7,7,0,0,0-2.85-.61c-1.22,0-1.77,1.15-2,2.38v1.36c1-1.29,1-3.19,2.65-3.19A7.78,7.78,0,0,0,39.1,32Z"/><line class="cls-14" x1="44.83" y1="36.18" x2="46.59" y2="38.08"/><line class="cls-14" x1="43.66" y1="37.07" x2="45.01" y2="38.7"/><line class="cls-14" x1="42.38" y1="38.08" x2="42.93" y2="39.03"/><line class="cls-14" x1="48.77" y1="30.34" x2="51.21" y2="30.48"/><line class="cls-14" x1="48.49" y1="31.43" x2="50.53" y2="31.7"/><line class="cls-14" x1="43.38" y1="45.08" x2="42.38" y2="49.22"/><path class="cls-15" d="M47,56.5c-.14-.14-.14-.48-.41-.48-1.56,0-2.31,1-3.87,1S40.54,56,39,55.76a12.82,12.82,0,0,1,1.77,1c.41.2,1,.34,1,.82,0,.88-1,1.29-1.9,1.29a12.69,12.69,0,0,1-3.87-.6,3.59,3.59,0,0,0,2,.61c.75,0,1.83-.2,1.83.54s-.61.88-1,1.36A34.27,34.27,0,0,0,36,64.85a5.77,5.77,0,0,1,1.36-1.49c1.36-1.22,1.83-2.31,3.19-3.53,0,.34-.14.54-.14.88,0,.61.2.88.2,1.49s-.07.75-.07,1.22a3.56,3.56,0,0,0,.41-.68v-2.5c.2-1.22,1-1.63,2.17-2.31l-.2,3.46c.41-1.36.07-2.38.81-3.46S45.9,57.18,47,56.5Z"/><path class="cls-15" d="M52.83,49.22a14.32,14.32,0,0,0-.2-3.39l.47,1.9v2.45c.14,0,.2.13.34.13.81,0,.81-1,1.29-1.63a19.57,19.57,0,0,0,1.83-2.31c.47-.81.14-1.56.34-2.51v1.56c1.09-.34,1.29-1.29,2.17-1.9a13.15,13.15,0,0,0,3.6-3.12c-.75.88-1,1.63-1.83,2.51-1.09,1.22-2.24,1.56-3.12,3.12a10.07,10.07,0,0,0,1.42,0c1.83,0,2.85-.75,4.68-.75H63a2.39,2.39,0,0,0-1.15.48,5.55,5.55,0,0,1-3.87.81c-.81-.14-1.41.87-1.68,1.61a3.47,3.47,0,0,1-1.58,2,2,2,0,0,0,.61.14,8,8,0,0,0,3.26-.68H61.3c-2.1.68-3.19.54-5.3,1.09-1.63.41-3,.75-3.39,2.38a3.71,3.71,0,0,1-.82,1.9c-.2.27-.75.61-1,.41s.07-.88.27-1.29c1.09-1.76,1.77-2.92,1.77-5Z"/><path class="cls-16" d="M30.2,52.06a1.37,1.37,0,0,0,.75.2c1.49,0,2.38-.34,3.87-.41,1.83-.14,3.33-.48,4.14-2.1.14-.27.41-.61.27-.88-.27-.47-.88.34-1.36.54-1,.47-1.49.68-2.44,1.22A9.49,9.49,0,0,1,30.2,52.06Z"/></g></g><rect class="cls-17" width="84.53" height="87.67"/></g></g></svg>