<?xml version="1.0" encoding="UTF-8"?>
<svg width="45px" height="45px" viewBox="0 0 45 45" version="1.1" xmlns="http://www.w3.org/2000/svg" xmlns:xlink="http://www.w3.org/1999/xlink">
    <!-- Generator: Sketch 51.3 (57544) - http://www.bohemiancoding.com/sketch -->
    <title>Group 3</title>
    <desc>Created with Sketch.</desc>
    <defs>
        <linearGradient x1="22.9817708%" y1="7.01822917%" x2="75.9483507%" y2="93.4592014%" id="linearGradient-1">
            <stop stop-color="#FFFFFF" offset="0%"></stop>
            <stop stop-color="#FFFFFF" stop-opacity="0.447633605" offset="100%"></stop>
        </linearGradient>
    </defs>
    <g id="Symbols" stroke="none" stroke-width="1" fill="none" fill-rule="evenodd">
        <g id="icon/Macao" transform="translate(-8.000000, -8.000000)" fill="url(#linearGradient-1)">
            <g id="Group-3" transform="translate(8.000000, 8.000000)">
                <path d="M20.8794,2.6821 C16.4384,2.9741 12.3154,4.6851 8.9544,7.6301 C8.8954,7.6821 8.8604,7.7561 8.8584,7.8341 C8.8554,7.9121 8.8854,7.9891 8.9404,8.0441 L12.7414,11.8451 C12.7964,11.8991 12.8684,11.9281 12.9414,11.9281 C13.0054,11.9281 13.0704,11.9061 13.1234,11.8621 C15.3504,10.0041 18.0474,8.8841 20.9234,8.6241 C21.0694,8.6111 21.1814,8.4881 21.1814,8.3421 L21.1814,2.9651 C21.1814,2.8861 21.1494,2.8111 21.0914,2.7581 C21.0394,2.7081 20.9694,2.6811 20.8984,2.6811 C20.8914,2.6811 20.8854,2.6821 20.8794,2.6821 Z M23.5344,2.6811 C23.4634,2.6811 23.3944,2.7081 23.3414,2.7581 C23.2834,2.8111 23.2514,2.8861 23.2514,2.9651 L23.2514,8.3421 C23.2514,8.4881 23.3624,8.6111 23.5094,8.6241 C26.3854,8.8841 29.0824,10.0041 31.3094,11.8621 C31.3614,11.9061 31.4264,11.9281 31.4904,11.9281 C31.5644,11.9281 31.6364,11.8991 31.6914,11.8451 L35.4914,8.0441 C35.5474,7.9891 35.5774,7.9121 35.5744,7.8341 C35.5714,7.7561 35.5374,7.6821 35.4784,7.6301 C32.1174,4.6851 27.9944,2.9741 23.5534,2.6821 C23.5474,2.6821 23.5404,2.6811 23.5344,2.6811 Z M7.2674,9.4251 C7.1894,9.4271 7.1154,9.4621 7.0634,9.5211 C4.1184,12.8821 2.4074,17.0051 2.1154,21.4461 C2.1094,21.5241 2.1374,21.6011 2.1914,21.6591 C2.2444,21.7161 2.3194,21.7481 2.3984,21.7481 L7.7754,21.7481 C7.9214,21.7481 8.0444,21.6361 8.0574,21.4901 C8.3174,18.6151 9.4374,15.9171 11.2954,13.6901 C11.3884,13.5771 11.3814,13.4111 11.2774,13.3081 L7.4774,9.5071 C7.4234,9.4541 7.3524,9.4241 7.2764,9.4241 C7.2744,9.4241 7.2704,9.4251 7.2674,9.4251 Z M37.1554,9.4241 C37.0804,9.4241 37.0084,9.4541 36.9554,9.5071 L33.1544,13.3071 C33.0514,13.4111 33.0434,13.5771 33.1374,13.6901 C34.9954,15.9171 36.1144,18.6151 36.3754,21.4901 C36.3884,21.6361 36.5114,21.7481 36.6574,21.7481 L42.0344,21.7481 C42.1124,21.7481 42.1884,21.7161 42.2414,21.6591 C42.2954,21.6011 42.3224,21.5241 42.3174,21.4461 C42.0254,17.0051 40.3144,12.8821 37.3684,9.5211 C37.3164,9.4621 37.2434,9.4271 37.1654,9.4251 C37.1614,9.4251 37.1584,9.4241 37.1554,9.4241 Z M22.2164,10.6341 C15.5174,10.6341 10.0674,16.0841 10.0674,22.7831 C10.0674,29.4821 15.5174,34.9321 22.2164,34.9321 C28.9154,34.9321 34.3644,29.4821 34.3644,22.7831 C34.3644,16.0841 28.9154,10.6341 22.2164,10.6341 Z M2.3984,23.8171 C2.3194,23.8171 2.2444,23.8491 2.1914,23.9071 C2.1374,23.9641 2.1094,24.0411 2.1154,24.1191 C2.4074,28.5601 4.1184,32.6841 7.0634,36.0451 C7.1154,36.1041 7.1894,36.1391 7.2674,36.1411 L7.2764,36.1411 C7.3524,36.1411 7.4234,36.1121 7.4774,36.0581 L11.2774,32.2581 C11.3814,32.1541 11.3884,31.9881 11.2954,31.8761 C9.4374,29.6491 8.3174,26.9521 8.0574,24.0751 C8.0444,23.9291 7.9214,23.8171 7.7754,23.8171 L2.3984,23.8171 Z M36.6574,23.8171 C36.5114,23.8171 36.3884,23.9291 36.3754,24.0751 C36.1144,26.9511 34.9954,29.6491 33.1374,31.8761 C33.0434,31.9881 33.0514,32.1541 33.1544,32.2581 L36.9554,36.0581 C37.0084,36.1121 37.0804,36.1411 37.1554,36.1411 L37.1654,36.1411 C37.2434,36.1391 37.3164,36.1041 37.3684,36.0451 C40.3144,32.6841 42.0254,28.5601 42.3174,24.1191 C42.3224,24.0411 42.2954,23.9641 42.2414,23.9071 C42.1884,23.8491 42.1124,23.8171 42.0344,23.8171 L36.6574,23.8171 Z M12.9414,33.6391 C12.8684,33.6391 12.7964,33.6661 12.7404,33.7221 L8.9404,37.5221 C8.8854,37.5781 8.8554,37.6531 8.8584,37.7321 C8.8604,37.8101 8.8954,37.8841 8.9544,37.9351 C12.3164,40.8821 16.4394,42.5931 20.8794,42.8851 L20.8984,42.8851 C20.9694,42.8851 21.0394,42.8571 21.0914,42.8081 C21.1494,42.7551 21.1814,42.6801 21.1814,42.6011 L21.1814,37.2241 C21.1814,37.0781 21.0694,36.9551 20.9234,36.9421 C18.0474,36.6821 15.3504,35.5621 13.1234,33.7041 C13.0704,33.6601 13.0054,33.6391 12.9414,33.6391 Z M31.4904,33.6391 C31.4264,33.6391 31.3614,33.6601 31.3094,33.7041 C29.0834,35.5621 26.3864,36.6821 23.5094,36.9421 C23.3624,36.9551 23.2514,37.0781 23.2514,37.2241 L23.2514,42.6011 C23.2514,42.6801 23.2834,42.7551 23.3414,42.8081 C23.3944,42.8571 23.4634,42.8851 23.5344,42.8851 L23.5534,42.8851 C27.9924,42.5931 32.1164,40.8821 35.4784,37.9351 C35.5374,37.8841 35.5714,37.8101 35.5744,37.7321 C35.5774,37.6531 35.5474,37.5781 35.4914,37.5221 L31.6914,33.7221 C31.6364,33.6661 31.5644,33.6391 31.4904,33.6391 Z M22.2164,45.0001 C9.9664,45.0001 0.0004,35.0331 0.0004,22.7831 C0.0004,10.5331 9.9664,0.5671 22.2164,0.5671 C34.4664,0.5671 44.4334,10.5331 44.4334,22.7831 C44.4334,35.0331 34.4664,45.0001 22.2164,45.0001 Z" id="Fill-1"></path>
                <path d="M22.2163,26.7383 C21.4893,26.7383 20.8983,26.1463 20.8983,25.4203 L18.2613,25.4203 C18.2613,27.1383 19.3633,28.6033 20.8983,29.1483 L20.8983,32.0113 L23.5343,32.0113 L23.5343,29.1483 C25.0693,28.6033 26.1713,27.1383 26.1713,25.4203 C26.1713,23.2393 24.3973,21.4653 22.2163,21.4653 C21.4893,21.4653 20.8983,20.8733 20.8983,20.1463 C20.8983,19.4193 21.4893,18.8283 22.2163,18.8283 C22.9433,18.8283 23.5343,19.4193 23.5343,20.1463 L26.1713,20.1463 C26.1713,18.4273 25.0693,16.9623 23.5343,16.4183 L23.5343,13.5543 L20.8983,13.5543 L20.8983,16.4183 C19.3633,16.9623 18.2613,18.4273 18.2613,20.1463 C18.2613,22.3273 20.0353,24.1013 22.2163,24.1013 C22.9433,24.1013 23.5343,24.6933 23.5343,25.4203 C23.5343,26.1463 22.9433,26.7383 22.2163,26.7383" id="Fill-4"></path>
            </g>
        </g>
    </g>
</svg>