<?xml version="1.0" encoding="UTF-8"?>
<svg width="13px" height="13px" viewBox="0 0 13 13" version="1.1" xmlns="http://www.w3.org/2000/svg" xmlns:xlink="http://www.w3.org/1999/xlink">
    <!-- Generator: Sketch 51.3 (57544) - http://www.bohemiancoding.com/sketch -->
    <title>Combined Shape</title>
    <desc>Created with Sketch.</desc>
    <defs>
        <linearGradient x1="50%" y1="0%" x2="50%" y2="100%" id="linearGradient-1">
            <stop stop-color="#279EDD" offset="0%"></stop>
            <stop stop-color="#145EAA" offset="100%"></stop>
        </linearGradient>
    </defs>
    <g id="Mobile_Final" stroke="none" stroke-width="1" fill="none" fill-rule="evenodd">
        <g id="10_bet_w_m_r31" transform="translate(-10.000000, -204.000000)" fill="url(#linearGradient-1)">
            <g id="Group-4" transform="translate(0.000000, 196.000000)">
                <path d="M11.6956537,12.437418 L11.6956537,14.8890147 C11.2021868,14.7101594 10.8478098,14.2282028 10.8478098,13.6632423 C10.8478098,13.0982818 11.2021868,12.6162992 11.6956537,12.437418 M11.7637006,15.7968914 C10.7641477,15.6230974 9.99999121,14.7338044 9.99999121,13.6632423 C9.99999121,12.5926543 10.7641477,11.7033873 11.7637006,11.5295932 C11.9299585,11.0093271 12.4036207,10.6298923 12.9673943,10.6298923 L13.5326151,10.6298923 C14.0451504,10.6298923 14.5664455,10.6048977 15.0869534,10.5595545 L15.0869534,16.7669301 C14.5664455,16.7215869 14.0451504,16.6965923 13.5326151,16.6965923 L12.9673943,16.6965923 C12.4036207,16.6965923 11.9299585,16.3171575 11.7637006,15.7968914 Z M12.9673918,17.5632345 L13.5326126,17.5632345 C14.1696889,17.5632345 14.8203239,17.6034905 15.4643826,17.6757749 L15.7680799,19.5380655 C15.8953378,20.318244 15.3062244,21.0299016 14.5316578,21.0299016 C13.9090287,21.0299016 13.3816399,20.5743151 13.2778684,19.9465698 L12.8827902,17.5588481 C12.9111007,17.560016 12.9388527,17.5632345 12.9673918,17.5632345 Z M22.1521683,8.02989841 C22.6204223,8.02989841 23.0000122,8.41789831 23.0000122,8.89655871 L23.0000122,18.4298999 C23.0000122,18.9085863 22.6204223,19.2965862 22.1521683,19.2965862 C21.6839396,19.2965862 21.3043497,18.9085863 21.3043497,18.4298999 L21.3043497,8.89655871 C21.3043497,8.41789831 21.6839396,8.02989841 22.1521683,8.02989841 Z M20.456526,9.26795267 L20.456526,18.0584904 C18.9785628,17.5403786 17.9528828,17.1297979 15.9347847,16.8614501 L15.9347847,10.464967 C17.9612364,10.1955551 18.9893538,9.78227511 20.456526,9.26795267 Z" id="Combined-Shape"></path>
            </g>
        </g>
    </g>
</svg>