<svg viewBox="0 0 32 32" xmlns="http://www.w3.org/2000/svg"><g fill="#fff"><path d="m26.90918 32h-22.30957a1.00527 1.00527 0 0 1 -.32031-.05225 5.14681 5.14681 0 0 1 -4.2793-5.17382v-25.77393a1 1 0 0 1 2 0v25.77393a3.15994 3.15994 0 0 0 2.83691 3.22168 3.00341 3.00341 0 0 0 2.22754-.81885 2.97266 2.97266 0 0 0 .93555-2.17676v-17a.99974.99974 0 0 1 1-1h22a.99974.99974 0 0 1 1 1v16.90918a5.09685 5.09685 0 0 1 -5.09082 5.09082zm-17.91018-2h17.91018a3.09456 3.09456 0 0 0 3.09082-3.09082v-15.90918h-20v16a5.02809 5.02809 0 0 1 -1.001 3z"/><path d="m23 11a.99974.99974 0 0 1 -1-1v-9a1 1 0 0 1 2 0v9a.99974.99974 0 0 1 -1 1z"/><circle cx="3.99999" cy="1.00018" r="1"/><circle cx="7.19999" cy="1.00018" r="1"/><circle cx="10.4" cy="1.00018" r="1"/><circle cx="13.6" cy="1.00018" r="1"/><path d="m26 17h-12a1 1 0 0 1 0-2h12a1 1 0 0 1 0 2z"/><path d="m26 21h-12a1 1 0 0 1 0-2h12a1 1 0 0 1 0 2z"/><path d="m26 25h-12a1 1 0 0 1 0-2h12a1 1 0 0 1 0 2z"/><circle cx="16.8" cy="1.00018" r="1"/><circle cx="20" cy="1.00018" r="1"/></g></svg>