<?xml version="1.0" encoding="utf-8"?>
<!-- Generator: Adobe Illustrator 22.1.0, SVG Export Plug-In . SVG Version: 6.00 Build 0)  -->
<svg version="1.1" id="Layer_1" xmlns="http://www.w3.org/2000/svg" xmlns:xlink="http://www.w3.org/1999/xlink" x="0px" y="0px"
	 viewBox="0 0 96 96" style="enable-background:new 0 0 96 96;" xml:space="preserve">
<style type="text/css">
	.st0{fill:#FFFFFF;}
</style>
<g id="Layer_2_1_">
	<g>
		<path class="st0" d="M15.3,57.5h-3.2c0.1,0.5,0.3,0.9,0.4,1.4c0.2,0.5,0.3,0.9,0.4,1.4H9.6l-1-2.8H0V36.4h17.9v18.5L15.3,57.5z
			 M14.5,39.8H3.4v14.5h11.1V39.8z"/>
		<path class="st0" d="M38.1,57.5h-3.2c0.1,0.5,0.3,0.9,0.4,1.4s0.3,0.9,0.4,1.4h-3.3l-1-2.8h-8.6V36.4h17.9v18.5L38.1,57.5z
			 M37.3,39.8H26.2v14.5h11.1V39.8z"/>
		<path class="st0" d="M46.4,42.2h6.6v2.6h-3v3.1h3.3v2.6h-3.3v4.2l3.3-1.1v2.9L45.8,59l1.2-3.5v-5h-2.9l1.3-2.6H47v-3.1h-2.4
			L46.4,42.2z M45,41.6v-4.8l2.9-1.6v1.9h5.4v2.6h-5.4v1.9H45z M59.4,45.7l-0.5-2.9l-4.4,0.8v-2.8l3.9-0.7l-0.9-4.7h3l0.8,4.1
			l6.1-1.1v2.8l-5.6,1l0.5,2.8l6.1-1.3v2.8l-5.6,1.2l0.5,2.8l4.8-2.3v3.1l-4.3,2.1l0.5,2.9h4.1l-1.3,2.6h-5.4l-0.8-4.1l-6.6,3.1
			v-3.1l6-2.9l-0.6-3.4l-5.8,1.3v-2.9L59.4,45.7z M66.6,35.5v1.6l-2.9,1.6v-3.2H66.6z"/>
		<path class="st0" d="M91.7,49.4v-9.7H75.9v1.5l-3.3,1.3v-7.3h3.3v1.7h19v15.2h-7.6l2.3-2.8L91.7,49.4L91.7,49.4z M93.9,58.9H73.7
			V42.6H88v6.5l-2.7,2.8h-8.7v4.3H96L93.9,58.9z M76.6,49.2h8.5v-3.9h-8.5V49.2z"/>
	</g>
</g>
</svg>
