<?xml version="1.0" encoding="UTF-8"?>
<svg width="40px" height="40px" viewBox="0 0 40 40" version="1.1" xmlns="http://www.w3.org/2000/svg" xmlns:xlink="http://www.w3.org/1999/xlink">
    <!-- Generator: Sketch 51.3 (57544) - http://www.bohemiancoding.com/sketch -->
    <title>Group 3</title>
    <desc>Created with Sketch.</desc>
    <defs>
        <linearGradient x1="28.5032777%" y1="7.35967727%" x2="89.7615279%" y2="108.365013%" id="linearGradient-1">
            <stop stop-color="#FFFFFF" offset="0%"></stop>
            <stop stop-color="#FFFFFF" stop-opacity="0.447633605" offset="100%"></stop>
        </linearGradient>
    </defs>
    <g id="Symbols" stroke="none" stroke-width="1" fill="none" fill-rule="evenodd">
        <g id="icon/Sport" transform="translate(-10.000000, -12.000000)" fill="url(#linearGradient-1)">
            <g id="Group-3" transform="translate(10.000000, 12.000000)">
                <path d="M34.1845312,16.7102344 C32.6983594,18.9441406 30.8944531,20.4828125 28.9452344,21.2189062 C29.2842969,20.6628906 29.6111719,20.0723437 29.9236719,19.4473437 C31.8859375,15.523125 33.1411719,10.5792187 33.5641406,5.23078125 L37.6314844,5.23078125 C37.4475,9.58164062 36.2399219,13.6215625 34.1845312,16.7102344 Z M22.6919531,24.401875 C22.6391406,24.4235156 22.5884375,24.4497656 22.5399219,24.4788281 C21.7117187,24.8907812 20.8605469,25.1040625 20,25.1040625 C19.1396875,25.1040625 18.2888281,24.8907812 17.4609375,24.479375 C17.4117969,24.4497656 17.3607813,24.4235156 17.3074219,24.40125 C16.3885156,23.9154687 15.4995313,23.1817969 14.65875,22.2177344 C14.6145312,22.1546094 14.5647656,22.09625 14.5095312,22.0432031 C13.6749219,21.0522656 12.8896875,19.8334375 12.1725,18.3990625 C10.0189063,14.0921094 8.775,8.42898437 8.63335937,2.34375 L31.3665625,2.34375 C31.2246094,8.42898437 29.9807031,14.0924219 27.8274219,18.3990625 C27.1102344,19.8334375 26.325,21.0522656 25.4907031,22.0432031 C25.4351562,22.09625 25.3847656,22.1548437 25.3408594,22.2180469 C24.5000781,23.1824219 23.6107813,23.9157031 22.6919531,24.401875 Z M21.9661719,31.38 L18.03375,31.38 L18.03375,27.19 C18.6779688,27.3596094 19.334375,27.4478125 20,27.4478125 C20.6655469,27.4478125 21.3219531,27.3596094 21.9661719,27.19 L21.9661719,31.38 Z M28.2421094,35.69 L28.2421094,37.65625 L11.7578125,37.65625 L11.7578125,35.69 C11.7578125,34.6060156 12.6397656,33.72375 13.7239844,33.72375 L26.2759375,33.72375 C27.3601563,33.72375 28.2421094,34.6060156 28.2421094,35.69 Z M5.81539062,16.7102344 C3.76,13.6215625 2.55242187,9.58164062 2.3684375,5.23078125 L6.43578125,5.23078125 C6.85851562,10.5792187 8.11398437,15.523125 10.07625,19.4473437 C10.38875,20.0723437 10.715625,20.6628906 11.0546875,21.2189062 C9.10546875,20.4828125 7.3015625,18.9441406 5.81539062,16.7102344 Z M38.828125,2.88703125 L33.695,2.88703125 C33.7136719,2.3184375 33.7239844,1.7465625 33.7239844,1.171875 C33.7239844,0.524609375 33.1991406,0 32.5521094,0 L7.4478125,0 C6.80078125,0 6.2759375,0.524609375 6.2759375,1.171875 C6.2759375,1.7465625 6.28625,2.3184375 6.30492188,2.88703125 L1.171875,2.88703125 C0.52453125,2.88703125 0,3.4115625 0,4.05890625 C0,9.3096875 1.37234375,14.2636719 3.8640625,18.0084375 C6.3271875,21.7105469 9.608125,23.8339844 13.1524219,24.0405469 C13.9559375,24.9149219 14.8052344,25.6278125 15.69,26.1715625 L15.69,31.38 L13.7239844,31.38 C11.3473437,31.38 9.4140625,33.3135938 9.4140625,35.69 L9.4140625,37.6559375 L9.33070312,37.6559375 C8.6834375,37.6559375 8.15882812,38.1808594 8.15882812,38.8278125 C8.15882812,39.4751562 8.6834375,39.9996875 9.33070312,39.9996875 L30.6692188,39.9996875 C31.3164844,39.9996875 31.8410938,39.4751562 31.8410938,38.8278125 C31.8410938,38.1808594 31.3164844,37.6559375 30.6692188,37.6559375 L30.5858594,37.6559375 L30.5858594,35.69 C30.5858594,33.3135938 28.6525781,31.38 26.2759375,31.38 L24.3099219,31.38 L24.3099219,26.1715625 C25.1946875,25.6280469 26.0442969,24.9149219 26.8478125,24.0405469 C30.3917969,23.8339844 33.6727344,21.7105469 36.1360938,18.0084375 C38.6278906,14.2636719 40,9.3096875 40,4.05890625 C40,3.4115625 39.4753906,2.88703125 38.828125,2.88703125 Z" id="Fill-1"></path>
                <path d="M22.6584634,12.7291463 C22.4683415,12.9145122 22.3816341,13.1812195 22.427,13.4431707 L22.917122,16.3004878 L20.3509024,14.9514634 C20.1160244,14.8280488 19.8354146,14.8280488 19.6006585,14.9514634 L17.034439,16.3004878 L17.524561,13.4428049 C17.5693171,13.1812195 17.4826098,12.9145122 17.2926098,12.7291463 L15.2165122,10.7054878 L18.0857805,10.2886585 C18.3482195,10.2506098 18.5754146,10.0857317 18.6926098,9.84756098 L19.9760244,7.24804878 L21.2588293,9.84756098 C21.3765122,10.0857317 21.6033415,10.2506098 21.8662683,10.2886585 L24.7349268,10.7054878 L22.6584634,12.7291463 Z M27.234439,9.89280488 C27.1401707,9.60134146 26.8877317,9.38829268 26.5838293,9.34402439 L22.5174878,8.75329268 L20.6987073,5.06817073 C20.5628537,4.79280488 20.2823659,4.61890244 19.9755366,4.61890244 C19.6687073,4.61890244 19.3880976,4.79329268 19.2523659,5.06817073 L17.4335854,8.75329268 L13.3672439,9.34402439 C13.0633415,9.38829268 12.8109024,9.60085366 12.7160244,9.89280488 C12.6212683,10.184878 12.7004146,10.5053659 12.9199268,10.7197561 L15.8624878,13.5880488 L15.1679756,17.6381707 C15.1165122,17.9406098 15.2409024,18.2464634 15.4890732,18.4270732 C15.7372439,18.6070732 16.0663902,18.6313415 16.3384634,18.4885366 L19.9755366,16.5758537 L23.6126098,18.4885366 C23.7307805,18.5503659 23.859439,18.5808537 23.9879756,18.5808537 C24.1551707,18.5808537 24.3215122,18.5290244 24.462,18.4270732 C24.7101707,18.2464634 24.834561,17.9406098 24.7826098,17.6381707 L24.0880976,13.5880488 L27.0306585,10.7197561 C27.2501707,10.5053659 27.3293171,10.184878 27.234439,9.89280488 Z" id="Fill-4"></path>
            </g>
        </g>
    </g>
</svg>