<svg height="96" viewBox="0 0 96 96" width="96" xmlns="http://www.w3.org/2000/svg"><path d="m71.303623 61.55893c-.923694.92143-2.44394.92143-3.372444 0l-46.420421-46.066704-17.4058532 17.263675c-.9381265.930978-2.4583724.930978-3.40130974 0-.93812644-.930978-.93812644-2.43964 0-3.370618l19.00307394-18.858274c.01924-.02387.04811-.02864.07697-.04774.0048-.0095.0048-.02865.0096-.03819.928505-.9214298 2.439129-.9214298 3.372445 0l48.137913 47.775884c.928505.92143.928505 2.420543 0 3.341973" fill="#db0100" transform="matrix(1.3333333 0 0 -1.3333333 0 96.000001)"/></svg>