<?xml version="1.0" encoding="utf-8"?>
<!-- Generator: Adobe Illustrator 22.1.0, SVG Export Plug-In . SVG Version: 6.00 Build 0)  -->
<svg version="1.1" id="Layer_1" xmlns="http://www.w3.org/2000/svg" xmlns:xlink="http://www.w3.org/1999/xlink" x="0px" y="0px"
	 viewBox="0 0 96 96" style="enable-background:new 0 0 96 96;" xml:space="preserve">
<style type="text/css">
	.st0{fill:#FFFFFF;}
</style>
<g>
	<path class="st0" d="M56.2,57.4l0.3-0.9h-4.4l-0.3,0.9h3.8C56.1,57.4,56.2,57.4,56.2,57.4z"/>
	<path class="st0" d="M57.1,54.7l0.3-1H53l-0.6,2.1c0,0,0.9-0.8,2.3-1C55,54.6,57.1,54.7,57.1,54.7z"/>
	<polygon class="st0" points="63.2,63.2 65.5,63.2 66.1,61.1 63.9,61.1 	"/>
	<path class="st0" d="M72.7,46.3c0.3,0,0.9-0.2,1.2-0.6c0.1-0.2,0.3-0.4,0.4-0.8c0.1-0.4,0.2-0.8,0.3-1.2c0.1-0.3,0.1-0.6,0.2-0.8
		c0.1-0.9-0.3-1.5-0.9-1.5c-1,0-1.3,1.2-1.7,2.5c-0.1,0.5-0.2,0.9-0.2,1.4C72,46.3,72.6,46.3,72.7,46.3z"/>
	<path class="st0" d="M42.5,46.2c0.3,0,0.7-0.2,0.9-0.6c0.4-0.5,0.7-1.7,0.7-2c0.3-1.4,0.3-2.3-0.5-2.3c-1,0-1.3,1.2-1.7,2.6
		c-0.1,0.5-0.2,0.9-0.2,1.4C41.8,46.2,42.4,46.2,42.5,46.2z"/>
	<path class="st0" d="M65.6,40.1c0.8-0.4,1.4-1.2,1.6-2.2c0.2-1.1-0.1-1.9-0.9-2.2c0,0-2.1-0.2-2.1-0.2l-0.4,0l0,0.2l0,0.2
		c0,0-1,4.3-1,4.3l0,0.2h0.5C64.2,40.5,65,40.5,65.6,40.1z"/>
	<path class="st0" d="M64.3,59.8c0,0,0.9-0.4,1.3-0.6c0.5-0.1,1.2-0.2,1.2-0.2l0.6-1.8H65L64.3,59.8z"/>
	<path class="st0" d="M66.2,53.6L65.4,56c0,0,0.8-0.4,1.3-0.5c0.5-0.1,1.2-0.2,1.2-0.2l0.6-1.8H66.2z"/>
	<path class="st0" d="M91.2,18.2H68.3h-1.1H42.7h-2H18.8c-3.3,0-6.7,2.7-7.5,6.1L0.2,72.2c-0.8,3.3,1.3,6.1,4.6,6.1h22h2h24.5h1.1
		h22.9c3.3,0,6.7-2.7,7.5-6.1l11.2-47.9C96.6,20.9,94.5,18.2,91.2,18.2z M74.1,39.6c0.5,0.2,0.8,0.5,1.1,0.9c0-0.1,0-0.2,0-0.3
		l0.1-0.1c1.4-0.2,1.9-0.3,3.3-0.6l0,0.1c-0.3,1.1-0.6,2.3-0.8,3.4c-0.6,2.4-0.8,3.6-1,4.9L76.8,48c-1.4,0-1.9,0-3.2,0l-0.1-0.1
		c0-0.2,0.1-0.3,0.1-0.5c-0.5,0.4-1,0.7-1.6,0.7c-0.6,0-1.1,0-1.7-0.3c-1.9-0.7-1.6-2.8-1.3-3.9c0.2-1.1,0.7-2.3,1.6-3.1
		C71.9,39.7,73.4,39.4,74.1,39.6z M59.9,38.3l0.9-4.3c0,0,0.1-0.3,0.1-0.5c0.4,0.1,1.5,0.1,4.1,0h1c2,0,3.8,0,4.7,1.3
		c0.3,0.5,0.5,1.1,0.5,1.7c0,0.4-0.1,0.9-0.2,1.3c-0.4,1.6-1.2,2.9-2.3,3.7c-1.7,1.3-4,1.3-5.9,1.3h-0.2c-0.1,0.1-0.3,0.3-0.3,0.3
		c0,0.1-0.5,2-0.5,2s-0.5,2.6-0.6,3c-0.4,0-1.3,0-3.6,0C57.6,47.5,59.9,38.3,59.9,38.3z M48.3,44.9c0.6-2.6,0.7-3.7,0.9-5l0.1-0.1
		c1.4-0.2,1.7-0.2,3.2-0.6l0.1,0.1l-0.2,0.8c0.2-0.1,0.5-0.3,0.8-0.4c0.7-0.3,1.5-0.4,1.9-0.4c0.7,0,1.4,0.2,1.7,1
		c0.3,0.7,0.1,1.5-0.3,3.2l-0.2,0.8c-0.4,1.8-0.4,2.2-0.7,3.4l-0.1,0.1c-1.2,0-1.6,0-3,0.1l-0.1-0.1c0.1-0.5,0.3-1.1,0.4-1.6
		l0.2-0.7c0.3-1.1,0.5-2.5,0.6-2.9c0-0.2,0.1-0.9-0.6-0.9c-0.3,0-0.6,0.1-0.9,0.3c-0.2,0.6-0.5,2.3-0.7,3.1
		c-0.3,1.6-0.4,1.8-0.5,2.6l-0.1,0.1c-1.2,0-1.7,0-3.1,0.1l-0.1-0.1C47.8,46.9,48,45.9,48.3,44.9z M49.5,52.6l-0.6,1.9h-4.3
		l-0.5,0.4c-0.2,0.2-0.3,0.1-0.5,0.2c-0.2,0.1-0.8,0.4-1.4,0.4h-1.4l0.6-1.8h0.4c0.3,0,0.6,0,0.7-0.1c0.1-0.1,0.3-0.3,0.4-0.6
		l0.8-1.4h3.1l-0.6,1L49.5,52.6L49.5,52.6z M22.7,42.6c-0.4,1.5-0.9,3.2-2.8,4.3c-1.1,0.7-2.7,1-4.3,1c-1.3,0-3.6-0.2-4.4-1.6
		c-0.2-0.4-0.4-1-0.4-1.6l0.3-2.2l0.1-0.7L13,34c0,0,0.1-0.4,0.1-0.5c0,0.1,0.7,0.1,4,0.1c0,0,0,0.1,0,0.1c-0.3,0.9-2,7.9-2,7.9
		c0,0-0.3,2.1-0.3,2.1l0,0.3c0.1,1,0.7,1.6,1.8,1.6c0.7,0,1.3-0.2,1.8-0.6c0.9-0.7,1.1-1.8,1.5-3.4c0,0,1.7-7.7,1.8-8.1
		c0.2,0.1,1,0.1,3.4,0.1c0,0,0,0.1,0,0.1c-0.3,0.9-2.1,8.2-2.1,8.2L22.7,42.6z M32.6,43.5l-0.2,0.8c-0.4,1.8-0.4,2.2-0.7,3.4
		l-0.1,0.1c-1.2,0-1.6,0-3,0.1l-0.1-0.1c0.1-0.5,0.2-1.1,0.4-1.6l0.2-0.7c0.3-1.1,0.5-2.5,0.6-2.9c0-0.2,0.1-0.9-0.6-0.9
		c-0.3,0-0.6,0.1-0.9,0.3c-0.2,0.6-0.5,2.3-0.7,3.1c-0.3,1.6-0.4,1.8-0.5,2.6l-0.1,0.1c-1.2,0-1.7,0-3.1,0.1l-0.1-0.1
		c0.2-1,0.5-2,0.7-2.9c0.6-2.6,0.7-3.7,0.9-5l0.1-0.1c1.4-0.2,1.7-0.2,3.2-0.6l0.1,0.1l-0.2,0.8c0.3-0.1,0.5-0.3,0.8-0.4
		c0.7-0.3,1.5-0.4,1.9-0.4c0.7,0,1.4,0.2,1.7,1C33.1,41,33,41.9,32.6,43.5z M37.6,43c-0.1,0.6-0.3,1.1-0.4,1.7
		c-0.3,1.2-0.4,1.7-0.4,2c-0.1,0.3-0.1,0.5-0.2,1.1l-0.1,0.1l-0.1,0.1c-0.7,0-1.2,0-1.7,0c-0.4,0-0.9,0-1.6,0.1l0-0.1l0-0.1
		c0.2-0.7,0.3-0.9,0.4-1.2c0.1-0.2,0.2-0.5,0.3-1.2c0.2-0.9,0.3-1.6,0.4-2.1c0.1-0.6,0.1-1,0.2-1.5l0.1,0l0.1-0.1
		c0.7-0.1,1.2-0.2,1.7-0.2c0.5-0.1,1-0.2,1.7-0.3l0,0.1l0,0.1C37.9,41.8,37.8,42.4,37.6,43z M37.8,40.5c-0.8,0.6-2,0.7-2.7,0.3
		c-0.7-0.4-0.6-1.2,0.2-1.7c0.8-0.6,2-0.7,2.7-0.3C38.7,39.2,38.6,39.9,37.8,40.5z M38.9,43.8c0.3-1.1,0.7-2.3,1.6-3.1
		c1.3-1.2,2.9-1.3,3.6-1.3c1.1,0,2.3,0.3,2.9,1.1c0.4,0.5,0.7,1.4,0.3,3.2c-0.1,0.6-0.5,1.9-1.3,2.8c-1.1,1.1-2.5,1.5-3.9,1.5
		c-0.5,0-1.4-0.1-2-0.3C38.3,47,38.6,45,38.9,43.8z M45.4,65.9h-3.5c-0.3,0-0.5,0-0.8-0.1c-0.3-0.1-0.4-0.2-0.6-0.4
		s-0.3-0.4-0.2-0.8l1-3.3h-1.7l0.6-1.9h1.7l0.5-1.5h-1.7l0.6-1.8h7.6l-0.6,1.8h-3.1l-0.5,1.5h3.1l-0.6,1.9h-3.1l-0.8,2.5
		c-0.1,0.3,0.7,0.3,1,0.3l1.6-0.2L45.4,65.9z M51.7,65.9h-2.1c-0.7,0-1.1,0-1.5,0c-0.3,0-0.7,0-0.9-0.2c-0.2-0.2-0.5-0.4-0.5-0.6
		c0-0.2,0.1-0.6,0.2-1l3.7-12.4h2.7l-0.4,1.3c0,0,0.8-0.7,1.4-0.9c0.6-0.2,1.9-0.4,1.9-0.4l4.3,0l-1.5,4.9c-0.2,0.8-0.5,1.4-0.7,1.6
		c-0.2,0.2-0.3,0.5-0.7,0.7c-0.4,0.2-0.7,0.3-1,0.3c-0.3,0-0.7,0-1.3,0h-4.2l-1.2,3.9c-0.1,0.4-0.2,0.6-0.1,0.7
		c0.1,0.1,0.2,0.2,0.4,0.2l1.8-0.2L51.7,65.9z M58.4,60.7c-0.1,0.4-0.2,0.7-0.5,0.9c-0.3,0.2-0.6,0.5-1.4,0.5L55,62.1l0,1.3
		c0,0.4,0.1,0.3,0.1,0.4c0.1,0.1,0.1,0.1,0.2,0.1l0.5,0l1.4-0.1l-0.6,1.9H55c-1.1,0-2,0-2.3-0.2c-0.3-0.2-0.3-0.4-0.3-0.8l0.1-5.2
		h2.6l0,1.1h0.6c0.2,0,0.4,0,0.4-0.1c0.1-0.1,0.1-0.1,0.2-0.3l0.3-0.8h2L58.4,60.7z M67.4,65.8h-2.8l0.2-0.6h-5.6l0.6-1.9h0.6l3-9.8
		l0.6-2h2.8l-0.3,1c0,0,0.8-0.6,1.5-0.7c0.6-0.2,3.5-0.2,4.5-0.2l0,0h3l0,1.1c0,0.2,0.1,0.3,0.5,0.3h0.6L76,54.9h-1.6
		c-1.4,0.1-2-0.5-1.9-1.2l0-1.1l-0.3,1h-1l-2.9,9.7H69l-0.6,2h-0.8L67.4,65.8z M80,57.2h-3l-0.5,1.5h3L79,60.4h-3.3l-0.6,0.7h1.3
		l0.3,2.1c0,0.2,0,0.3,0.1,0.4s0.5,0.1,0.7,0.1H78l-0.6,2h-1c-0.2,0-0.4,0-0.7,0c-0.3,0-0.5-0.2-0.7-0.3c-0.2-0.1-0.5-0.3-0.5-0.7
		l-0.3-2.1l-1.5,2.1c-0.5,0.7-1.1,1.1-2.2,1.1h-2.1l0.6-1.8h0.8c0.2,0,0.4-0.1,0.6-0.2c0.1-0.1,0.3-0.1,0.4-0.4l2.2-3.1H70l0.5-1.7
		h3.3l0.5-1.5h-3.3l0.6-1.9h9.1L80,57.2z M81.9,51.5l-0.1,0.1h0l-1.2,2c-0.4,0.7-1.1,1.2-2.1,1.2l-1.9,0l0.6-1.8h0.4
		c0.2,0,0.3,0,0.4-0.1c0.1,0,0.2-0.1,0.2-0.2l0.7-1v0c0.9-1.4,1.2-2,2.1-3.6c-0.2-1.8-0.2-2.4-0.4-3.5c-0.1-0.7-0.2-1.4-0.3-2.1
		c-0.2-1.4-0.1-1.2-0.3-2.2v0c0-0.1,0-0.1,0-0.2l0.1-0.1c1.4-0.2,1.5-0.2,3-0.5l0.1,0.1l0.2,4c0,0.1,0,0.1,0,0.2
		c0.8-1.9,0.8-1.3,1.8-3.7v0c0,0,0,0,0-0.1l0.1-0.1c1.4-0.2,1.6-0.2,3.1-0.5l0.1,0.1C88.7,39.5,82.7,49.8,81.9,51.5z"/>
</g>
</svg>
