<?xml version="1.0" encoding="UTF-8"?>
<svg width="42px" height="41px" viewBox="0 0 42 41" version="1.1" xmlns="http://www.w3.org/2000/svg" xmlns:xlink="http://www.w3.org/1999/xlink">
    <!-- Generator: Sketch 51.3 (57544) - http://www.bohemiancoding.com/sketch -->
    <title>Group 10</title>
    <desc>Created with Sketch.</desc>
    <defs>
        <linearGradient x1="22.9817708%" y1="7.01822917%" x2="75.9483507%" y2="93.4592014%" id="linearGradient-1">
            <stop stop-color="#FFFFFF" offset="0%"></stop>
            <stop stop-color="#FFFFFF" stop-opacity="0.447633605" offset="100%"></stop>
        </linearGradient>
    </defs>
    <g id="Symbols" stroke="none" stroke-width="1" fill="none" fill-rule="evenodd">
        <g id="icon/VIP" transform="translate(-9.000000, -10.000000)" fill="url(#linearGradient-1)">
            <g id="Group-10" transform="translate(9.000000, 10.000000)">
                <path d="M32.1102395,25.3116176 C31.9538151,25.523359 31.8705322,25.7797639 31.8729907,26.0428273 L31.9721517,37.2294761 L21.3637712,33.67812 C21.2393078,33.63612 21.1092102,33.6153249 20.9796249,33.6153249 C20.8495273,33.6153249 20.719942,33.6365298 20.5950688,33.67812 L9.98699561,37.2294761 L10.086259,26.0428273 C10.0886151,25.7797639 10.0054346,25.523359 9.84901024,25.3116176 L3.19323951,16.3203395 L13.8628785,12.9576761 C14.1137517,12.8789005 14.3318444,12.72012 14.4846834,12.50592 L20.9796249,3.39724683 L27.4744639,12.50592 C27.6273029,12.72012 27.8453956,12.8789005 28.0962688,12.9576761 L38.7660102,16.3203395 L32.1102395,25.3116176 Z M41.8999273,15.3018907 C41.778742,14.9296273 41.485459,14.6388029 41.1124785,14.5215102 L29.2099859,10.7710127 L21.9651907,0.609778537 C21.7378785,0.291705366 21.370942,0.102500488 20.9796249,0.102500488 C20.5882054,0.102500488 20.2212688,0.291705366 19.994059,0.609778537 L12.7488541,10.7710127 L0.84677122,14.5215102 C0.473380976,14.6392127 0.180098049,14.9300371 0.05922,15.3018907 C-0.0616580488,15.6739493 0.00482487805,16.081759 0.23766878,16.3958371 L7.66214195,26.4265639 L7.55130293,38.9051737 C7.54771756,39.2966956 7.73333707,39.6650663 8.05028341,39.8951444 C8.36682,40.1253249 8.77493707,40.1882224 9.14586878,40.063759 L20.9796249,36.1022371 L32.8132785,40.063759 C32.9389712,40.1056566 33.0685566,40.1264517 33.1974249,40.1264517 C33.4499371,40.1264517 33.6996834,40.0473688 33.9089663,39.8951444 C34.2254005,39.6650663 34.4115322,39.2966956 34.4079468,38.9051737 L34.2971078,26.4265639 L41.7214785,16.3958371 C41.9544249,16.081759 42.0208054,15.6739493 41.8999273,15.3018907 Z" id="Fill-1"></path>
                <path d="M21.0820332,17.3925995 C20.4133112,17.3925995 19.8715112,17.934502 19.8715112,18.6031215 L19.8715112,25.0583166 C19.8715112,25.7266288 20.4133112,26.2685312 21.0820332,26.2685312 C21.7502429,26.2685312 22.2921454,25.7266288 22.2921454,25.0583166 L22.2921454,18.6031215 C22.2921454,17.934502 21.7502429,17.3925995 21.0820332,17.3925995" id="Fill-4"></path>
                <path d="M28.3440073,20.6202278 L26.3268805,20.6202278 L26.3268805,19.8131107 L28.3440073,19.8131107 C28.5665049,19.8131107 28.7474122,19.9944278 28.7474122,20.2169254 C28.7477195,20.4394229 28.5665049,20.6202278 28.3440073,20.6202278 M28.3440073,17.392579 L25.1163585,17.392579 C24.4481488,17.392579 23.905939,17.9344815 23.905939,18.603101 L23.905939,25.0582961 C23.905939,25.7267107 24.4481488,26.2685107 25.1163585,26.2685107 C25.7846707,26.2685107 26.3268805,25.7267107 26.3268805,25.0582961 L26.3268805,23.0407595 L28.3440073,23.0407595 C29.9013878,23.0407595 31.1682512,21.7739985 31.1682512,20.2169254 C31.1682512,18.6595449 29.9013878,17.392579 28.3440073,17.392579" id="Fill-6"></path>
                <path d="M17.4722151,17.4694288 C16.8464151,17.2349459 16.1490102,17.5518922 15.9141176,18.178102 L14.6267663,21.6110385 L13.3391078,18.178102 C13.1046249,17.5518922 12.4067078,17.2349459 11.7809078,17.4694288 C11.1551078,17.7043215 10.8377517,18.4022385 11.0726444,19.0280385 L13.4931761,25.4833361 C13.6703956,25.9554776 14.1221517,26.2685312 14.6263566,26.2685312 C15.1309712,26.2685312 15.5827273,25.9554776 15.7600493,25.4833361 L18.180581,19.0280385 C18.4154737,18.4022385 18.0985273,17.7043215 17.4722151,17.4694288" id="Fill-8"></path>
            </g>
        </g>
    </g>
</svg>