<?xml version="1.0" encoding="utf-8"?>
<!-- Generator: Adobe Illustrator 22.1.0, SVG Export Plug-In . SVG Version: 6.00 Build 0)  -->
<svg version="1.1" id="Layer_1" xmlns="http://www.w3.org/2000/svg" xmlns:xlink="http://www.w3.org/1999/xlink" x="0px" y="0px"
	 viewBox="0 0 96 96" style="enable-background:new 0 0 96 96;" xml:space="preserve">
<style type="text/css">
	.st0{fill:#FFFFFF;}
</style>
<g id="Layer_2_1_">
	<path class="st0" d="M10.7,46.3l12.5-5.6c0,0-4.1-5.2-11.7-4.5S0,42.9,0,45.8c0,0-0.5,4.8,2.3,7.4c1.2,1.3,1.8,1.6,2.3,2
		c0.3,0.8-0.4,2.4-0.4,2.4s-0.7,1.9,0.5,1.2c0,0,2.4-1.7,3-1.8s1.1,0.2,2.7,0.4s6.1,0.7,10-2c4-2.7,7.2-7.9,3.6-13.6
		c-4.2,2.6-14.3,8.4-14.3,8.4s-1.3,1.1-1.9-0.8c-1-2-2-4.4-2-4.4s-0.2-1.2,0.8-0.6c0.8,0.6,2.6,1.9,2.6,1.9S9.7,47,10.7,46.3z"/>
	<g>
		<path class="st0" d="M36.1,54.2h-1.6v-4.9h-1l1.4-4.5h1.8l-1,3.2h0.5L36.1,54.2L36.1,54.2z M35.4,44.5h-1.8l1.3-4h1.8L35.4,44.5z
			 M42.7,46.4v1.5h-6.3l1.3-1.5H42.7z M41.7,45.6h-4.8V41h1.6v3h0.7v-3.4h1.5v3.4h0.6v-3h1.5v3.5L41.7,45.6z M40.5,50.3h-1.7v3.9H37
			v-5.5h5.3v3.5h1l-0.7,2h-2L40.5,50.3L40.5,50.3z M46.2,49.8l1.6,4.4h-1.6l-0.8-2.1l-0.7,2.1H43l1.5-4.4l-1.3-3.5h1.6l0.4,1.2
			l0.5-1.3v-3.3h-1v2l-1.5,1.3v-5.6h1.5v0.9h3.2v1.5h-0.4v3.4L46.2,49.8z"/>
		<path class="st0" d="M53,40.5l-1.7,5.4h0.9v8.4h-1.7v-7.5h-1.2l2-6.2L53,40.5L53,40.5z M59.5,41.2h4.2v1.6H52.8l1.1-1.6h3.9l1.7-1
			L59.5,41.2L59.5,41.2z M63.1,43.9v1.6h-9.7l1.1-1.6H63.1L63.1,43.9z M63.1,46.6v1.6h-9.7l1.1-1.6H63.1z M61.7,54.2h-8.2v-4.9h9.7
			v3.4L61.7,54.2z M61.5,52.6v-1.7h-6.3v1.7H61.5z"/>
		<path class="st0" d="M74.2,50.7l5.5,3.5h-2.9l-4-2.6l-4,2.6h-3l5.4-3.6l-4.6-3l2.9,0l3.1,2l4.6-3H66.5l1.1-1.6H72v-1.9h-5.9
			l1.1-1.6H72v-1.1h1.7v1.1h5.8v1.6h-5.8V45h5.5v2.3L74.2,50.7z"/>
		<path class="st0" d="M84.1,45.8h0.7v8.4H83v-7.5h-1.1l2.5-6.2h1.8L84.1,45.8z M92.6,52.6v-8h-7.1l1.3-1.6h5.9v-2.6h1.7V43H96v1.6
			h-1.7v9.6h-4.9l1.1-1.6H92.6z M89.5,50.3l-1.7,1.3V46h1.7V50.3z"/>
	</g>
</g>
</svg>
