<?xml version="1.0" encoding="utf-8"?>
<!-- Generator: Adobe Illustrator 24.0.1, SVG Export Plug-In . SVG Version: 6.00 Build 0)  -->
<svg version="1.1" id="圖層_1" xmlns="http://www.w3.org/2000/svg" xmlns:xlink="http://www.w3.org/1999/xlink" x="0px" y="0px"
	 viewBox="0 0 68 69" style="enable-background:new 0 0 68 69;" xml:space="preserve">
<style type="text/css">
	.st0{opacity:0.3;}
	.st1{fill:#150901;}
	.st2{fill-rule:evenodd;clip-rule:evenodd;fill:#D2C0AC;}
</style>
<title>w_close01</title>
<g class="st0">
	<circle class="st1" cx="34" cy="34.5" r="31.5"/>
</g>
<path class="st2" d="M38.5,34.5l8.7-9.1c1.2-1.3,1.2-3.3-0.1-4.5c-1.3-1.2-3.3-1.2-4.6,0.1L34,29.8L25.6,21
	c-1.3-1.3-3.3-1.3-4.6-0.1c-1.3,1.2-1.3,3.2-0.1,4.5l8.7,9.1l-8.7,9.1c-1.2,1.3-1.2,3.3,0.1,4.5c1.3,1.2,3.3,1.2,4.6-0.1l8.4-8.8
	l8.4,8.8c1.3,1.3,3.3,1.3,4.6,0.1c1.3-1.2,1.3-3.2,0.1-4.5L38.5,34.5z"/>
<path class="st2" d="M34.3,0L34.3,0C15.4-0.1,0.1,15.2,0,34c0,0.1,0,0.3,0,0.4C-0.2,53.3,14.9,68.8,33.8,69c0.1,0,0.3,0,0.4,0
	C53.2,69,68,53.6,68,34.4S53.2,0,34.3,0z M34.2,64.4C18,64.4,5.6,51.3,5.6,34.7S18,4.6,34.1,4.6h0.1c15.8,0,28.2,13.1,28.2,29.8
	S50,64.6,34.2,64.4z"/>
</svg>
