<?xml version="1.0" encoding="utf-8"?>
<!-- Generator: Adobe Illustrator 16.0.0, SVG Export Plug-In . SVG Version: 6.00 Build 0)  -->
<!DOCTYPE svg PUBLIC "-//W3C//DTD SVG 1.1//EN" "http://www.w3.org/Graphics/SVG/1.1/DTD/svg11.dtd">
<svg version="1.1" id="圖層_1" xmlns="http://www.w3.org/2000/svg" xmlns:xlink="http://www.w3.org/1999/xlink" x="0px" y="0px"
	 width="479px" height="478px" viewBox="0 0 479 478" enable-background="new 0 0 479 478" xml:space="preserve">
<g>
	<defs>
		<rect id="SVGID_1_" x="-22" y="-63" width="960" height="560"/>
	</defs>
	<clipPath id="SVGID_2_">
		<use xlink:href="#SVGID_1_"  overflow="visible"/>
	</clipPath>
	<path clip-path="url(#SVGID_2_)" fill="#FFFFFF" d="M381.815,381.446c-36.324,36.066-86.316,58.386-141.428,58.386
		c-110.739,0-200.831-90.094-200.831-200.832c0-27.105,5.409-52.969,15.186-76.582l55.031,141.21l0.048,0.124l0.152-0.053
		l0.152,0.053l0.048-0.124l42.835-109.917l42.835,109.917l0.049,0.124l0.152-0.053l0.151,0.053l0.048-0.124l74.895-192.184h-35.283
		l-39.811,102.159l-42.683-109.526h-0.706l-42.682,109.526L61.512,89.251c-8.44,10.065-16.047,20.847-22.717,32.246
		C18.589,156.029,6.988,196.183,6.988,239c0,128.697,104.703,233.399,233.399,233.399c59.033,0,113.008-22.042,154.154-58.313
		L381.815,381.446z"/>
	<path clip-path="url(#SVGID_2_)" fill="#0078FF" d="M240.388,5.601c-60.333,0-115.392,23.011-156.862,60.716l12.822,32.888
		c36.52-37.62,87.593-61.037,144.04-61.037c110.739,0,200.832,90.093,200.832,200.832c0,28.204-5.855,55.063-16.396,79.441
		l-54.888-140.316l-0.048-0.124l-0.151,0.053l-0.152-0.053l-0.049,0.124l-42.835,109.918l-42.835-109.919l-0.049-0.125l-0.151,0.053
		l-0.152-0.056l-0.048,0.119l-74.604,191.412h35.253l39.551-101.541l42.682,109.037h0.706l42.683-109.2l47.558,123.254
		c8.644-10.042,16.447-20.826,23.304-32.241c21.06-35.052,33.188-76.052,33.188-119.836
		C473.787,110.304,369.083,5.601,240.388,5.601"/>
</g>
</svg>
